<?xml version="1.0" encoding="UTF-8"?>
<svg width="112px" height="112px" viewBox="0 0 112 112" version="1.1" xmlns="http://www.w3.org/2000/svg" xmlns:xlink="http://www.w3.org/1999/xlink">
    <!-- Generator: Sketch 52.6 (67491) - http://www.bohemiancoding.com/sketch -->
    <title>Oval Copy 2</title>
    <desc>Created with Sketch.</desc>
    <defs>
        <linearGradient x1="50%" y1="0.82347973%" x2="50%" y2="100%" id="linearGradient-1">
            <stop stop-color="#B4DC51" offset="0%"></stop>
            <stop stop-color="#49A026" offset="100%"></stop>
        </linearGradient>
    </defs>
    <g id="www" stroke="none" stroke-width="1" fill="none" fill-rule="evenodd">
        <g id="Tab" transform="translate(-329.000000, -1899.000000)" fill="url(#linearGradient-1)" fill-rule="nonzero">
            <path d="M413.129279,1912.40639 L409.71067,1916.80701 C402.039226,1911.68525 392.821412,1908.69952 382.906549,1908.69952 C356.204038,1908.69952 334.557376,1930.35566 334.557376,1957.06985 C334.557376,1983.78405 356.204038,2005.44019 382.906549,2005.44019 C409.60906,2005.44019 431.255722,1983.78405 431.255722,1957.06985 C431.255722,1947.20792 428.305659,1938.0353 423.240228,1930.38707 L427.624669,1926.94362 C433.426136,1935.54569 436.813098,1945.91207 436.813098,1957.06985 C436.813098,1986.85465 412.678314,2011 382.906549,2011 C353.134784,2011 329,1986.85465 329,1957.06985 C329,1927.28506 353.134784,1903.13971 382.906549,1903.13971 C394.106915,1903.13971 404.509466,1906.55705 413.129279,1912.40639 Z M401.066867,1927.9338 L397.6347,1932.35187 C393.326785,1929.77723 388.289365,1928.29777 382.906549,1928.29777 C367.023117,1928.29777 354.147052,1941.17947 354.147052,1957.06985 C354.147052,1972.96024 367.023117,1985.84194 382.906549,1985.84194 C398.789981,1985.84194 411.666046,1972.96024 411.666046,1957.06985 C411.666046,1951.77675 410.237364,1946.81747 407.744744,1942.55694 L412.150735,1939.09655 C415.367769,1944.32439 417.223422,1950.48032 417.223422,1957.06985 C417.223422,1976.03084 401.859235,1991.40175 382.906549,1991.40175 C363.953863,1991.40175 348.589676,1976.03084 348.589676,1957.06985 C348.589676,1938.10887 363.953863,1922.73796 382.906549,1922.73796 C389.575259,1922.73796 395.799692,1924.64097 401.066867,1927.9338 Z M388.944744,1943.53807 L385.365866,1948.145 C384.582762,1947.92951 383.758091,1947.81441 382.906549,1947.81441 C377.797144,1947.81441 373.655152,1951.95821 373.655152,1957.06985 C373.655152,1962.1815 377.797144,1966.3253 382.906549,1966.3253 C388.015954,1966.3253 392.157946,1962.1815 392.157946,1957.06985 C392.157946,1956.35252 392.076376,1955.65425 391.92201,1954.98382 L396.565743,1951.33672 C397.306161,1953.1002 397.715322,1955.03722 397.715322,1957.06985 C397.715322,1965.25209 391.085208,1971.88511 382.906549,1971.88511 C374.727889,1971.88511 368.097776,1965.25209 368.097776,1957.06985 C368.097776,1948.88762 374.727889,1942.2546 382.906549,1942.2546 C385.057151,1942.2546 387.100679,1942.71323 388.944744,1943.53807 Z M385.611468,1958.68273 C384.419337,1959.87538 382.48651,1959.87538 381.29438,1958.68273 C380.102249,1957.49008 380.102249,1955.55641 381.29438,1954.36375 L415.429443,1920.21375 L416.981012,1912.03686 L417.87511,1909.87737 L428.747717,1899 L432.407335,1899.52483 L432.407335,1907.34822 L440.657472,1907.34822 L441,1911.08189 L428.954377,1922.15844 L426.888604,1922.96394 L419.746531,1924.53272 L385.611468,1958.68273 Z M421.69016,1912.45756 L420.590509,1918.93221 L426.683662,1918.08832 L433.816902,1911.38977 L428.176101,1911.38977 L428.176101,1905.98291 L421.69016,1912.45756 Z" id="Oval-Copy-2"></path>
        </g>
    </g>
</svg>