<svg width="120" height="40" viewBox="0 0 120 40" fill="none" xmlns="http://www.w3.org/2000/svg">
<g clip-path="url(#clip0)">
<path d="M110.135 7.92969e-06H9.53468C9.16798 7.92969e-06 8.80568 7.92975e-06 8.43995 0.00200793C8.1338 0.00400793 7.83009 0.00981793 7.521 0.0147079C6.84951 0.0226097 6.17961 0.0816842 5.5171 0.191418C4.85552 0.303541 4.21467 0.514924 3.61622 0.818418C3.0185 1.12448 2.47235 1.52218 1.99757 1.99708C1.5203 2.47064 1.12246 3.01802 0.81935 3.61817C0.5154 4.21712 0.304641 4.85895 0.19435 5.52149C0.0830109 6.18319 0.0230984 6.85253 0.01515 7.52349C0.00587 7.83009 0.00489 8.13771 0 8.44435V31.5586C0.00489 31.8691 0.00587 32.1699 0.01515 32.4805C0.0231008 33.1514 0.0830134 33.8207 0.19435 34.4824C0.304336 35.1453 0.515108 35.7875 0.81935 36.3867C1.12233 36.9849 1.52022 37.5301 1.99757 38.001C2.47054 38.478 3.01705 38.876 3.61622 39.1797C4.21467 39.484 4.85545 39.6967 5.5171 39.8105C6.17972 39.9194 6.84956 39.9785 7.521 39.9873C7.83009 39.9941 8.1338 39.998 8.43995 39.998C8.80567 40 9.168 40 9.53468 40H110.135C110.494 40 110.859 40 111.219 39.998C111.523 39.998 111.836 39.9941 112.141 39.9873C112.811 39.9789 113.479 39.9198 114.141 39.8105C114.804 39.6959 115.448 39.4833 116.049 39.1797C116.647 38.8758 117.193 38.4779 117.666 38.001C118.142 37.5282 118.541 36.9835 118.848 36.3867C119.15 35.7871 119.358 35.145 119.467 34.4824C119.578 33.8206 119.64 33.1515 119.652 32.4805C119.656 32.1699 119.656 31.8691 119.656 31.5586C119.664 31.1953 119.664 30.834 119.664 30.4648V9.53614C119.664 9.16993 119.664 8.80665 119.656 8.44435C119.656 8.13771 119.656 7.83009 119.652 7.52345C119.64 6.85243 119.578 6.18324 119.467 5.52145C119.358 4.85929 119.149 4.21751 118.848 3.61813C118.23 2.4152 117.252 1.43603 116.049 0.818328C115.448 0.515575 114.804 0.304248 114.141 0.191328C113.48 0.0811107 112.811 0.0220157 112.141 0.0145679C111.836 0.00968793 111.523 0.00382793 111.219 0.00187793C110.859 -0.00012207 110.494 -0.00012207 110.135 -0.00012207V7.92969e-06Z" fill="black"/>
<path d="M8.44487 39.125C8.14019 39.125 7.84287 39.1211 7.54058 39.1143C6.91436 39.1061 6.2896 39.0516 5.67144 38.9512C5.09503 38.8519 4.53664 38.6673 4.0147 38.4033C3.49754 38.1415 3.02585 37.7983 2.6177 37.3867C2.20364 36.98 1.85891 36.5082 1.59719 35.9902C1.33258 35.4688 1.14945 34.9099 1.05419 34.333C0.951311 33.7131 0.895651 33.0863 0.887687 32.458C0.881347 32.2471 0.873047 31.5449 0.873047 31.5449V8.44434C0.873047 8.44434 0.881887 7.75293 0.887737 7.5498C0.895363 6.92248 0.950699 6.29665 1.05327 5.67773C1.14871 5.09925 1.33197 4.53875 1.59673 4.01563C1.85749 3.49794 2.2003 3.02586 2.61187 2.61768C3.02297 2.20562 3.49617 1.8606 4.01421 1.59521C4.53495 1.33209 5.09228 1.14873 5.66753 1.05127C6.28772 0.949836 6.91465 0.894996 7.54304 0.88721L8.44536 0.875H111.214L112.127 0.8877C112.75 0.895099 113.371 0.94945 113.985 1.05029C114.566 1.14898 115.13 1.33362 115.656 1.59814C116.694 2.13299 117.539 2.97916 118.071 4.01807C118.332 4.53758 118.512 5.09351 118.607 5.66699C118.71 6.29099 118.768 6.92174 118.78 7.5542C118.783 7.8374 118.783 8.1416 118.783 8.44434C118.791 8.81934 118.791 9.17627 118.791 9.53613V30.4648C118.791 30.8281 118.791 31.1826 118.783 31.54C118.783 31.8652 118.783 32.1631 118.779 32.4697C118.768 33.0909 118.711 33.7104 118.608 34.3232C118.515 34.9043 118.333 35.4675 118.068 35.9932C117.805 36.5056 117.462 36.9733 117.053 37.3789C116.644 37.7927 116.172 38.1379 115.653 38.4014C115.128 38.6674 114.566 38.8527 113.985 38.9512C113.367 39.0522 112.742 39.1067 112.116 39.1143C111.823 39.1211 111.517 39.125 111.219 39.125L110.135 39.127L8.44487 39.125Z" fill="black"/>
<path d="M24.9968 19.8893C25.008 19.0214 25.2385 18.1703 25.667 17.4154C26.0954 16.6605 26.7079 16.0262 27.4474 15.5716C26.9776 14.9007 26.3579 14.3486 25.6374 13.9591C24.917 13.5696 24.1156 13.3535 23.297 13.3279C21.5507 13.1446 19.8578 14.3728 18.968 14.3728C18.0609 14.3728 16.6908 13.3461 15.2155 13.3764C14.2612 13.4072 13.3312 13.6847 12.516 14.1819C11.7009 14.679 11.0284 15.3788 10.5641 16.2131C8.55303 19.6951 10.0531 24.8125 11.9796 27.6271C12.9435 29.0053 14.07 30.5448 15.544 30.4903C16.9864 30.4304 17.5251 29.5705 19.2662 29.5705C20.9912 29.5705 21.4966 30.4903 23.0005 30.4555C24.5483 30.4304 25.5234 29.0712 26.4535 27.6799C27.146 26.6979 27.679 25.6125 28.0325 24.464C27.1333 24.0837 26.3659 23.4471 25.8261 22.6336C25.2863 21.8201 24.9978 20.8657 24.9968 19.8893Z" fill="white"/>
<path d="M22.1561 11.4768C23 10.4637 23.4158 9.1616 23.3151 7.84692C22.0258 7.98234 20.8349 8.59854 19.9795 9.57274C19.5614 10.0487 19.2411 10.6023 19.037 11.2021C18.8329 11.8019 18.7491 12.436 18.7902 13.0682C19.4351 13.0749 20.0731 12.9351 20.6561 12.6594C21.2391 12.3838 21.752 11.9794 22.1561 11.4768V11.4768Z" fill="white"/>
<path d="M42.3018 27.1396H37.5684L36.4316 30.4961H34.4268L38.9102 18.0781H40.9932L45.4766 30.4961H43.4375L42.3018 27.1396ZM38.0586 25.5908H41.8106L39.961 20.1435H39.9092L38.0586 25.5908Z" fill="white"/>
<path d="M55.1592 25.9697C55.1592 28.7832 53.6533 30.5908 51.3809 30.5908C50.8052 30.6209 50.2327 30.4883 49.7289 30.2082C49.2251 29.928 48.8104 29.5117 48.5323 29.0068H48.4893V33.4912H46.6309V21.4423H48.4297V22.9482H48.4639C48.7548 22.4457 49.1766 22.0316 49.6842 21.7497C50.1918 21.4679 50.7664 21.3289 51.3467 21.3476C53.6446 21.3476 55.1592 23.164 55.1592 25.9697ZM53.249 25.9697C53.249 24.1367 52.3018 22.9316 50.8565 22.9316C49.4365 22.9316 48.4815 24.1621 48.4815 25.9697C48.4815 27.7939 49.4365 29.0156 50.8565 29.0156C52.3018 29.0156 53.249 27.8193 53.249 25.9697H53.249Z" fill="white"/>
<path d="M65.1245 25.9697C65.1245 28.7832 63.6182 30.5908 61.3457 30.5908C60.7701 30.6209 60.1976 30.4883 59.6938 30.2082C59.19 29.928 58.7753 29.5117 58.4971 29.0068H58.4541V33.4912H56.5957V21.4423H58.3945V22.9482H58.4287C58.7197 22.4457 59.1414 22.0316 59.649 21.7497C60.1567 21.4679 60.7312 21.3289 61.3115 21.3476C63.6094 21.3476 65.1245 23.164 65.1245 25.9697ZM63.2139 25.9697C63.2139 24.1367 62.2666 22.9316 60.8213 22.9316C59.4014 22.9316 58.4463 24.1621 58.4463 25.9697C58.4463 27.7939 59.4014 29.0156 60.8213 29.0156C62.2666 29.0156 63.2139 27.8193 63.2139 25.9697V25.9697Z" fill="white"/>
<path d="M71.7095 27.0361C71.8472 28.2676 73.0435 29.0761 74.6783 29.0761C76.2447 29.0761 77.3716 28.2675 77.3716 27.1572C77.3716 26.1933 76.6919 25.6162 75.0826 25.2207L73.4732 24.833C71.1929 24.2822 70.1343 23.2158 70.1343 21.4853C70.1343 19.3427 72.0015 17.871 74.6519 17.871C77.2769 17.871 79.0757 19.3427 79.1363 21.4853H77.2603C77.148 20.246 76.1236 19.498 74.6265 19.498C73.1294 19.498 72.105 20.2548 72.105 21.3564C72.105 22.2343 72.7593 22.7509 74.3599 23.1464L75.7281 23.4823C78.2759 24.0849 79.3335 25.1083 79.3335 26.9247C79.3335 29.248 77.4839 30.703 74.5405 30.703C71.7866 30.703 69.9272 29.2821 69.8071 27.036L71.7095 27.0361Z" fill="white"/>
<path d="M83.3462 19.2998V21.4424H85.0679V22.9141H83.3462V27.9053C83.3462 28.6807 83.6909 29.042 84.4477 29.042C84.6521 29.0384 84.8562 29.0241 85.0591 28.999V30.4619C84.7188 30.5255 84.3729 30.5543 84.0268 30.5478C82.1938 30.5478 81.479 29.8593 81.479 28.1035V22.9141H80.1626V21.4424H81.479V19.2998H83.3462Z" fill="white"/>
<path d="M86.064 25.9697C86.064 23.1211 87.7417 21.3311 90.3579 21.3311C92.9829 21.3311 94.6528 23.1211 94.6528 25.9697C94.6528 28.8262 92.9917 30.6084 90.3579 30.6084C87.7251 30.6084 86.064 28.8262 86.064 25.9697ZM92.7593 25.9697C92.7593 24.0156 91.8638 22.8623 90.3579 22.8623C88.852 22.8623 87.9565 24.0244 87.9565 25.9697C87.9565 27.9316 88.852 29.0762 90.3579 29.0762C91.8638 29.0762 92.7593 27.9316 92.7593 25.9697H92.7593Z" fill="white"/>
<path d="M96.1851 21.4424H97.9575V22.9834H98.0005C98.1205 22.5021 98.4024 22.0768 98.799 21.7789C99.1956 21.481 99.6826 21.3287 100.178 21.3476C100.392 21.3469 100.606 21.3702 100.815 21.417V23.1553C100.545 23.0726 100.263 23.0347 99.98 23.043C99.71 23.032 99.4409 23.0796 99.191 23.1825C98.9412 23.2854 98.7166 23.4411 98.5326 23.639C98.3486 23.8369 98.2096 24.0723 98.1252 24.3289C98.0408 24.5856 98.0129 24.8575 98.0435 25.126V30.4961H96.1851L96.1851 21.4424Z" fill="white"/>
<path d="M109.383 27.8369C109.133 29.4805 107.533 30.6084 105.485 30.6084C102.851 30.6084 101.216 28.8437 101.216 26.0127C101.216 23.1729 102.86 21.3311 105.407 21.3311C107.912 21.3311 109.487 23.0518 109.487 25.7969V26.4336H103.092V26.5459C103.063 26.8791 103.104 27.2148 103.215 27.5306C103.325 27.8464 103.501 28.1352 103.731 28.3778C103.962 28.6203 104.241 28.8111 104.551 28.9374C104.86 29.0637 105.194 29.1226 105.528 29.1103C105.967 29.1515 106.408 29.0498 106.784 28.8203C107.161 28.5909 107.454 28.246 107.619 27.8369L109.383 27.8369ZM103.101 25.1348H107.627C107.644 24.8352 107.599 24.5354 107.494 24.2541C107.389 23.9729 107.228 23.7164 107.019 23.5006C106.811 23.2849 106.56 23.1145 106.282 23.0003C106.005 22.8861 105.707 22.8305 105.407 22.8369C105.104 22.8351 104.804 22.8933 104.524 23.008C104.244 23.1227 103.989 23.2918 103.775 23.5054C103.561 23.7191 103.391 23.973 103.275 24.2527C103.159 24.5323 103.1 24.8321 103.101 25.1348V25.1348Z" fill="white"/>
<path d="M38.0078 8.73102C38.2713 8.71863 38.5345 8.76176 38.7802 8.85761C39.026 8.95345 39.2488 9.09988 39.4344 9.28739C39.6199 9.4749 39.764 9.69932 39.8572 9.94608C39.9504 10.1928 39.9908 10.4564 39.9756 10.7198C39.986 10.9835 39.9413 11.2465 39.8443 11.492C39.7472 11.7375 39.6 11.96 39.412 12.1452C39.224 12.3305 38.9994 12.4745 38.7526 12.568C38.5057 12.6614 38.2421 12.7023 37.9785 12.688H36.5977V14.6978H35.6709V8.73102H38.0078ZM36.5976 11.8736H37.7636C38.5615 11.8736 39.0293 11.46 39.0293 10.7198C39.0293 9.96295 38.5781 9.54938 37.7637 9.54938H36.5977L36.5976 11.8736Z" fill="white"/>
<path d="M40.8418 12.4443C40.8135 12.1484 40.8474 11.8499 40.9412 11.5678C41.0351 11.2857 41.1868 11.0264 41.3868 10.8064C41.5867 10.5864 41.8304 10.4107 42.1023 10.2904C42.3741 10.1701 42.6681 10.108 42.9654 10.108C43.2626 10.108 43.5566 10.1701 43.8285 10.2904C44.1003 10.4107 44.344 10.5864 44.544 10.8064C44.7439 11.0264 44.8957 11.2857 44.9895 11.5678C45.0834 11.8499 45.1172 12.1484 45.0889 12.4443C45.1177 12.7406 45.0843 13.0396 44.9907 13.3221C44.8971 13.6046 44.7454 13.8644 44.5455 14.0848C44.3455 14.3052 44.1016 14.4814 43.8294 14.6019C43.5573 14.7225 43.263 14.7847 42.9654 14.7847C42.6677 14.7847 42.3734 14.7225 42.1013 14.6019C41.8292 14.4814 41.5853 14.3052 41.3853 14.0848C41.1853 13.8644 41.0336 13.6046 40.94 13.3221C40.8464 13.0396 40.813 12.7406 40.8418 12.4443V12.4443ZM44.1748 12.4443C44.1748 11.4683 43.7364 10.8975 42.9668 10.8975C42.1944 10.8975 41.7598 11.4683 41.7598 12.4444C41.7598 13.4282 42.1944 13.9946 42.9668 13.9946C43.7364 13.9946 44.1748 13.4243 44.1748 12.4443Z" fill="white"/>
<path d="M47.2441 13.9863H47.1777V14.6978H46.3223V8.43701H47.211V10.9102H47.2813C47.4141 10.6611 47.6148 10.4547 47.86 10.3149C48.1052 10.1751 48.385 10.1076 48.667 10.1202C49.8077 10.1202 50.5274 11.0132 50.5274 12.4444C50.5274 13.8706 49.8038 14.772 48.667 14.772C48.3805 14.7846 48.0961 14.7179 47.8451 14.5793C47.594 14.4407 47.3861 14.2355 47.2441 13.9863V13.9863ZM47.1943 12.4483C47.1992 13.3911 47.6621 13.9741 48.4102 13.9741C49.1631 13.9741 49.6133 13.3994 49.6133 12.4443C49.6133 11.4971 49.1631 10.9185 48.4102 10.9185C47.666 10.9185 47.1992 11.5054 47.1943 12.4483Z" fill="white"/>
<path d="M51.6045 8.8633C51.5977 8.7482 51.6255 8.63369 51.6845 8.53461C51.7435 8.43553 51.8309 8.35644 51.9353 8.30759C52.0397 8.25873 52.1565 8.24237 52.2703 8.26061C52.3842 8.27885 52.4899 8.33085 52.5739 8.40989C52.6578 8.48892 52.7161 8.59135 52.7412 8.70389C52.7663 8.81644 52.757 8.93392 52.7145 9.04112C52.672 9.14832 52.5983 9.24029 52.503 9.30514C52.4077 9.36998 52.295 9.4047 52.1797 9.4048C52.106 9.40856 52.0323 9.39737 51.9631 9.37192C51.8938 9.34647 51.8304 9.30727 51.7767 9.25669C51.7229 9.20611 51.68 9.14518 51.6504 9.07758C51.6208 9.00998 51.6052 8.93709 51.6045 8.8633V8.8633ZM51.7364 10.1948H52.6221V14.6978H51.7364V10.1948Z" fill="white"/>
<path d="M57.8632 13.482C57.7425 13.8935 57.4809 14.2495 57.1242 14.4876C56.7675 14.7258 56.3384 14.8309 55.912 14.7847C55.6154 14.7925 55.3205 14.7357 55.048 14.6182C54.7755 14.5006 54.5319 14.3252 54.334 14.1041C54.1361 13.8829 53.9886 13.6214 53.902 13.3376C53.8153 13.0537 53.7914 12.7544 53.8319 12.4605C53.7924 12.1656 53.8168 11.8656 53.9032 11.581C53.9897 11.2963 54.1364 11.0335 54.3332 10.8105C54.5301 10.5874 54.7726 10.4092 55.0443 10.288C55.316 10.1668 55.6106 10.1054 55.9081 10.1079C57.161 10.1079 57.9169 10.9639 57.9169 12.3779V12.688H54.7372V12.7378C54.7233 12.9031 54.7441 13.0694 54.7982 13.2262C54.8523 13.3829 54.9386 13.5266 55.0515 13.6481C55.1644 13.7695 55.3015 13.866 55.4539 13.9314C55.6062 13.9968 55.7706 14.0297 55.9364 14.0278C56.149 14.0533 56.3644 14.0151 56.5551 13.9179C56.7459 13.8207 56.9034 13.6689 57.0077 13.4819L57.8632 13.482ZM54.7372 12.0308H57.0116C57.0228 11.8797 57.0023 11.7279 56.9513 11.5851C56.9004 11.4424 56.8201 11.3119 56.7157 11.2021C56.6113 11.0922 56.4851 11.0054 56.3452 10.9472C56.2053 10.8891 56.0547 10.8608 55.9032 10.8643C55.7495 10.8624 55.597 10.8912 55.4546 10.9492C55.3122 11.0071 55.1829 11.093 55.0742 11.2017C54.9656 11.3104 54.8798 11.4398 54.8219 11.5821C54.764 11.7245 54.7352 11.8771 54.7372 12.0308H54.7372Z" fill="white"/>
<path d="M59.1104 10.1948H59.9659V10.8853H60.0323C60.128 10.6456 60.2973 10.4424 60.5157 10.305C60.7342 10.1675 60.9906 10.1028 61.2481 10.1201C61.3812 10.1183 61.5141 10.1308 61.6446 10.1572V11.0342C61.4815 10.9994 61.3152 10.9814 61.1485 10.9805C61.0019 10.9674 60.8542 10.985 60.7149 11.0323C60.5755 11.0796 60.4476 11.1556 60.3393 11.2553C60.2311 11.355 60.1449 11.4762 60.0863 11.6112C60.0277 11.7462 59.9979 11.8919 59.999 12.0391V14.6978H59.1104L59.1104 10.1948Z" fill="white"/>
<path d="M62.5234 14.0942L65 11.0176V10.9473H62.54V10.1948H66.063V10.8438L63.6396 13.875V13.9453H66.0884V14.6977H62.5234V14.0942Z" fill="white"/>
<path d="M74.4702 14.6978H73.5483L72.6177 11.3813H72.5474L71.6206 14.6978H70.7075L69.4663 10.1948H70.3677L71.1743 13.6308H71.2407L72.1665 10.1948H73.0191L73.9448 13.6308H74.0151L74.8179 10.1948H75.7065L74.4702 14.6978Z" fill="white"/>
</g>
<defs>
<clipPath id="clip0">
<rect width="119.664" height="40" fill="white"/>
</clipPath>
</defs>
</svg>
