<?xml version="1.0" encoding="UTF-8"?>
<svg width="905px" height="866px" viewBox="0 0 905 866" version="1.1" xmlns="http://www.w3.org/2000/svg" xmlns:xlink="http://www.w3.org/1999/xlink">
    <!-- Generator: Sketch 52.6 (67491) - http://www.bohemiancoding.com/sketch -->
    <title>Group 2@3x</title>
    <desc>Created with Sketch.</desc>
    <defs>
        <radialGradient cx="46.0496961%" cy="47.1027749%" fx="46.0496961%" fy="47.1027749%" r="100%" gradientTransform="translate(0.460497,0.471028),scale(0.717982,1.000000),rotate(90.000000),translate(-0.460497,-0.471028)" id="radialGradient-1">
            <stop stop-color="#FFFFFF" offset="0%"></stop>
            <stop stop-color="#C3E5D9" offset="100%"></stop>
        </radialGradient>
    </defs>
    <g id="All-screens" stroke="none" stroke-width="1" fill="none" fill-rule="evenodd">
        <g id="Desktop-final-Copy" transform="translate(-60.000000, 0.000000)">
            <g id="Group-2" transform="translate(61.000000, -37.000000)">
                <g id="Group-18" transform="translate(70.000000, 253.000000)">
                    <path d="M211,32 C202.163444,32 195,24.8413994 195,16.0108181 C195,7.18023679 202.163444,0.0216362201 211,0.0216362201 C219.836556,0.0216362201 227,7.18023679 227,16.0108181 C227,24.8413994 219.836556,32 211,32 Z M211,30.6008564 C219.063308,30.6008564 225.59991,24.0686738 225.59991,16.0108181 C225.59991,7.95296247 219.063308,1.42077983 211,1.42077983 C202.936692,1.42077983 196.40009,7.95296247 196.40009,16.0108181 C196.40009,24.0686738 202.936692,30.6008564 211,30.6008564 Z M211.181264,15.246862 C214.785868,15.0244835 217.639603,12.2553381 217.639603,8.51025467 C217.639603,4.60380895 214.534655,1.44241605 210.711322,1.44241605 L210.711322,0 C215.33792,0 219.082995,3.81315704 219.082995,8.51025467 C219.082995,13.1916018 215.362994,16.6802512 210.757834,16.7035952 C207.146976,16.9448921 204.504736,20.2004404 204.504736,23.7998648 C204.504736,27.5408921 207.603589,30.5792202 211.433018,30.5792202 L211.188388,31.6904017 C206.567885,31.6904017 203.061344,28.343731 203.061344,23.7998648 C203.061344,19.2583341 206.564281,15.2509804 211.181264,15.246862 Z M208.108987,10.7768481 C207.152391,10.7768481 206.376917,10.0018981 206.376917,9.04594883 C206.376917,8.08999957 207.152391,7.31504958 208.108987,7.31504958 C209.065583,7.31504958 209.841058,8.08999957 209.841058,9.04594883 C209.841058,10.0018981 209.065583,10.7768481 208.108987,10.7768481 Z M213.88467,24.7461686 C212.928074,24.7461686 212.152599,23.9712186 212.152599,23.0152693 C212.152599,22.05932 212.928074,21.2843701 213.88467,21.2843701 C214.841266,21.2843701 215.61674,22.05932 215.61674,23.0152693 C215.61674,23.9712186 214.841266,24.7461686 213.88467,24.7461686 Z" id="Oval-Copy-2" fill="#8FD466" fill-rule="nonzero" opacity="0.6"></path>
                    <path d="M0,118.263979 L5.84701914,118.263979 L10.8788781,113.142737 L10.8788781,123.609097 L2.77799421,123.609097 C1.2063995,123.705628 0.420602146,124.505383 0.420602146,126.008364 C0.420602146,127.511345 1.2063995,128.163662 2.77799421,127.965314 L10.8788781,126.762302 M25,118.263979 L19.1529809,118.263979 L14.1211219,113.142737 L14.1211219,123.609097 L22.2220058,123.609097 C23.7936005,123.705628 24.5793979,124.505383 24.5793979,126.008364 C24.5793979,127.511345 23.7936005,128.163662 22.2220058,127.965314 L14.1211219,126.762302 M12.476517,111.127855 C9.45727684,111.127855 7.0096991,108.636799 7.0096991,105.563927 C7.0096991,102.491055 9.45727684,100 12.476517,100 C15.4957571,100 17.9433349,102.491055 17.9433349,105.563927 C17.9433349,108.636799 15.4957571,111.127855 12.476517,111.127855 Z" id="Combined-Shape" stroke="#96ADDB" stroke-width="1.49999991" opacity="0.2" stroke-linecap="round" stroke-linejoin="round"></path>
                    <g id="Group-12" opacity="0.2" transform="translate(7.000000, 276.000000)" stroke="#A0D563" stroke-width="1.66304338">
                        <circle id="Oval-Copy-2" cx="15.5" cy="15.5" r="15.5"></circle>
                        <circle id="Oval-Copy-2" cx="15.5" cy="15.5" r="9.5"></circle>
                        <path d="M15.5,19 C17.4329966,19 19,17.4329966 19,15.5 C19,13.5670034 17.4329966,12 15.5,12 C13.5670034,12 12,13.5670034 12,15.5 C12,17.4329966 13.5670034,19 15.5,19 Z" id="Oval-Copy-2"></path>
                    </g>
                    <path d="M198.831287,123.103282 C200.716112,119.493572 200.321144,116.408309 197.646382,113.847491 C193.63424,110.006263 185.947655,112.696515 185.947655,118.360466 C185.947655,112.240389 177.449341,110.118485 174.254885,113.847491 C172.003228,115.849605 171.437896,118.57135 172.55889,122.012727 C174.752193,126.835611 179.215115,131.831369 185.947655,137 C187.143195,136.000671 188.318651,135.01235 189.474021,134.035037 M199.91162,125.747032 L196.338148,125.747032 L193.287728,133.329375 L189.368962,121.68722 L185.91162,130.010323 L183.389037,123.107724 L182.059391,125.747032 L179.648393,125.747032" id="Path-37" stroke="#E55FA5" stroke-width="1.49999991" opacity="0.6" stroke-linecap="round" stroke-linejoin="round"></path>
                    <path d="M104.589895,52.2915458 C105.533448,52.2915458 106.298349,51.5266448 106.298349,50.5830916 C106.298349,49.6395384 105.533448,48.8746374 104.589895,48.8746374 C103.646342,48.8746374 102.881441,49.6395384 102.881441,50.5830916 C102.881441,51.5266448 103.646342,52.2915458 104.589895,52.2915458 Z M115.404127,52.2915458 C114.460573,52.2915458 113.695672,51.5266448 113.695672,50.5830916 C113.695672,49.6395384 114.460573,48.8746374 115.404127,48.8746374 C116.34768,48.8746374 117.112581,49.6395384 117.112581,50.5830916 C117.112581,51.5266448 116.34768,52.2915458 115.404127,52.2915458 Z M100.935878,58.2217654 C100.788329,57.8786559 100.946863,57.7709526 101.289972,57.6234042 C101.633082,57.4758558 102.030839,57.6343894 102.178387,57.9774989 C103.468489,60.9775059 106.512811,62.6884472 109.94517,62.6884472 C113.373406,62.6884472 116.414796,60.9823155 117.707578,57.9876502 C117.855608,57.6447479 118.253586,57.4867721 118.596488,57.6348014 C118.939391,57.7828306 119.097367,58.1808093 118.949337,58.5237116 C117.442456,62.0143246 113.912727,64.0409735 109.94517,64.0409735 C105.972823,64.0409735 102.439663,61.7186718 100.935878,58.2217654 Z M110,69 C101.715729,69 95,62.2842712 95,54 C95,45.7157288 101.715729,39 110,39 C118.284271,39 125,45.7157288 125,54 C125,62.2842712 118.284271,69 110,69 Z M110,67.5762882 C117.497977,67.5762882 123.576288,61.4979769 123.576288,54 C123.576288,46.5020231 117.497977,40.4237118 110,40.4237118 C102.502023,40.4237118 96.4237118,46.5020231 96.4237118,54 C96.4237118,61.4979769 102.502023,67.5762882 110,67.5762882 Z" id="Oval-Copy-2" fill="#FF9400" fill-rule="nonzero" opacity="0.4"></path>
                    <g id="Group-16" opacity="0.6" transform="translate(201.000000, 335.000000)">
                        <path d="M5.77477971,25.9798885 C5.77085873,26.3120862 5.76657434,28.7170882 5.76192654,29.1017688 C10.8391124,31.6327437 16.4608545,31.6327437 22.6271529,29.1017688 C20.6094218,25.241176 20.6094218,22.2171069 22.6271529,20.0295614 C25.6537494,16.7482433 26,14.0038769 26,11.2895566 C26,8.57523625 23.8682556,0 14.0664914,0 C7.95451659,7.57715393e-16 3.99434791,3.18423391 2.18598537,9.55270172 L0,15.60504 L2.18598537,16.7482433 L2.18598537,23.261449 C2.07766855,24.8742428 3.26964894,25.6806397 5.76192654,25.6806397 C8.25420414,25.6806397 9.94483819,25.6806397 10.8338287,25.6806397 C13.4205533,25.8082546 14.7139156,25.0018577 14.7139156,23.261449" id="Path-Copy-2" stroke="#9A53DA" stroke-width="1.49999991"></path>
                        <polygon id="Path-2-Copy-2" fill="#9A53DA" points="15.8836806 6 12.2836236 6 10 10.7869959 12.4425346 10.7869959 10.2667177 16 17 8.92945872 14.5950567 8.92945872"></polygon>
                    </g>
                    <path d="M110.234698,327.561417 C108.609725,327.75196 107.024624,328.477987 105.766406,329.736205 C105.06839,330.434221 104.522099,331.24444 104.144395,332.128687 C103.97239,332.531369 103.50963,332.725829 103.110791,332.563026 C102.711952,332.400222 102.528067,331.941805 102.700072,331.539123 C103.1586,330.465655 103.82178,329.482077 104.667028,328.636828 C108.208274,325.095583 113.884605,325.030422 117.345469,328.491286 C118.192082,329.337899 118.843962,330.334147 119.278092,331.428162 C119.437011,331.828639 119.238145,332.289607 118.833914,332.457763 C118.429682,332.625919 117.973159,332.437586 117.814241,332.037109 C117.456631,331.135926 116.919676,330.315315 116.220559,329.616197 C114.980179,328.375818 113.394671,327.684729 111.758616,327.53955 C111.78254,327.613542 111.795443,327.692319 111.795443,327.774041 L111.795443,347.922073 C111.795443,348.351407 111.439316,348.69945 111.000011,348.69945 C110.560706,348.69945 110.204579,348.351407 110.204579,347.922073 L110.204579,327.774041 C110.204579,327.70032 110.215079,327.628995 110.234698,327.561417 Z M102.409345,351 C101.97004,351 101.613913,350.651956 101.613913,350.222623 C101.613913,349.79329 101.97004,349.445246 102.409345,349.445246 L119.590678,349.445246 C120.029983,349.445246 120.38611,349.79329 120.38611,350.222623 C120.38611,350.651956 120.029983,351 119.590678,351 L102.409345,351 Z M102.509647,335.630197 L100.228732,337.85934 C99.9802232,338.102207 99.5773114,338.102207 99.3288029,337.85934 C99.0802945,337.616472 99.0802945,337.222706 99.3288029,336.979838 L102.059683,334.310945 C102.308191,334.068077 102.711103,334.068077 102.959611,334.310945 L107.572341,338.818972 C107.672169,338.916535 107.735966,339.043772 107.753688,339.180655 C108.203145,342.652148 106.310723,344.501614 102.394061,344.501614 C98.4768012,344.501614 96.5939864,342.669277 97.0732878,339.231248 C97.1162509,338.923073 97.3855626,338.693303 97.7038081,338.693303 L105.643895,338.693303 L102.509647,335.630197 Z M98.2804628,339.937106 C98.1499397,342.211599 99.4333968,343.257811 102.394061,343.257811 C105.332179,343.257811 106.632063,342.210398 106.542954,339.937106 L98.2804628,339.937106 Z M121.771268,337.85934 L119.490353,335.630197 L116.356105,338.693303 L124.296192,338.693303 C124.614437,338.693303 124.883749,338.923073 124.926712,339.231248 C125.406014,342.669277 123.523199,344.501614 119.605939,344.501614 C115.689277,344.501614 113.796855,342.652148 114.246312,339.180655 C114.264034,339.043772 114.327831,338.916535 114.427659,338.818972 L119.040389,334.310945 C119.288897,334.068077 119.691809,334.068077 119.940317,334.310945 L122.671197,336.979838 C122.919706,337.222706 122.919706,337.616472 122.671197,337.85934 C122.422689,338.102207 122.019777,338.102207 121.771268,337.85934 Z M123.719537,339.937106 L115.457046,339.937106 C115.367937,342.210398 116.667821,343.257811 119.605939,343.257811 C122.566603,343.257811 123.85006,342.211599 123.719537,339.937106 Z" id="Combined-Shape" fill="#DB6565" fill-rule="nonzero" opacity="0.4"></path>
                    <g id="Group-17" opacity="0.4" transform="translate(67.000000, 176.000000)" stroke="#4A90E2" stroke-width="1.49999991">
                        <circle id="Oval-Copy" cx="15" cy="15" r="15"></circle>
                        <polyline id="Path-3-Copy" points="15 5 15 14.6370153 22 22"></polyline>
                    </g>
                    <path d="M185.732428,232.608344 L185.732428,229 L186.330015,229 L186.330015,232.608344 L186.917949,232.608344 C188.243432,232.608344 189.317949,233.682861 189.317949,235.008344 L189.317949,235.01947 C189.317949,235.077467 189.315891,235.134983 189.311846,235.19195 C193.663669,235.763703 198.226387,237.712515 203,241.038386 C201.216565,244.089652 198.757337,246.310528 195.622317,247.701013 L195.878219,247.831047 L197.159232,254 L191.183365,249.447284 L191.502011,248.977678 C189.90433,249.290749 188.179255,249.447284 186.326789,249.447284 C184.567194,249.447284 182.911562,249.306051 181.359892,249.023585 L181.678876,249.447284 L175.048523,254 L176.469834,247.831047 L176.822521,247.669524 C173.612915,246.277101 171.005408,244.066722 169,241.038386 C174.007766,237.992388 178.59752,236.101441 182.769262,235.365544 C182.752942,235.252542 182.744495,235.136992 182.744495,235.01947 L182.744495,235.008344 C182.744495,233.682861 183.819011,232.608344 185.144494,232.608344 L185.732428,232.608344 Z M186.597587,243.657724 C187.48545,243.657724 188.205206,242.933387 188.205206,242.039871 C188.205206,241.146356 187.48545,240.422019 186.597587,240.422019 C185.709723,240.422019 184.989968,241.146356 184.989968,242.039871 C184.989968,242.933387 185.709723,243.657724 186.597587,243.657724 Z M180.62172,243.657724 C181.509583,243.657724 182.229339,242.933387 182.229339,242.039871 C182.229339,241.146356 181.509583,240.422019 180.62172,240.422019 C179.733856,240.422019 179.0141,241.146356 179.0141,242.039871 C179.0141,242.933387 179.733856,243.657724 180.62172,243.657724 Z M192.573454,243.657724 C193.461317,243.657724 194.181073,242.933387 194.181073,242.039871 C194.181073,241.146356 193.461317,240.422019 192.573454,240.422019 C191.68559,240.422019 190.965835,241.146356 190.965835,242.039871 C190.965835,242.933387 191.68559,243.657724 192.573454,243.657724 Z" id="Combined-Shape" stroke="#71CBB4" stroke-width="1.49999991" opacity="0.6"></path>
                    <path d="M671.870981,190.675106 C672.178766,188.742311 673.605228,187.630556 675.983922,187.475245 L682.080461,187.475245 C682.145079,187.475245 682.208915,187.476526 682.271957,187.479079 C682.298464,187.476543 682.325333,187.475245 682.352505,187.475245 C683.141014,187.475245 683.544596,187.066981 683.708327,185.979099 C683.77696,185.523076 684.202301,185.209031 684.658353,185.27766 C685.114404,185.346289 685.428468,185.771604 685.359835,186.227628 C685.22539,187.120926 684.91192,187.830568 684.435638,188.326232 C684.854322,188.728664 685.160658,189.269281 685.340508,189.938324 C685.460226,190.383674 685.196226,190.841746 684.750848,190.961456 C684.305471,191.081166 683.847371,190.817183 683.727653,190.371832 C683.495929,189.509815 683.011056,189.145248 682.080461,189.145248 C679.759238,189.145248 679.759238,189.145248 676.03889,189.143437 C674.231932,189.262631 673.478003,189.984717 673.478003,191.510107 C673.478003,192.967808 674.389433,193.634969 676.651965,193.60968 L677.796541,193.60968 C678.430414,192.755711 679.472554,192.308577 680.921599,192.308577 C683.393373,192.308577 683.393373,192.308577 687.384825,192.309087 C688.074731,192.333208 688.663716,192.475896 689.136321,192.729156 C689.96017,192.660151 691.329894,191.527314 691.329894,189.909633 C691.329894,189.060799 690.996833,188.562531 690.339088,188.176122 C690.094712,188.032557 689.163824,187.643865 689.000871,187.534278 C688.618577,187.277184 688.382762,186.856204 688.595873,186.337254 C688.681165,186.129557 688.744914,185.542876 688.667399,184.983386 C688.556971,184.18634 688.200509,183.496569 687.534726,182.970959 C687.044028,182.581418 686.145907,182.45439 684.816714,182.665298 C684.426359,182.727238 684.04604,182.507043 683.905425,182.137686 C683.478622,181.016598 682.884869,180.390501 682.113319,180.171603 C681.33717,179.9514 680.408431,180.195766 679.294603,180.979289 C678.856665,181.287357 678.246019,181.109486 678.042043,180.614439 C677.442527,179.159424 676.653075,178.579764 675.560907,178.68192 C674.45376,178.785476 673.783648,179.459389 673.457136,180.892337 C673.330035,181.450141 672.692293,181.717825 672.20511,181.417859 C671.029362,180.693932 670.10695,180.693932 669.253929,181.363608 C668.441528,182.001397 668.292528,183.087327 668.920643,184.814922 C668.938811,184.861337 668.952944,184.909775 668.962611,184.959805 C668.963471,184.964369 668.964324,184.968935 668.965139,184.973501 C668.973458,185.020795 668.977796,185.06946 668.977796,185.119138 C668.977796,185.168413 668.973528,185.216692 668.96534,185.263624 C668.944116,185.383783 668.89677,185.497905 668.827196,185.597604 C668.757449,185.697181 668.666521,185.780838 668.560952,185.842036 C668.519684,185.865843 668.475805,185.886431 668.429524,185.903354 C668.38937,185.918036 668.348818,185.929443 668.308161,185.93771 C668.301609,185.939075 668.295012,185.940318 668.288389,185.941483 C668.233836,185.95121 668.179178,185.955332 668.125121,185.954178 C666.168184,185.962682 665.170649,187.38832 665.92032,189.212028 C666.333621,190.217454 667.025605,190.675106 668.142743,190.675106 L671.870981,190.675106 Z M671.88004,192.345109 L668.142743,192.345109 C666.352419,192.345109 665.047887,191.482342 664.375619,189.84693 C663.312656,187.261085 664.599953,184.930395 667.050684,184.397844 C666.600098,182.525352 666.967035,181.035764 668.22259,180.050071 C669.397772,179.127476 670.737388,178.960224 672.140494,179.518542 C672.746023,178.03332 673.852006,177.164468 675.405364,177.019175 C677.008669,176.86921 678.281619,177.602239 679.155424,179.100211 C680.348716,178.451388 681.492494,178.259546 682.569184,178.565016 C683.71595,178.890367 684.595866,179.69863 685.201921,180.933039 C686.63746,180.796005 687.766251,181.022458 688.571391,181.661622 C690.140896,182.900678 690.60893,184.876431 690.331789,186.319622 C690.610224,186.443013 690.969286,186.609454 691.185091,186.736234 C692.320658,187.403353 693,188.419664 693,189.909633 C693,191.959458 691.674721,193.494412 690.309559,194.108705 C690.41341,194.418217 690.467088,194.765259 690.467088,195.148018 C690.467088,196.928915 689.302528,197.905625 687.355646,197.892215 L683.114926,197.892215 C682.653739,197.892215 682.279873,197.518373 682.279873,197.057214 C682.279873,196.596055 682.653739,196.222212 683.114926,196.222212 L687.36139,196.222232 C688.443949,196.229678 688.796982,195.93359 688.796982,195.148018 C688.796982,194.347046 688.421421,194.016352 687.355646,193.978581 L680.921599,193.978581 C679.356592,193.978581 678.785769,194.561854 678.732526,196.111708 C678.692421,197.279127 679.258067,197.859267 680.606591,198.335712 C680.782919,198.39801 680.967236,198.457093 681.209082,198.530207 C681.188262,198.523913 681.681951,198.67142 681.814541,198.712754 C682.259343,198.851418 682.556002,198.966449 682.815049,199.119888 C683.506131,199.529228 684.529644,200.374627 685.922808,201.675742 L685.971837,201.725533 L688.578768,204.604548 C688.888312,204.946399 688.862104,205.474443 688.520233,205.783967 C688.178361,206.093492 687.650285,206.067286 687.340741,205.725436 L684.757359,202.872426 C683.461086,201.663127 682.517759,200.884801 681.963877,200.556727 C681.84667,200.487302 681.646014,200.409497 681.317461,200.307073 C681.196013,200.269212 680.71374,200.125116 680.725759,200.128749 C680.461475,200.048852 680.254788,199.982599 680.050201,199.910317 C678.090154,199.217815 676.993374,198.092929 677.063405,196.054375 C677.07276,195.782053 677.097256,195.523716 677.136882,195.27965 L676.661318,195.27963 C673.932202,195.310198 672.239828,194.309533 671.88004,192.345109 Z M670.446323,185.047723 C669.922224,184.101473 671.305007,183.282717 671.882786,184.197183 C671.901673,184.227076 671.920172,184.25807 671.938247,184.290079 C672.25105,184.771291 673.055656,184.943934 674.221862,184.655385 C674.866921,184.495781 675.258817,184.015481 675.439131,183.059458 C675.558306,182.427596 676.316998,182.161879 676.804408,182.581298 C677.453123,183.13952 678.069816,183.40078 678.671096,183.40078 C679.235052,183.40078 679.542687,183.274159 679.68927,183.060703 C679.950332,182.680542 680.470165,182.583981 680.850349,182.845027 C681.230533,183.106073 681.3271,183.625874 681.066038,184.006035 C680.569479,184.729129 679.739408,185.070783 678.671096,185.070783 C677.998476,185.070783 677.342922,184.892108 676.709044,184.544672 C676.282615,185.442573 675.582082,186.0392 674.623016,186.276497 C673.786955,186.48336 673.004475,186.520282 672.33058,186.379103 C672.193698,187.406167 671.532335,188.192796 670.375838,188.47785 C669.928054,188.58822 669.475575,188.314715 669.365198,187.866959 C669.254822,187.419202 669.528344,186.966751 669.976128,186.856381 C670.458098,186.737585 670.641416,186.50937 670.680259,186.113918 C670.712737,185.783272 670.616644,185.364648 670.500919,185.141854 C670.482209,185.111029 670.464008,185.079653 670.446323,185.047723 Z" id="Combined-Shape" fill="#6CB4BA" fill-rule="nonzero" opacity="0.4"></path>
                    <path d="M578.539245,112.069796 L577.501454,113.4057 C575.172622,111.850878 572.374357,110.944497 569.364488,110.944497 C561.258369,110.944497 554.687061,117.518681 554.687061,125.628349 C554.687061,133.738016 561.258369,140.312201 569.364488,140.312201 C577.470607,140.312201 584.041916,133.738016 584.041916,125.628349 C584.041916,122.634546 583.146361,119.850002 581.608641,117.528219 L582.939632,116.482883 C584.700791,119.094228 585.728976,122.241163 585.728976,125.628349 C585.728976,134.670162 578.402345,142 569.364488,142 C560.326631,142 553,134.670162 553,125.628349 C553,116.586536 560.326631,109.256698 569.364488,109.256698 C572.764599,109.256698 575.922517,110.294106 578.539245,112.069796 Z M574.877442,116.783474 L573.835534,118.124676 C572.527774,117.343088 570.998557,116.893966 569.364488,116.893966 C564.542732,116.893966 560.633926,120.804482 560.633926,125.628349 C560.633926,130.452215 564.542732,134.362732 569.364488,134.362732 C574.186244,134.362732 578.09505,130.452215 578.09505,125.628349 C578.09505,124.021513 577.661343,122.516019 576.904654,121.222642 L578.242187,120.172168 C579.218787,121.759191 579.78211,123.627956 579.78211,125.628349 C579.78211,131.384361 575.117982,136.050531 569.364488,136.050531 C563.610994,136.050531 558.946866,131.384361 558.946866,125.628349 C558.946866,119.872336 563.610994,115.206167 569.364488,115.206167 C571.388918,115.206167 573.278478,115.783867 574.877442,116.783474 Z M571.197511,121.520486 L570.111066,122.919019 C569.873338,122.8536 569.622992,122.81866 569.364488,122.81866 C567.813419,122.81866 566.556028,124.0766 566.556028,125.628349 C566.556028,127.180097 567.813419,128.438038 569.364488,128.438038 C570.915558,128.438038 572.172948,127.180097 572.172948,125.628349 C572.172948,125.410587 572.148186,125.198612 572.101325,124.995087 L573.511029,123.887932 C573.735799,124.423274 573.860008,125.0113 573.860008,125.628349 C573.860008,128.112243 571.847295,130.125837 569.364488,130.125837 C566.881681,130.125837 564.868968,128.112243 564.868968,125.628349 C564.868968,123.144455 566.881681,121.130861 569.364488,121.130861 C570.017349,121.130861 570.637706,121.270089 571.197511,121.520486 Z M570.185624,126.117972 C569.823727,126.480027 569.236976,126.480027 568.875079,126.117972 C568.513183,125.755916 568.513183,125.168909 568.875079,124.806853 L579.237509,114.439888 L579.708521,111.957617 L579.979944,111.302058 L583.280557,108 L584.391512,108.159325 L584.391512,110.534282 L586.896018,110.534282 L587,111.667717 L583.343293,115.030239 L582.716183,115.274768 L580.548054,115.751006 L570.185624,126.117972 Z M581.138084,112.085332 L580.804262,114.05085 L582.653969,113.794669 L584.819417,111.761181 L583.107031,111.761181 L583.107031,110.119813 L581.138084,112.085332 Z" id="Oval-Copy-2" fill="#E0D22B" fill-rule="nonzero" opacity="0.6"></path>
                    <g id="Group-13" opacity="0.6" transform="translate(537.000000, 0.000000)">
                        <circle id="Oval-Copy" stroke="#5FC1C6" stroke-width="1.49999991" cx="15" cy="15" r="15"></circle>
                        <polyline id="Path-25" stroke="#62C0C5" stroke-width="1.49999991" stroke-linecap="round" stroke-linejoin="round" points="7.32720502 18.4100242 10.8366454 14.9905077 14.9037149 18.6825773 22.4220931 10.5671587"></polyline>
                        <path d="M19.9156962,10.4646223 L22.6812143,13.0414265 L23.6331503,9.23368266 L19.9156962,10.4646223 Z" id="Rectangle" stroke="#62C0C5" stroke-width="0.599999964" fill="#5FC1C6"></path>
                    </g>
                    <path d="M645.2452,348.079319 C643.526866,350.918451 639.63628,351.808687 636.220458,350.213211 C632.410801,348.433782 630,344.107841 630,337.977092 C630,337.548036 630.35158,337.200217 630.785276,337.200217 C631.218972,337.200217 631.570552,337.548036 631.570552,337.977092 C631.570552,343.539599 633.667638,347.302609 636.890991,348.808186 C639.61455,350.080317 642.619758,349.392671 643.897725,347.281138 C645.758202,344.20715 644.011247,341.36989 638.182267,338.560417 C637.661496,338.309414 637.585308,337.606038 638.040496,337.251571 C641.243125,334.757604 642.111234,332.744386 640.988608,331.057757 C639.867792,329.373847 638.377294,329.336272 636.078621,331.092904 C635.735398,331.355192 635.242237,331.292558 634.977112,330.953007 C634.711988,330.613457 634.775299,330.12557 635.118521,329.863282 C638.073504,327.605104 640.613601,327.669138 642.300319,330.203256 C643.837614,332.512881 642.964413,335.052589 639.941831,337.705292 C645.65858,340.739582 647.559164,344.256053 645.2452,348.079319 Z M640.972997,326.166961 C640.748121,325.800087 640.866448,325.322329 641.237289,325.099858 C641.60813,324.877387 642.091054,324.994449 642.31593,325.361323 C643.923386,327.983801 646.017791,329.432605 648.641918,329.765047 C651.259902,330.09671 653.120741,329.501699 654.33158,328.003224 C654.602384,327.668089 655.096532,327.613591 655.43529,327.881499 C655.774049,328.149406 655.829136,328.638269 655.558331,328.973403 C653.975462,330.932286 651.567778,331.702153 648.442428,331.306213 C645.32322,330.911051 642.819152,329.178864 640.972997,326.166961 Z M644.176355,337.689238 C643.901382,337.357442 643.950354,336.867944 644.285738,336.595912 C644.621121,336.32388 645.115913,336.372329 645.390886,336.704125 C646.340162,337.849567 647.37983,338.035814 648.766413,337.293783 C649.099491,337.115536 649.497771,336.843353 650.019345,336.443918 C650.343947,336.195329 651.624915,335.172535 651.555362,335.227492 C652.588894,334.410864 653.34126,333.874938 654.108439,333.446715 C656.173962,332.293785 657.97569,332.241409 659.434656,333.710065 C662.417709,336.712931 660.77967,340.96033 657.519239,341.90712 C655.196803,342.581527 651.724527,340.777269 651.724527,339.078895 C651.724527,338.649839 652.076107,338.302019 652.509803,338.302019 C652.943499,338.302019 653.295079,338.649839 653.295079,339.078895 C653.295079,339.153991 653.778906,339.642283 654.474003,340.003469 C655.363656,340.465748 656.327839,340.633785 657.0769,340.416266 C659.281296,339.776136 660.393573,336.892027 658.314503,334.799148 C657.445161,333.924032 656.39471,333.954568 654.8802,334.799935 C654.203734,335.177524 653.508352,335.672859 652.535487,336.441551 C652.616937,336.377195 651.320166,337.412606 650.980728,337.672557 C650.397334,338.119336 649.937505,338.433582 649.513661,338.660402 C647.473708,339.752084 645.609098,339.418056 644.176355,337.689238 Z M648.849059,327.043086 L650.133718,325.759522 L648.369936,323.967072 L647.365889,325.281693 L648.849059,327.043086 Z M645.737132,324.836907 L647.668172,322.308552 C647.958145,321.928884 648.521873,321.894012 648.857394,322.234986 L651.79687,325.222238 C652.095465,325.525687 652.093388,326.009819 651.792201,326.310749 L649.356943,328.743932 C649.030917,329.06968 648.492154,329.046778 648.195574,328.694563 L645.760316,325.802484 C645.526715,325.525063 645.517109,325.124988 645.737132,324.836907 Z" id="Combined-Shape" fill="#886EC5" fill-rule="nonzero" opacity="0.4"></path>
                    <g id="Group-14" opacity="0.6" transform="translate(532.000000, 335.000000)" stroke-width="1.49999991">
                        <path d="M15,25.3690559 C20.4435192,25.3690559 24.9,20.8477537 24.9,15.2181818 C24.9,9.58860998 20.4435192,5.06730769 15,5.06730769 C9.55648075,5.06730769 5.1,9.58860998 5.1,15.2181818 C5.1,20.8477537 9.55648075,25.3690559 15,25.3690559 Z M15,30.4363636 C6.71572875,30.4363636 0,23.6229516 0,15.2181818 C0,6.81341208 6.71572875,-2.13162821e-14 15,-2.13162821e-14 C23.2842712,-2.13162821e-14 30,6.81341208 30,15.2181818 C30,23.6229516 23.2842712,30.4363636 15,30.4363636 Z" id="Oval-Copy" stroke="#DB7A68" fill-rule="nonzero"></path>
                        <path d="M17.6685288,5.50688185 L19.2,0.612412587" id="Path-2" stroke="#DB7C6A" transform="translate(18.434264, 3.059647) rotate(-180.000000) translate(-18.434264, -3.059647) "></path>
                        <path d="M10.4260483,29.5632032 L11.9575195,24.668734" id="Path-2" stroke="#DB7D6B" transform="translate(11.191784, 27.115969) rotate(-180.000000) translate(-11.191784, -27.115969) "></path>
                        <path d="M17.6685288,5.50688185 L19.2,0.612412587 L17.6685288,5.50688185 Z M10.4260483,29.5632032 L11.9575195,24.668734 L10.4260483,29.5632032 Z" id="Combined-Shape" stroke="#DB7C6A" transform="translate(14.813024, 15.087808) rotate(-270.000000) translate(-14.813024, -15.087808) "></path>
                    </g>
                    <path d="M744.176617,122.9909 C745.137768,123.23854 746.106159,123.362359 747.081791,123.362359 C748.061896,123.362359 749.042001,123.237402 750.022106,122.987486 L750.022114,122.987518 C750.405013,122.889883 750.794562,123.121135 750.892197,123.504034 C750.906928,123.561807 750.914381,123.621195 750.914381,123.680817 L750.91438,123.902825 C750.91438,124.349801 750.614873,124.741339 750.183476,124.858318 C749.163709,125.134842 748.139462,125.273104 747.110734,125.273104 C746.080163,125.273104 745.049592,125.134346 744.019021,124.856831 L744.019022,124.856825 C743.5868,124.740435 743.286448,124.348503 743.286448,123.900884 L743.286448,123.680817 C743.286448,123.287362 743.605406,122.968404 743.998861,122.968404 C744.058822,122.968404 744.118544,122.975974 744.176609,122.990934 Z M744.838167,125.920944 C745.581885,126.033152 746.330795,126.089255 747.084895,126.089255 C747.84369,126.089255 748.602484,126.032451 749.361279,125.918842 L749.361284,125.918872 C749.797755,125.853523 750.204561,126.154376 750.269911,126.590848 C750.275775,126.630017 750.27872,126.669568 750.27872,126.709173 L750.278748,126.840703 C750.278748,127.328596 749.923303,127.743754 749.441234,127.818914 C748.666922,127.939638 747.889516,128 747.109014,128 C746.326117,128 745.54322,127.939267 744.760323,127.817801 L744.760323,127.817797 C744.277939,127.742955 743.922109,127.327661 743.922109,126.839505 L743.922109,126.709173 C743.922109,126.268928 744.278998,125.912038 744.719244,125.912038 C744.759051,125.912038 744.798803,125.91502 744.838165,125.920958 Z M746.947266,95 L747.253562,95 C747.667776,95 748.003562,95.3357864 748.003562,95.75 L748.003562,98.6353736 C748.003562,99.0495871 747.667776,99.3853736 747.253562,99.3853736 L746.947266,99.3853736 C746.533052,99.3853736 746.197266,99.0495871 746.197266,98.6353736 L746.197266,95.75 C746.197266,95.3357864 746.533052,95 746.947266,95 Z M759.057322,99.992963 L759.27495,100.21102 C759.567146,100.503793 759.567146,100.977861 759.27495,101.270635 L757.239743,103.309855 C756.947139,103.603037 756.472265,103.603505 756.179084,103.3109 C756.178735,103.310552 756.178387,103.310204 756.178039,103.309855 L755.960411,103.091798 C755.668214,102.799025 755.668214,102.324957 755.960411,102.032184 L757.995617,99.992963 C758.288222,99.6997814 758.763095,99.6993135 759.056277,99.991918 C759.056625,99.992266 759.056974,99.9926143 759.057322,99.992963 Z M734.905505,100.13533 L735.123133,99.917273 C735.415737,99.6240913 735.890611,99.6236235 736.183792,99.9162279 C736.184141,99.9165759 736.184489,99.9169243 736.184837,99.917273 L738.220044,101.956494 C738.51224,102.249267 738.51224,102.723335 738.220044,103.016108 L738.002416,103.234165 C737.709811,103.527347 737.234938,103.527815 736.941756,103.23521 C736.941408,103.234862 736.941059,103.234514 736.940711,103.234165 L734.905505,101.194945 C734.613308,100.902171 734.613308,100.428103 734.905505,100.13533 Z M730,112.372452 L730,112.062593 C730,111.648379 730.335786,111.312593 730.75,111.312593 L733.626741,111.312593 C734.040954,111.312593 734.376741,111.648379 734.376741,112.062593 L734.376741,112.372452 C734.376741,112.786666 734.040954,113.122452 733.626741,113.122452 L730.75,113.122452 C730.335786,113.122452 730,112.786666 730,112.372452 Z M759.623259,112.372452 L759.623259,112.062593 C759.623259,111.648379 759.959046,111.312593 760.373259,111.312593 L763.25,111.312593 C763.664214,111.312593 764,111.648379 764,112.062593 L764,112.372452 C764,112.786666 763.664214,113.122452 763.25,113.122452 L760.373259,113.122452 C759.959046,113.122452 759.623259,112.786666 759.623259,112.372452 Z M747.100414,120.727722 C751.950737,120.727722 755.8827,116.788003 755.8827,111.928114 C755.8827,107.068224 751.950737,103.128505 747.100414,103.128505 C742.250091,103.128505 738.318128,107.068224 738.318128,111.928114 C738.318128,116.788003 742.250091,120.727722 747.100414,120.727722 Z M747.100414,122.384032 C741.337138,122.384032 736.665079,117.702758 736.665079,111.928114 C736.665079,106.153469 741.337138,101.472195 747.100414,101.472195 C752.863691,101.472195 757.535749,106.153469 757.535749,111.928114 C757.535749,117.702758 752.863691,122.384032 747.100414,122.384032 Z" id="Combined-Shape" fill="#FF9400" opacity="0.2"></path>
                    <path d="M657.843247,52.0306211 C659.728912,48.4445341 659.333768,45.3794606 656.657814,42.8354006 C652.643883,39.0193105 644.917821,41.6919565 644.917821,47.318843 C644.917821,41.2388161 636.45177,39.1307975 633.25589,42.8354006 C631.003229,44.8244126 630.437645,47.5283469 631.559139,50.9472034 C633.729386,55.7385263 638.18228,60.7015914 644.917821,65.8363986 C646.113894,64.8436091 647.301891,63.8617557 648.48181,62.8908385 M660.710365,57.7658305 C661.343253,56.2427956 660.91414,54.8709906 659.665387,53.722136 C657.45124,51.6851186 653.189422,53.111769 653.189422,56.1153842 C653.189422,52.869884 648.519416,51.74463 646.756518,53.722136 C645.513915,54.7838647 645.20193,56.2272167 645.820564,58.0521921 C647.017706,60.6097859 649.473992,63.2590552 653.189422,66 C653.849195,65.4700519 655.613616,63.7583923 658.482684,60.8650211 C659.619075,59.6381089 660.361635,58.6050454 660.710365,57.7658305 Z" id="Path-36" stroke="#E55FA5" stroke-width="1.49999991" opacity="0.4" stroke-linecap="round" stroke-linejoin="round"></path>
                    <g id="Group-15" opacity="0.6" transform="translate(552.000000, 227.000000)" fill="#6886DA" fill-rule="nonzero">
                        <path d="M34.2792201,17.6638583 C31.8541411,17.3513063 29.545479,17.1371594 26.8195104,16.9505418 L26.8195104,17.6537474 C28.835491,17.7691952 30.7568873,17.9318263 32.7607029,18.1657987 L33.3768012,18.2377365 L32.9563172,18.6748415 C27.1457747,24.7150651 21.946179,27.7371872 17.5356907,27.6285079 C13.1272239,27.736737 7.93438717,24.7401383 2.04566819,18.7295886 L1.61782061,18.2928893 L2.23835718,18.2186219 C4.18588603,17.9855367 6.09569565,17.8226995 8.12544535,17.7064586 L8.12544539,16.9963705 C6.13930234,17.0954809 3.9653988,17.2983853 0.720788718,17.6638583 L3.55271368e-15,17.7501241 L0.476677136,18.263586 C6.88544647,25.0290762 12.3699231,28.3367977 17.1421597,28.3367977 L17.5550574,28.3367977 C17.8234409,28.3367977 17.8234409,28.3367977 17.9643786,28.3368169 C22.7643394,28.285179 28.2020864,24.994203 34.5212019,18.265857 L35,17.7501231 L34.2792201,17.6638583 Z" id="Path" stroke="#6986DA" stroke-width="0.6614999"></path>
                        <path d="M22.1886325,26.529896 C21.4615767,27.1188891 20.6018671,27.4743912 19.6488956,27.5876242 C19.155761,27.6811581 18.1864394,27.7586041 17.4127031,27.7586041 C16.648243,27.7586041 15.8149858,27.6801397 14.8950094,27.5329571 C14.0938075,27.368233 13.3374262,27.0332889 12.6283031,26.5236776 C9.70324681,24.2168567 8.16001474,18.1139098 8.04234031,8.19907338 C9.8408301,9.2753125 11.3046606,10.2304516 13.9297142,12.0331748 L14.6300742,10.8323006 C12.4039771,9.29963489 10.0931749,7.80884676 7.69290135,6.36000243 L7.10356067,6.00362105 L6.58731503,5.69144124 L6.58731082,6.91900476 C6.52942795,18.0023117 8.19762167,24.7897536 11.711515,27.5934521 C12.6939275,28.393 15.2430493,28.9845576 17.4127031,28.9845576 C19.731382,28.9845576 22.0837864,28.431813 23.118911,27.589407 C26.6286777,24.7890416 28.2959617,17.9995334 28.2384342,6.90116423 L28.267013,6.30818391 L28.2962922,5.69144124 L27.1897245,6.36059445 C26.4803311,6.78707764 25.5573294,7.3671352 24.4346272,8.09112906 L24.3083108,8.17265015 L24.1820391,8.25426665 C23.1941471,8.89327082 21.2740727,10.1570489 20.2563591,10.8338204 L20.9568285,12.0076552 C21.0357211,11.9457716 21.0786849,11.914626 21.126082,11.8845544 C22.9720418,10.6050319 24.8317757,9.39269862 26.7830659,8.19907338 C26.7249164,17.9980229 25.156342,24.1899025 22.1886325,26.529896 Z" id="Path"></path>
                        <path d="M22.3176775,10.933507 C25.5674042,17.891917 26.5922714,22.8833727 24.6517804,25.7863697 C23.373386,27.6515306 21.3455413,28.7553362 17.5291052,28.8242134 C13.712669,28.8930906 12.0220702,27.6801888 10.8419243,25.8365638 C8.88872291,22.8560714 9.5790806,17.826799 12.8569348,10.933507 C13.5678352,9.41511414 14.755957,6.68750875 16.6928279,2.14106853 L17.5873062,-8.8817842e-14 L17.8997743,0.747939557 L18.4809289,2.13904072 C20.4186553,6.68750875 21.6067771,9.41511414 22.3176775,10.933507 Z M23.0492148,25.0609813 C24.7583162,22.5479433 23.9990431,17.8953105 20.9194802,11.4878643 C20.3630336,10.325444 19.6087194,8.62018841 17.781555,4.42153874 L17.4735114,3.71368379 L17.1610358,4.41975567 C16.7231008,5.40931623 15.4558331,8.28046126 15.284031,8.66884919 C14.687773,10.0167917 14.3106531,10.8603431 14.0200108,11.4927942 C10.9757592,17.8827531 10.2249736,22.5772672 11.8915232,25.0593974 C12.8936355,26.5585904 14.8082926,27.3249316 17.4709041,27.3249316 C20.1715982,27.2675487 22.036997,26.5147528 23.0472131,25.06389 L23.0492148,25.0609813 Z" id="Shape"></path>
                    </g>
                    <g id="Group-19" opacity="0.2" transform="translate(732.000000, 275.000000)" stroke="#7394CD" stroke-width="1.49999991">
                        <path d="" id="Path-3" stroke-linecap="round"></path>
                        <path d="M11.7521397,24.8417387 C10.5889146,25.8798712 9.07286043,26.5077905 7.414791,26.5077905 C6.71077191,26.5077905 6.03235627,26.3945851 5.39568188,26.1848396 C5.0831372,26.2571323 4.75810053,26.2952746 4.4244373,26.2952746 C1.98088805,26.2952746 0,24.2496219 0,21.7261814 C0,20.7515512 0.295497255,19.8481947 0.799018175,19.1064452 C0.9042862,17.7315668 1.40243754,16.4708592 2.17754633,15.4440385 C2.42133423,11.8880823 5.29199928,9.08148148 8.79742765,9.08148148 C8.83637881,9.08148148 8.87525158,9.08182801 8.91404326,9.08251824 C10.1013141,7.22532681 12.140388,6 14.4565916,6 C16.5615148,6 18.437561,7.01197773 19.6534102,8.59051127 C20.4668956,8.09236695 21.416542,7.8063857 22.4308682,7.8063857 C25.4426847,7.8063857 27.8842444,10.3277716 27.8842444,13.4380587 C27.8842444,13.8507332 27.8412629,14.2530406 27.7596707,14.6404671 C30.1876317,15.2100049 32,17.4525878 32,20.1323116 C32,23.2425988 29.5584403,25.7639847 26.5466238,25.7639847 C26.3277554,25.7639847 26.1118985,25.7506695 25.8997711,25.7247806 C25.3711023,25.9553049 24.7899963,26.0827586 24.1800643,26.0827586 C22.8854274,26.0827586 21.7206629,25.5085289 20.9115674,24.5932484 C19.7095595,25.8413946 18.0450484,26.6140485 16.2057878,26.6140485 C14.4918863,26.6140485 12.9297252,25.9431294 11.7521397,24.8417387 Z" id="Combined-Shape" stroke-linecap="round"></path>
                        <path d="M27.7813505,14.3524986 C27.4970525,15.6610767 26.8086147,16.8007212 25.716037,17.7714322" id="Path-4" stroke-linecap="round"></path>
                        <path d="M19.8366749,8.45980786 C19.513374,8.58688127 19.0508598,8.8736257 18.4491325,9.32004116" id="Path-5" stroke-linecap="round" transform="translate(19.142904, 8.889925) rotate(-8.000000) translate(-19.142904, -8.889925) "></path>
                        <path d="M8.96669011,8.83657824 C8.32792404,10.1050675 8.32792404,11.0774733 8.96669011,11.7537957" id="Path-6" stroke-linecap="round"></path>
                        <path d="" id="Path-7" stroke-linecap="round"></path>
                        <path d="M6.414791,25.6158447 C5.64194802,25.1969004 5.17869105,24.5962938 5.0250201,23.8140248" id="Path-8" stroke-linecap="round"></path>
                        <path d="M21.0185264,24.3355865 C21.3226977,23.9987354 21.5779154,23.6178293 21.7841797,23.1928682" id="Path-10" stroke-linecap="round"></path>
                        <path d="" id="Path-9"></path>
                        <path d="M8.75849262,15.9349235 C10.3539807,17.3516966 11.931687,17.3516966 13.4916116,15.9349235" id="Path-11"></path>
                        <path d="M17.6073672,15.9349235 C19.2028553,17.3516966 20.7805616,17.3516966 22.3404862,15.9349235" id="Path-11"></path>
                        <path d="M27.8842444,7.6582457 L30.3681672,5.11220483" id="Path-13"></path>
                        <path d="M4.32154341,31.562141 L6.80546624,29.0161001" id="Path-13-Copy"></path>
                        <path d="M25.0032154,31.137109 L27.4871383,28.5910682" id="Path-13-Copy" transform="translate(26.245177, 29.864089) scale(-1, 1) translate(-26.245177, -29.864089) "></path>
                        <path d="M1.95498392,7.654095 L4.43890675,5.10805413" id="Path-13-Copy-2" transform="translate(3.196945, 6.381075) scale(-1, 1) translate(-3.196945, -6.381075) "></path>
                        <path d="M15.8959962,32 L15.8828805,28.5997446" id="Path-13-Copy"></path>
                        <path d="M15.8099786,2.64777316 L15.8099786,0.106257982" id="Path-13-Copy-2"></path>
                    </g>
                </g>
                <path d="M161,378 C158.238576,378 156,375.761424 156,373 C156,370.238576 158.238576,368 161,368 C163.761424,368 166,370.238576 166,373 C166,375.761424 163.761424,378 161,378 Z M268.5,455 C267.119288,455 266,453.880712 266,452.5 C266,451.119288 267.119288,450 268.5,450 C269.880712,450 271,451.119288 271,452.5 C271,453.880712 269.880712,455 268.5,455 Z M198.5,455 C197.119288,455 196,453.880712 196,452.5 C196,451.119288 197.119288,450 198.5,450 C199.880712,450 201,451.119288 201,452.5 C201,453.880712 199.880712,455 198.5,455 Z M689.5,455 C688.119288,455 687,453.880712 687,452.5 C687,451.119288 688.119288,450 689.5,450 C690.880712,450 692,451.119288 692,452.5 C692,453.880712 690.880712,455 689.5,455 Z M649,329 C647.895431,329 647,328.104569 647,327 C647,325.895431 647.895431,325 649,325 C650.104569,325 651,325.895431 651,327 C651,328.104569 650.104569,329 649,329 Z M638,431 C636.895431,431 636,430.104569 636,429 C636,427.895431 636.895431,427 638,427 C639.104569,427 640,427.895431 640,429 C640,430.104569 639.104569,431 638,431 Z M593,468 C591.895431,468 591,467.104569 591,466 C591,464.895431 591.895431,464 593,464 C594.104569,464 595,464.895431 595,466 C595,467.104569 594.104569,468 593,468 Z M579,440 C577.895431,440 577,439.104569 577,438 C577,436.895431 577.895431,436 579,436 C580.104569,436 581,436.895431 581,438 C581,439.104569 580.104569,440 579,440 Z M106,273 C104.895431,273 104,272.104569 104,271 C104,269.895431 104.895431,269 106,269 C107.104569,269 108,269.895431 108,271 C108,272.104569 107.104569,273 106,273 Z M156,206 C154.895431,206 154,205.104569 154,204 C154,202.895431 154.895431,202 156,202 C157.104569,202 158,202.895431 158,204 C158,205.104569 157.104569,206 156,206 Z M186,276 C184.895431,276 184,275.104569 184,274 C184,272.895431 184.895431,272 186,272 C187.104569,272 188,272.895431 188,274 C188,275.104569 187.104569,276 186,276 Z M334,447 C332.895431,447 332,446.104569 332,445 C332,443.895431 332.895431,443 334,443 C335.104569,443 336,443.895431 336,445 C336,446.104569 335.104569,447 334,447 Z M305,459 C303.895431,459 303,458.104569 303,457 C303,455.895431 303.895431,455 305,455 C306.104569,455 307,455.895431 307,457 C307,458.104569 306.104569,459 305,459 Z M310,559 C308.895431,559 308,558.104569 308,557 C308,555.895431 308.895431,555 310,555 C311.104569,555 312,555.895431 312,557 C312,558.104569 311.104569,559 310,559 Z M279,352 C277.895431,352 277,351.104569 277,350 C277,348.895431 277.895431,348 279,348 C280.104569,348 281,348.895431 281,350 C281,351.104569 280.104569,352 279,352 Z M310,314 C308.895431,314 308,313.104569 308,312 C308,310.895431 308.895431,310 310,310 C311.104569,310 312,310.895431 312,312 C312,313.104569 311.104569,314 310,314 Z M208,335 C206.895431,335 206,334.104569 206,333 C206,331.895431 206.895431,331 208,331 C209.104569,331 210,331.895431 210,333 C210,334.104569 209.104569,335 208,335 Z M203,410 C201.895431,410 201,409.104569 201,408 C201,406.895431 201.895431,406 203,406 C204.104569,406 205,406.895431 205,408 C205,409.104569 204.104569,410 203,410 Z M93,603 C91.8954305,603 91,602.104569 91,601 C91,599.895431 91.8954305,599 93,599 C94.1045695,599 95,599.895431 95,601 C95,602.104569 94.1045695,603 93,603 Z M97,473 C95.8954305,473 95,472.104569 95,471 C95,469.895431 95.8954305,469 97,469 C98.1045695,469 99,469.895431 99,471 C99,472.104569 98.1045695,473 97,473 Z M692,536 C690.895431,536 690,535.104569 690,534 C690,532.895431 690.895431,532 692,532 C693.104569,532 694,532.895431 694,534 C694,535.104569 693.104569,536 692,536 Z M620,559 C618.895431,559 618,558.104569 618,557 C618,555.895431 618.895431,555 620,555 C621.104569,555 622,555.895431 622,557 C622,558.104569 621.104569,559 620,559 Z M594,656 C592.895431,656 592,655.104569 592,654 C592,652.895431 592.895431,652 594,652 C595.104569,652 596,652.895431 596,654 C596,655.104569 595.104569,656 594,656 Z M681,730 C679.895431,730 679,729.104569 679,728 C679,726.895431 679.895431,726 681,726 C682.104569,726 683,726.895431 683,728 C683,729.104569 682.104569,730 681,730 Z M716,629 C714.895431,629 714,628.104569 714,627 C714,625.895431 714.895431,625 716,625 C717.104569,625 718,625.895431 718,627 C718,628.104569 717.104569,629 716,629 Z M862,509 C860.895431,509 860,508.104569 860,507 C860,505.895431 860.895431,505 862,505 C863.104569,505 864,505.895431 864,507 C864,508.104569 863.104569,509 862,509 Z M788,465 C786.895431,465 786,464.104569 786,463 C786,461.895431 786.895431,461 788,461 C789.104569,461 790,461.895431 790,463 C790,464.104569 789.104569,465 788,465 Z M749,319 C747.895431,319 747,318.104569 747,317 C747,315.895431 747.895431,315 749,315 C750.104569,315 751,315.895431 751,317 C751,318.104569 750.104569,319 749,319 Z M786,238 C784.895431,238 784,237.104569 784,236 C784,234.895431 784.895431,234 786,234 C787.104569,234 788,234.895431 788,236 C788,237.104569 787.104569,238 786,238 Z M650,260 C648.895431,260 648,259.104569 648,258 C648,256.895431 648.895431,256 650,256 C651.104569,256 652,256.895431 652,258 C652,259.104569 651.104569,260 650,260 Z M570,246 C568.895431,246 568,245.104569 568,244 C568,242.895431 568.895431,242 570,242 C571.104569,242 572,242.895431 572,244 C572,245.104569 571.104569,246 570,246 Z M688,179 C686.895431,179 686,178.104569 686,177 C686,175.895431 686.895431,175 688,175 C689.104569,175 690,175.895431 690,177 C690,178.104569 689.104569,179 688,179 Z M628.5,455 C627.119288,455 626,453.880712 626,452.5 C626,451.119288 627.119288,450 628.5,450 C629.880712,450 631,451.119288 631,452.5 C631,453.880712 629.880712,455 628.5,455 Z M298.397261,513.400841 C297.016549,513.400841 295.897261,512.281553 295.897261,510.900841 C295.897261,509.520129 297.016549,508.400841 298.397261,508.400841 C299.777973,508.400841 300.897261,509.520129 300.897261,510.900841 C300.897261,512.281553 299.777973,513.400841 298.397261,513.400841 Z M597.142997,398.723097 C595.762285,398.723097 594.642997,397.603809 594.642997,396.223097 C594.642997,394.842385 595.762285,393.723097 597.142997,393.723097 C598.523709,393.723097 599.642997,394.842385 599.642997,396.223097 C599.642997,397.603809 598.523709,398.723097 597.142997,398.723097 Z M299.154999,399.572495 C297.774288,399.572495 296.654999,398.453207 296.654999,397.072495 C296.654999,395.691783 297.774288,394.572495 299.154999,394.572495 C300.535711,394.572495 301.654999,395.691783 301.654999,397.072495 C301.654999,398.453207 300.535711,399.572495 299.154999,399.572495 Z M599.856638,509.018941 C598.475926,509.018941 597.356638,507.899653 597.356638,506.518941 C597.356638,505.138229 598.475926,504.018941 599.856638,504.018941 C601.23735,504.018941 602.356638,505.138229 602.356638,506.518941 C602.356638,507.899653 601.23735,509.018941 599.856638,509.018941 Z M161,536 C158.238576,536 156,533.761424 156,531 C156,528.238576 158.238576,526 161,526 C163.761424,526 166,528.238576 166,531 C166,533.761424 163.761424,536 161,536 Z M736,378 C733.238576,378 731,375.761424 731,373 C731,370.238576 733.238576,368 736,368 C738.761424,368 741,370.238576 741,373 C741,375.761424 738.761424,378 736,378 Z M736,536 C733.238576,536 731,533.761424 731,531 C731,528.238576 733.238576,526 736,526 C738.761424,526 741,528.238576 741,531 C741,533.761424 738.761424,536 736,536 Z M657,673 C654.238576,673 652,670.761424 652,668 C652,665.238576 654.238576,663 657,663 C659.761424,663 662,665.238576 662,668 C662,670.761424 659.761424,673 657,673 Z M657,246 C654.238576,246 652,243.761424 652,241 C652,238.238576 654.238576,236 657,236 C659.761424,236 662,238.238576 662,241 C662,243.761424 659.761424,246 657,246 Z M239,673 C236.238576,673 234,670.761424 234,668 C234,665.238576 236.238576,663 239,663 C241.761424,663 244,665.238576 244,668 C244,670.761424 241.761424,673 239,673 Z M239,246 C236.238576,246 234,243.761424 234,241 C234,238.238576 236.238576,236 239,236 C241.761424,236 244,238.238576 244,241 C244,243.761424 241.761424,246 239,246 Z" id="Combined-Shape" fill="url(#radialGradient-1)"></path>
                <ellipse id="Oval" stroke="#979797" opacity="0.0910063244" cx="451.5" cy="451" rx="310.5" ry="310"></ellipse>
                <ellipse id="Oval" stroke="#979797" opacity="0.0910063244" cx="451.5" cy="451" rx="451.5" ry="451"></ellipse>
            </g>
        </g>
    </g>
</svg>