<?xml version="1.0" encoding="UTF-8"?>
<svg width="106px" height="106px" viewBox="0 0 106 106" version="1.1" xmlns="http://www.w3.org/2000/svg" xmlns:xlink="http://www.w3.org/1999/xlink">
    <!-- Generator: Sketch 52.6 (67491) - http://www.bohemiancoding.com/sketch -->
    <title>Combined Shape</title>
    <desc>Created with Sketch.</desc>
    <defs>
        <linearGradient x1="50%" y1="-2.48949813e-15%" x2="50%" y2="100%" id="linearGradient-1">
            <stop stop-color="#4ADEBA" offset="0%"></stop>
            <stop stop-color="#00ABD9" offset="100%"></stop>
        </linearGradient>
    </defs>
    <g id="www" stroke="none" stroke-width="1" fill="none" fill-rule="evenodd">
        <g id="Tab" transform="translate(-332.000000, -2263.000000)" fill="url(#linearGradient-1)" fill-rule="nonzero">
            <path d="M360.744907,2312.76102 C362.082367,2306.15103 367.198753,2302.35 375.547593,2301.80357 L397.671842,2301.80357 C397.730654,2301.80357 397.789288,2301.80386 397.847742,2301.80445 C398.311169,2301.52681 398.854242,2301.36709 399.434868,2301.36709 C402.341047,2301.36709 403.828515,2299.87214 404.431972,2295.88864 C404.684933,2294.21882 406.252598,2293.06888 407.93345,2293.32018 C409.614303,2293.57148 410.771839,2295.12886 410.518878,2296.79868 C409.962433,2300.47185 408.573935,2303.29699 406.437994,2305.11688 C407.845418,2306.55601 408.881645,2308.44844 409.502508,2310.76363 C409.936961,2312.3837 408.97891,2314.05005 407.362641,2314.48553 C405.746373,2314.921 404.083935,2313.9607 403.649481,2312.34063 C402.808556,2309.20482 401.04896,2307.87862 397.671842,2307.87862 C389.24816,2307.87862 389.24816,2307.87862 375.747069,2307.87203 C370.114384,2308.24448 367.301313,2310.23515 366.619924,2314.3061 C366.87326,2314.7473 367.017857,2315.2571 367.017857,2315.80015 C367.017857,2316.42574 366.825975,2317.00717 366.497025,2317.49047 C366.909943,2322.09248 370.301242,2324.20504 377.971909,2324.1191 L381.664922,2324.1191 C383.947486,2320.65673 387.893067,2318.83929 393.495817,2318.83929 C402.569287,2318.83929 402.569287,2318.83929 417.221241,2318.84115 C419.703916,2318.92778 421.830567,2319.43187 423.547736,2320.32581 C423.559747,2320.32567 423.571775,2320.32561 423.583819,2320.32561 C426.554059,2320.32561 431.891348,2316.12372 431.891348,2310.03975 C431.891348,2306.94679 430.673127,2305.13122 428.26733,2303.72323 C427.373489,2303.20011 423.968633,2301.78381 423.372609,2301.3845 C421.974313,2300.44771 421.111788,2298.91375 421.891269,2297.02282 C422.203238,2296.26602 422.436411,2294.12829 422.152887,2292.08963 C421.74898,2289.18538 420.445169,2286.67201 418.009973,2284.75681 C416.215172,2283.33741 412.930168,2282.87455 408.06845,2283.64305 C406.640672,2283.86874 405.2496,2283.0664 404.735279,2281.72055 C403.174188,2277.63556 401.00245,2275.35421 398.180395,2274.5566 C395.341518,2273.75423 391.944523,2274.64464 387.870536,2277.49962 C386.268713,2278.62215 384.035188,2277.97403 383.289116,2276.17019 C381.096301,2270.86845 378.208766,2268.7563 374.214003,2269.12853 C370.164454,2269.50587 367.713422,2271.96145 366.519159,2277.18279 C366.054269,2279.2153 363.721633,2280.19067 361.939693,2279.09767 C357.639227,2276.45984 354.26537,2276.45984 351.145324,2278.89999 C348.332356,2281.09998 347.693907,2284.76333 349.582827,2290.48826 C350.084886,2291.02881 350.391191,2291.74873 350.391191,2292.53913 C350.391191,2294.04335 349.281796,2295.29233 347.825018,2295.53544 C347.424095,2295.63625 347.017907,2295.65241 346.627586,2295.5937 C339.804577,2295.90818 336.40457,2300.98858 339.094903,2307.4359 C340.621901,2311.09532 343.178536,2312.76102 347.305967,2312.76102 L360.744907,2312.76102 Z M360.546538,2318.83929 L347.305967,2318.83929 C340.691354,2318.83929 335.871572,2315.6991 333.387779,2309.74674 C329.487332,2300.3994 334.152046,2291.96809 343.086258,2289.95449 C341.438757,2283.13229 342.781029,2277.70513 347.373052,2274.11376 C351.671451,2270.75204 356.57129,2270.14261 361.703351,2272.17699 C363.918159,2266.76518 367.963451,2263.59928 373.645081,2263.06987 C379.509403,2262.52343 384.165401,2265.19442 387.361466,2270.65269 C391.726107,2268.28853 395.90964,2267.5895 399.847787,2268.70256 C404.042248,2269.88807 407.260669,2272.83319 409.477401,2277.33109 C414.728093,2276.83177 418.856809,2277.65692 421.801725,2279.98588 C427.542415,2284.50072 429.254316,2291.69991 428.240634,2296.95857 C429.259051,2297.40818 430.572371,2298.01465 431.361708,2298.47661 C435.51521,2300.90744 438,2304.61064 438,2310.03975 C438,2317.61027 433.020056,2323.25342 427.955834,2325.42953 C428.338115,2326.5647 428.535714,2327.83775 428.535714,2329.24203 C428.535714,2335.76663 424.260811,2339.34496 417.114131,2339.29584 L401.547154,2339.29584 C399.854214,2339.29584 398.481814,2337.9262 398.481814,2336.23667 C398.481814,2334.54715 399.854214,2333.17751 401.547154,2333.17751 L417.135214,2333.17758 C421.109109,2333.20486 422.405035,2332.1201 422.405035,2329.24203 C422.405035,2326.30754 421.026413,2325.09599 417.114131,2324.95761 L393.495817,2324.95761 C387.750939,2324.95761 385.655542,2327.09452 385.460096,2332.77266 C385.312878,2337.04969 387.389267,2339.17512 392.339475,2340.92066 C392.986745,2341.1489 393.663342,2341.36536 394.551121,2341.63322 C394.474691,2341.61016 396.286941,2342.15057 396.77366,2342.30201 C398.406454,2342.81003 399.495439,2343.23146 400.446355,2343.79361 C402.983201,2345.29329 406.740347,2348.39055 411.854422,2353.15739 L412.034399,2353.33981 L421.604007,2363.88754 C422.74029,2365.13996 422.644088,2367.07454 421.389134,2368.20853 C420.134181,2369.34252 418.195701,2369.24651 417.059418,2367.99409 L407.576252,2357.54163 C402.817851,2353.11117 399.355055,2350.25965 397.321846,2349.0577 C396.891597,2348.80335 396.155025,2348.5183 394.948961,2348.14305 C394.503147,2348.00434 392.732801,2347.47642 392.776922,2347.48974 C391.806777,2347.19702 391.048064,2346.95429 390.297062,2346.68947 C383.102056,2344.15238 379.075958,2340.03118 379.333031,2332.56261 C379.361419,2331.73787 379.427786,2330.94814 379.532112,2330.19402 L378.005851,2330.19396 C367.792696,2330.30862 361.580473,2326.43401 360.546538,2318.83929 Z M355.929276,2292.77574 C354.007365,2289.26597 359.078135,2286.22909 361.196896,2289.62097 C361.266158,2289.73185 361.333992,2289.84681 361.400276,2289.96553 C362.547348,2291.75041 365.497898,2292.39077 369.774465,2291.3205 C372.139946,2290.72851 373.577058,2288.94701 374.238286,2285.40099 C374.67531,2283.05733 377.457491,2282.07175 379.24486,2283.62743 C381.623746,2285.69795 383.885205,2286.667 386.090147,2286.667 C388.158218,2286.667 389.286335,2286.19735 389.823867,2285.40561 C390.781202,2283.99554 392.687468,2283.63738 394.081632,2284.60564 C395.475797,2285.5739 395.829917,2287.50191 394.872582,2288.91198 C393.05166,2291.59403 390.007726,2292.86127 386.090147,2292.86127 C383.623599,2292.86127 381.219629,2292.19854 378.895153,2290.90986 C377.331405,2294.24029 374.762496,2296.45326 371.245527,2297.33343 C368.179631,2298.10071 365.310214,2298.23766 362.838992,2297.71401 C362.337036,2301.52353 359.911764,2304.44125 355.670802,2305.49855 C354.028745,2305.90793 352.369471,2304.89346 351.964711,2303.23267 C351.559951,2301.57188 352.562978,2299.89368 354.205036,2299.4843 C355.972457,2299.04367 356.644699,2298.19719 356.787139,2296.7304 C356.906236,2295.50399 356.553858,2293.95126 356.129487,2293.12489 C356.060875,2293.01055 355.994128,2292.89417 355.929276,2292.77574 Z" id="Combined-Shape"></path>
        </g>
    </g>
</svg>