<?xml version="1.0" encoding="UTF-8"?>
<svg width="21px" height="20px" viewBox="0 0 21 20" version="1.1" xmlns="http://www.w3.org/2000/svg" xmlns:xlink="http://www.w3.org/1999/xlink">
    <!-- Generator: Sketch 55.2 (78181) - https://sketchapp.com -->
    <title>Group 6@3x</title>
    <desc>Created with Sketch.</desc>
    <g id="All-screens" stroke="none" stroke-width="1" fill="none" fill-rule="evenodd">
        <g id="Mob_320_menu" transform="translate(-268.000000, -41.000000)" fill="#FFFFFF">
            <g id="Group-6" transform="translate(267.000000, 40.000000)">
                <g id="Group-5" transform="translate(11.500000, 11.000000) rotate(-45.000000) translate(-11.500000, -11.000000) translate(-1.277778, 9.058824)">
                    <rect id="Rectangle" x="0" y="0" width="25.5555556" height="3.88235294" rx="1.94117647"></rect>
                </g>
                <path d="M0.557189542,9.00163399 L22.4183007,9.14052288 C23.4875563,9.14731611 24.3526839,10.0124437 24.3594771,11.0816993 C24.3661599,12.1335624 23.5188738,12.9916833 22.4670108,12.998366 C22.4589441,12.9984173 22.4508772,12.9984173 22.4428105,12.998366 L0.581699346,12.8594771 C-0.487556323,12.8526839 -1.35268389,11.9875563 -1.35947712,10.9183007 C-1.36615986,9.86643762 -0.518873826,9.00831673 0.532989206,9.00163399 C0.541055903,9.00158274 0.549122845,9.00158274 0.557189542,9.00163399 Z" id="Rectangle" transform="translate(11.500000, 11.000000) rotate(-315.000000) translate(-11.500000, -11.000000) "></path>
            </g>
        </g>
    </g>
</svg>