<?xml version="1.0" encoding="UTF-8"?>
<svg width="50px" height="50px" viewBox="0 0 50 50" version="1.1" xmlns="http://www.w3.org/2000/svg" xmlns:xlink="http://www.w3.org/1999/xlink">
    <!-- Generator: Sketch 52.6 (67491) - http://www.bohemiancoding.com/sketch -->
    <title>facebook</title>
    <desc>Created with Sketch.</desc>
    <g id="All-screens" stroke="none" stroke-width="1" fill="none" fill-rule="evenodd">
        <g id="facebook" fill="#9B9B9B">
            <path d="M49.9960417,24.998125 C49.9960417,11.192 38.8041667,0 24.998125,0 C11.192,0 0,11.192 0,24.998125 C0,37.4754167 9.1414375,47.8170833 21.0920833,49.6925 L21.0920833,32.2241667 L14.7449583,32.2241667 L14.7449583,24.998125 L21.0920833,24.998125 L21.0920833,19.4906875 C21.0920833,13.2255417 24.8241667,9.764875 30.5341667,9.764875 C33.2691667,9.764875 36.13,10.2531042 36.13,10.2531042 L36.13,16.4049792 L32.9779167,16.4049792 C29.8725,16.4049792 28.9039583,18.3319375 28.9039583,20.3088333 L28.9039583,24.998125 L35.8370833,24.998125 L34.72875,32.2241667 L28.9039583,32.2241667 L28.9039583,49.6925 C40.8547917,47.8170833 49.9960417,37.4754167 49.9960417,24.998125 Z" id="Path"></path>
        </g>
    </g>
</svg>