<svg width="152" height="45" viewBox="0 0 152 45" fill="none" xmlns="http://www.w3.org/2000/svg">
<path d="M146 0.5H6C2.96243 0.5 0.5 2.96243 0.5 6V39C0.5 42.0376 2.96243 44.5 6 44.5H146C149.038 44.5 151.5 42.0376 151.5 39V6C151.5 2.96243 149.038 0.5 146 0.5Z" fill="white" stroke="black"/>
<path fill-rule="evenodd" clip-rule="evenodd" d="M76.65 24.4747C73.9989 24.4747 71.8498 26.4863 71.8498 29.2609C71.8498 32.0103 74.0129 34.047 76.65 34.047C79.3012 34.047 81.4502 32.0215 81.4502 29.2609C81.4502 26.4863 79.3012 24.4747 76.65 24.4747ZM76.65 32.1505C75.1996 32.1505 73.9512 30.9498 73.9512 29.2497C73.9512 27.5243 75.2024 26.3488 76.65 26.3488C78.1005 26.3488 79.3489 27.5243 79.3489 29.2497C79.3517 30.961 78.1005 32.1505 76.65 32.1505ZM66.1771 24.4747C63.5259 24.4747 61.3769 26.4863 61.3769 29.2609C61.3769 32.0103 63.54 34.047 66.1771 34.047C68.8283 34.047 70.9773 32.0215 70.9773 29.2609C70.9773 26.4863 68.8255 24.4747 66.1771 24.4747ZM66.1771 32.1505C64.7267 32.1505 63.4783 30.9498 63.4783 29.2497C63.4783 27.5243 64.7295 26.3488 66.1771 26.3488C67.6276 26.3488 68.876 27.5243 68.876 29.2497C68.876 30.961 67.6276 32.1505 66.1771 32.1505ZM53.7151 25.9364V27.9619H58.5771C58.4284 29.0982 58.0524 29.937 57.4773 30.5121C56.7647 31.2247 55.665 31.999 53.7264 31.999C50.7385 31.999 48.4015 29.5863 48.4015 26.5985C48.4015 23.6106 50.7385 21.1979 53.7264 21.1979C55.3395 21.1979 56.515 21.8348 57.3875 22.6484L58.8239 21.2119C57.612 20.0505 55.9988 19.1611 53.7376 19.1611C49.6388 19.1611 46.1992 22.4997 46.1992 26.5873C46.1992 30.6861 49.636 34.0134 53.7376 34.0134C55.9511 34.0134 57.612 33.2896 58.9249 31.9261C60.2632 30.5879 60.6868 28.6998 60.6868 27.1764C60.6868 26.7023 60.6503 26.2758 60.5746 25.9139H53.7123C53.7151 25.9111 53.7151 25.9364 53.7151 25.9364ZM104.688 27.5131C104.287 26.4386 103.075 24.4635 100.589 24.4635C98.1261 24.4635 96.0781 26.4021 96.0781 29.2497C96.0781 31.9373 98.1036 34.0358 100.828 34.0358C103.016 34.0358 104.29 32.6976 104.814 31.9121L103.19 30.8235C102.651 31.6231 101.902 32.1477 100.839 32.1477C99.7645 32.1477 99.0126 31.6596 98.5133 30.6973L104.913 28.0461C104.913 28.0489 104.688 27.5131 104.688 27.5131ZM98.1626 29.1122C98.1121 27.2634 99.599 26.3235 100.662 26.3235C101.501 26.3235 102.2 26.7359 102.438 27.3363L98.1626 29.1122ZM92.964 33.7497H95.0653V19.6886H92.964V33.7497ZM89.5132 25.538H89.4375C88.9634 24.9741 88.0628 24.4635 86.9125 24.4635C84.5251 24.4635 82.3256 26.5648 82.3256 29.2637C82.3256 31.9513 84.5138 34.0274 86.9125 34.0274C88.0488 34.0274 88.9634 33.514 89.4375 32.9389H89.5132V33.6262C89.5132 35.4526 88.5369 36.4373 86.963 36.4373C85.6753 36.4373 84.8758 35.5115 84.5503 34.7372L82.7239 35.5003C83.2486 36.7628 84.6485 38.3254 86.9602 38.3254C89.4235 38.3254 91.5107 36.875 91.5107 33.3373V24.7497H89.5245V25.538C89.5273 25.538 89.5132 25.538 89.5132 25.538ZM87.1005 32.1505C85.6501 32.1505 84.4381 30.9386 84.4381 29.2637C84.4381 27.5748 85.6501 26.3516 87.1005 26.3516C88.5369 26.3516 89.6507 27.5888 89.6507 29.2637C89.6647 30.9386 88.5397 32.1505 87.1005 32.1505ZM114.527 19.6886H109.502V33.7497H111.604V28.4248H114.53C116.856 28.4248 119.142 26.7388 119.142 24.0623C119.142 21.3859 116.864 19.6886 114.527 19.6886ZM114.589 26.461H111.601V21.6356H114.589C116.163 21.6356 117.052 22.9345 117.052 24.0483C117.052 25.1508 116.151 26.461 114.589 26.461ZM127.564 24.4495C126.038 24.4495 124.464 25.1256 123.813 26.5985L125.676 27.3728C126.077 26.5985 126.812 26.3348 127.589 26.3348C128.678 26.3348 129.778 26.9856 129.803 28.1471V28.2958C129.427 28.0826 128.602 27.7571 127.615 27.7571C125.603 27.7571 123.563 28.8569 123.563 30.9189C123.563 32.807 125.213 34.019 127.051 34.019C128.462 34.019 129.239 33.3821 129.724 32.6443H129.8V33.7328H131.826V28.3463C131.826 25.8382 129.963 24.4495 127.564 24.4495ZM127.3 32.1505C126.613 32.1505 125.651 31.8139 125.651 30.9498C125.651 29.8613 126.852 29.4488 127.876 29.4488C128.801 29.4488 129.239 29.648 129.789 29.923C129.637 31.1854 128.571 32.1393 127.3 32.1505ZM139.215 24.7497L136.803 30.8488H136.727L134.227 24.7497H131.966L135.717 33.2755L133.579 38.014H135.767L141.538 24.7497H139.215ZM120.301 33.7497H122.402V19.6886H120.301V33.7497Z" fill="black"/>
<path fill-rule="evenodd" clip-rule="evenodd" d="M11.1638 8.47516C10.8384 8.82585 10.6504 9.3617 10.6504 10.0631V34.9393C10.6504 35.6407 10.8384 36.1765 11.175 36.5132L11.262 36.5889L25.1996 22.6513L25.3577 22.4956L25.1996 22.3399L11.2508 8.39941L11.1638 8.47516Z" fill="black"/>
<path fill-rule="evenodd" clip-rule="evenodd" d="M31.2696 27.3113L26.6209 22.6626L26.4492 22.5L26.6209 22.3372L31.2696 17.6885L31.3706 17.7502L36.8694 20.8755C38.4433 21.762 38.4433 23.2265 36.8694 24.1243L31.3706 27.2496L31.2696 27.3113Z" fill="black"/>
<path fill-rule="evenodd" clip-rule="evenodd" d="M30.6747 27.7497L25.925 23L11.9004 37.0246C12.4138 37.5745 13.2751 37.6362 14.2374 37.1004L30.6747 27.7497Z" fill="black"/>
<path fill-rule="evenodd" clip-rule="evenodd" d="M30.7105 17.3279L14.1019 7.99127C13.1296 7.4414 12.3362 7.42449 11.8203 7.97436L25.9114 22.0776L30.7105 17.3279Z" fill="black"/>
<path d="M52.1475 12.6855C52.0758 13.444 51.7959 14.0365 51.3076 14.4629C50.8193 14.8861 50.1699 15.0977 49.3594 15.0977C48.793 15.0977 48.2933 14.9642 47.8604 14.6973C47.4307 14.4271 47.0986 14.0446 46.8643 13.5498C46.6299 13.055 46.5078 12.4805 46.498 11.8262V11.1621C46.498 10.4915 46.6169 9.90072 46.8545 9.38965C47.0921 8.87858 47.4323 8.4847 47.875 8.20801C48.321 7.93132 48.8353 7.79297 49.418 7.79297C50.2025 7.79297 50.834 8.00618 51.3125 8.43262C51.791 8.85905 52.0693 9.46126 52.1475 10.2393H50.917C50.8584 9.72819 50.7087 9.36035 50.4678 9.13574C50.2301 8.90788 49.8802 8.79395 49.418 8.79395C48.8809 8.79395 48.4674 8.99089 48.1777 9.38477C47.8913 9.77539 47.7448 10.3499 47.7383 11.1084V11.7383C47.7383 12.5065 47.875 13.0924 48.1484 13.4961C48.4251 13.8997 48.8288 14.1016 49.3594 14.1016C49.8444 14.1016 50.209 13.9925 50.4531 13.7744C50.6973 13.5563 50.8519 13.1934 50.917 12.6855H52.1475ZM55.5604 11.9531H54.7205V15H53.49V7.89062H54.7205V10.8789H55.3992L57.4891 7.89062H59.0027L56.5613 11.2939L59.2176 15H57.7332L55.5604 11.9531ZM64.0807 13.3447H61.3268L60.7506 15H59.4664L62.152 7.89062H63.2604L65.9508 15H64.6617L64.0807 13.3447ZM61.6734 12.3486H63.734L62.7037 9.39941L61.6734 12.3486ZM72.1273 7.89062V15H70.8969V12.2021C70.3695 12.3356 69.8194 12.4023 69.2465 12.4023C68.3969 12.4023 67.754 12.2152 67.3178 11.8408C66.8816 11.4665 66.6618 10.9017 66.6586 10.1465V7.89062H67.8891V10.1562C67.8923 10.6087 67.9965 10.931 68.2016 11.123C68.4066 11.3151 68.7549 11.4111 69.2465 11.4111C69.8129 11.4111 70.363 11.3428 70.8969 11.2061V7.89062H72.1273ZM77.8791 13.3447H75.1252L74.549 15H73.2648L75.9504 7.89062H77.0588L79.7492 15H78.4602L77.8791 13.3447ZM75.4719 12.3486H77.5324L76.5021 9.39941L75.4719 12.3486ZM85.1152 7.89062H86.3506V15H85.1152V9.93652L81.9951 15H80.7598V7.89062H81.9951V12.959L85.1152 7.89062ZM85.1543 6.0791C85.1543 6.48926 85.0111 6.82129 84.7246 7.0752C84.4382 7.3291 84.0557 7.45605 83.5771 7.45605C83.0986 7.45605 82.7161 7.3291 82.4297 7.0752C82.1432 6.82129 82 6.48926 82 6.0791H82.8887C82.8887 6.29395 82.9489 6.46159 83.0693 6.58203C83.193 6.69922 83.3623 6.75781 83.5771 6.75781C83.792 6.75781 83.9596 6.69922 84.0801 6.58203C84.2005 6.46159 84.2607 6.29395 84.2607 6.0791H85.1543ZM93.1668 8.88672H90.95V15H89.7244V8.88672H87.5271V7.89062H93.1668V8.88672ZM98.4596 11.8262H95.5396V14.0137H98.9527V15H94.3043V7.89062H98.9186V8.88672H95.5396V10.8496H98.4596V11.8262ZM102.849 15V7.89062H105.285C106.089 7.89062 106.701 8.05176 107.121 8.37402C107.541 8.69629 107.751 9.17643 107.751 9.81445C107.751 10.14 107.663 10.4329 107.487 10.6934C107.312 10.9538 107.055 11.1556 106.716 11.2988C107.1 11.403 107.396 11.5999 107.605 11.8896C107.816 12.1761 107.922 12.5212 107.922 12.9248C107.922 13.5921 107.707 14.1048 107.278 14.4629C106.851 14.821 106.239 15 105.442 15H102.849ZM104.084 11.792V14.0137H105.456C105.844 14.0137 106.146 13.9176 106.364 13.7256C106.583 13.5335 106.692 13.2666 106.692 12.9248C106.692 12.1859 106.314 11.8083 105.559 11.792H104.084ZM104.084 10.8838H105.295C105.679 10.8838 105.979 10.7975 106.194 10.625C106.412 10.4492 106.521 10.2018 106.521 9.88281C106.521 9.53125 106.42 9.27734 106.218 9.12109C106.019 8.96484 105.709 8.88672 105.285 8.88672H104.084V10.8838Z" fill="black"/>
</svg>
