<svg width="152" height="45" viewBox="0 0 152 45" fill="none" xmlns="http://www.w3.org/2000/svg">
<path d="M146 0.5H6C2.96243 0.5 0.5 2.96243 0.5 6V39C0.5 42.0376 2.96243 44.5 6 44.5H146C149.038 44.5 151.5 42.0376 151.5 39V6C151.5 2.96243 149.038 0.5 146 0.5Z" fill="white" stroke="black"/>
<path fill-rule="evenodd" clip-rule="evenodd" d="M76.65 24.4747C73.9989 24.4747 71.8498 26.4863 71.8498 29.2609C71.8498 32.0103 74.0129 34.047 76.65 34.047C79.3012 34.047 81.4502 32.0215 81.4502 29.2609C81.4502 26.4863 79.3012 24.4747 76.65 24.4747ZM76.65 32.1505C75.1996 32.1505 73.9512 30.9498 73.9512 29.2497C73.9512 27.5243 75.2024 26.3488 76.65 26.3488C78.1005 26.3488 79.3489 27.5243 79.3489 29.2497C79.3517 30.961 78.1005 32.1505 76.65 32.1505ZM66.1771 24.4747C63.5259 24.4747 61.3769 26.4863 61.3769 29.2609C61.3769 32.0103 63.54 34.047 66.1771 34.047C68.8283 34.047 70.9773 32.0215 70.9773 29.2609C70.9773 26.4863 68.8255 24.4747 66.1771 24.4747ZM66.1771 32.1505C64.7267 32.1505 63.4783 30.9498 63.4783 29.2497C63.4783 27.5243 64.7295 26.3488 66.1771 26.3488C67.6276 26.3488 68.876 27.5243 68.876 29.2497C68.876 30.961 67.6276 32.1505 66.1771 32.1505ZM53.7151 25.9364V27.9619H58.5771C58.4284 29.0982 58.0524 29.937 57.4773 30.5121C56.7647 31.2247 55.665 31.999 53.7264 31.999C50.7385 31.999 48.4015 29.5863 48.4015 26.5985C48.4015 23.6106 50.7385 21.1979 53.7264 21.1979C55.3395 21.1979 56.515 21.8348 57.3875 22.6484L58.8239 21.2119C57.612 20.0505 55.9988 19.1611 53.7376 19.1611C49.6388 19.1611 46.1992 22.4997 46.1992 26.5873C46.1992 30.6861 49.636 34.0134 53.7376 34.0134C55.9511 34.0134 57.612 33.2896 58.9249 31.9261C60.2632 30.5879 60.6868 28.6998 60.6868 27.1764C60.6868 26.7023 60.6503 26.2758 60.5746 25.9139H53.7123C53.7151 25.9111 53.7151 25.9364 53.7151 25.9364ZM104.688 27.5131C104.287 26.4386 103.075 24.4635 100.589 24.4635C98.1261 24.4635 96.0781 26.4021 96.0781 29.2497C96.0781 31.9373 98.1036 34.0358 100.828 34.0358C103.016 34.0358 104.29 32.6976 104.814 31.9121L103.19 30.8235C102.651 31.6231 101.902 32.1477 100.839 32.1477C99.7645 32.1477 99.0126 31.6596 98.5133 30.6973L104.913 28.0461C104.913 28.0489 104.688 27.5131 104.688 27.5131ZM98.1626 29.1122C98.1121 27.2634 99.599 26.3235 100.662 26.3235C101.501 26.3235 102.2 26.7359 102.438 27.3363L98.1626 29.1122ZM92.964 33.7497H95.0653V19.6886H92.964V33.7497ZM89.5132 25.538H89.4375C88.9634 24.9741 88.0628 24.4635 86.9125 24.4635C84.5251 24.4635 82.3256 26.5648 82.3256 29.2637C82.3256 31.9513 84.5138 34.0274 86.9125 34.0274C88.0488 34.0274 88.9634 33.514 89.4375 32.9389H89.5132V33.6262C89.5132 35.4526 88.5369 36.4373 86.963 36.4373C85.6753 36.4373 84.8758 35.5115 84.5503 34.7372L82.7239 35.5003C83.2486 36.7628 84.6485 38.3254 86.9602 38.3254C89.4235 38.3254 91.5107 36.875 91.5107 33.3373V24.7497H89.5245V25.538C89.5273 25.538 89.5132 25.538 89.5132 25.538ZM87.1005 32.1505C85.6501 32.1505 84.4381 30.9386 84.4381 29.2637C84.4381 27.5748 85.6501 26.3516 87.1005 26.3516C88.5369 26.3516 89.6507 27.5888 89.6507 29.2637C89.6647 30.9386 88.5397 32.1505 87.1005 32.1505ZM114.527 19.6886H109.502V33.7497H111.604V28.4248H114.53C116.856 28.4248 119.142 26.7388 119.142 24.0623C119.142 21.3859 116.864 19.6886 114.527 19.6886ZM114.589 26.461H111.601V21.6356H114.589C116.163 21.6356 117.052 22.9345 117.052 24.0483C117.052 25.1508 116.151 26.461 114.589 26.461ZM127.564 24.4495C126.038 24.4495 124.464 25.1256 123.813 26.5985L125.676 27.3728C126.077 26.5985 126.812 26.3348 127.589 26.3348C128.678 26.3348 129.778 26.9856 129.803 28.1471V28.2958C129.427 28.0826 128.602 27.7571 127.615 27.7571C125.603 27.7571 123.563 28.8569 123.563 30.9189C123.563 32.807 125.213 34.019 127.051 34.019C128.462 34.019 129.239 33.3821 129.724 32.6443H129.8V33.7328H131.826V28.3463C131.826 25.8382 129.963 24.4495 127.564 24.4495ZM127.3 32.1505C126.613 32.1505 125.651 31.8139 125.651 30.9498C125.651 29.8613 126.852 29.4488 127.876 29.4488C128.801 29.4488 129.239 29.648 129.789 29.923C129.637 31.1854 128.571 32.1393 127.3 32.1505ZM139.215 24.7497L136.803 30.8488H136.727L134.227 24.7497H131.966L135.717 33.2755L133.579 38.014H135.767L141.538 24.7497H139.215ZM120.301 33.7497H122.402V19.6886H120.301V33.7497Z" fill="black"/>
<path fill-rule="evenodd" clip-rule="evenodd" d="M11.1638 8.47516C10.8384 8.82585 10.6504 9.3617 10.6504 10.0631V34.9393C10.6504 35.6407 10.8384 36.1765 11.175 36.5132L11.262 36.5889L25.1996 22.6513L25.3577 22.4956L25.1996 22.3399L11.2508 8.39941L11.1638 8.47516Z" fill="black"/>
<path fill-rule="evenodd" clip-rule="evenodd" d="M31.2696 27.3113L26.6209 22.6626L26.4492 22.5L26.6209 22.3372L31.2696 17.6885L31.3706 17.7502L36.8694 20.8755C38.4433 21.762 38.4433 23.2265 36.8694 24.1243L31.3706 27.2496L31.2696 27.3113Z" fill="black"/>
<path fill-rule="evenodd" clip-rule="evenodd" d="M30.6747 27.7497L25.925 23L11.9004 37.0246C12.4138 37.5745 13.2751 37.6362 14.2374 37.1004L30.6747 27.7497Z" fill="black"/>
<path fill-rule="evenodd" clip-rule="evenodd" d="M30.7105 17.3279L14.1019 7.99127C13.1296 7.4414 12.3362 7.42449 11.8203 7.97436L25.9114 22.0776L30.7105 17.3279Z" fill="black"/>
<path d="M49.4229 12.3486H47.5723V11.377H49.4229C49.7451 11.377 50.0055 11.3249 50.2041 11.2207C50.4027 11.1165 50.5475 10.9733 50.6387 10.791C50.7331 10.6055 50.7803 10.3939 50.7803 10.1562C50.7803 9.93164 50.7331 9.72168 50.6387 9.52637C50.5475 9.3278 50.4027 9.16829 50.2041 9.04785C50.0055 8.92741 49.7451 8.86719 49.4229 8.86719H47.9482V15H46.7227V7.89062H49.4229C49.973 7.89062 50.4401 7.98828 50.8242 8.18359C51.2116 8.37565 51.5062 8.64258 51.708 8.98438C51.9098 9.32292 52.0107 9.71029 52.0107 10.1465C52.0107 10.6055 51.9098 10.9993 51.708 11.3281C51.5062 11.6569 51.2116 11.9092 50.8242 12.085C50.4401 12.2607 49.973 12.3486 49.4229 12.3486ZM58.9783 11.25V11.6406C58.9783 12.1777 58.9083 12.6595 58.7684 13.0859C58.6284 13.5124 58.4282 13.8753 58.1678 14.1748C57.9106 14.4743 57.6014 14.7038 57.24 14.8633C56.8787 15.0195 56.4783 15.0977 56.0389 15.0977C55.6027 15.0977 55.2039 15.0195 54.8426 14.8633C54.4845 14.7038 54.1736 14.4743 53.91 14.1748C53.6463 13.8753 53.4412 13.5124 53.2947 13.0859C53.1515 12.6595 53.0799 12.1777 53.0799 11.6406V11.25C53.0799 10.7129 53.1515 10.2327 53.2947 9.80957C53.438 9.38314 53.6398 9.02018 53.9002 8.7207C54.1639 8.41797 54.4747 8.18848 54.8328 8.03223C55.1941 7.87272 55.5929 7.79297 56.0291 7.79297C56.4686 7.79297 56.8689 7.87272 57.2303 8.03223C57.5916 8.18848 57.9025 8.41797 58.1629 8.7207C58.4233 9.02018 58.6235 9.38314 58.7635 9.80957C58.9067 10.2327 58.9783 10.7129 58.9783 11.25ZM57.7527 11.6406V11.2402C57.7527 10.8431 57.7137 10.4932 57.6355 10.1904C57.5607 9.88444 57.4484 9.62891 57.2986 9.42383C57.1521 9.21549 56.9715 9.05924 56.7566 8.95508C56.5418 8.84766 56.2993 8.79395 56.0291 8.79395C55.7589 8.79395 55.518 8.84766 55.3064 8.95508C55.0949 9.05924 54.9142 9.21549 54.7645 9.42383C54.618 9.62891 54.5057 9.88444 54.4275 10.1904C54.3494 10.4932 54.3104 10.8431 54.3104 11.2402V11.6406C54.3104 12.0378 54.3494 12.3893 54.4275 12.6953C54.5057 13.0013 54.6196 13.2601 54.7693 13.4717C54.9223 13.68 55.1046 13.8379 55.3162 13.9453C55.5278 14.0495 55.7687 14.1016 56.0389 14.1016C56.3123 14.1016 56.5548 14.0495 56.7664 13.9453C56.978 13.8379 57.157 13.68 57.3035 13.4717C57.45 13.2601 57.5607 13.0013 57.6355 12.6953C57.7137 12.3893 57.7527 12.0378 57.7527 11.6406ZM63.0699 11.7871H61.2584L61.2486 10.8936H62.8307C63.0976 10.8936 63.3238 10.8545 63.5094 10.7764C63.6982 10.695 63.8414 10.5794 63.9391 10.4297C64.0367 10.2767 64.0855 10.0928 64.0855 9.87793C64.0855 9.6403 64.04 9.44661 63.9488 9.29688C63.8577 9.14714 63.7177 9.03809 63.5289 8.96973C63.3434 8.90137 63.1057 8.86719 62.816 8.86719H61.6295V15H60.4039V7.89062H62.816C63.2066 7.89062 63.5549 7.92806 63.8609 8.00293C64.1702 8.0778 64.4322 8.19499 64.6471 8.35449C64.8652 8.51074 65.0296 8.70931 65.1402 8.9502C65.2542 9.19108 65.3111 9.47754 65.3111 9.80957C65.3111 10.1025 65.2411 10.3711 65.1012 10.6152C64.9612 10.8561 64.7545 11.0531 64.4811 11.2061C64.2076 11.359 63.8674 11.4502 63.4605 11.4795L63.0699 11.7871ZM63.0162 15H60.8727L61.4244 14.0283H63.0162C63.2929 14.0283 63.524 13.9827 63.7096 13.8916C63.8951 13.7972 64.0335 13.6686 64.1246 13.5059C64.219 13.3398 64.2662 13.1462 64.2662 12.9248C64.2662 12.6937 64.2255 12.4935 64.1441 12.3242C64.0628 12.1517 63.9342 12.0199 63.7584 11.9287C63.5826 11.8343 63.3531 11.7871 63.0699 11.7871H61.693L61.7027 10.8936H63.4947L63.773 11.2305C64.1637 11.2435 64.4843 11.3298 64.735 11.4893C64.9889 11.6488 65.1777 11.8555 65.3014 12.1094C65.4251 12.3633 65.4869 12.6367 65.4869 12.9297C65.4869 13.3822 65.3876 13.7614 65.1891 14.0674C64.9937 14.3734 64.7122 14.6061 64.3443 14.7656C63.9765 14.9219 63.5338 15 63.0162 15ZM68.2309 7.89062V15H67.0053V7.89062H68.2309ZM74.6076 14.0283V15H70.8332V14.0283H74.6076ZM71.1799 7.89062V15H69.9543V7.89062H71.1799ZM74.1145 10.8594V11.8164H70.8332V10.8594H74.1145ZM74.5832 7.89062V8.86719H70.8332V7.89062H74.5832ZM75.8086 7.89062H78.3232C78.8636 7.89062 79.3242 7.97201 79.7051 8.13477C80.0859 8.29753 80.3773 8.53841 80.5791 8.85742C80.7842 9.17318 80.8867 9.5638 80.8867 10.0293C80.8867 10.3841 80.8216 10.6966 80.6914 10.9668C80.5612 11.237 80.3773 11.4648 80.1396 11.6504C79.902 11.8327 79.6188 11.9743 79.29 12.0752L78.9189 12.2559H76.6582L76.6484 11.2842H78.3428C78.6357 11.2842 78.8799 11.2321 79.0752 11.1279C79.2705 11.0238 79.417 10.8822 79.5146 10.7031C79.6156 10.5208 79.666 10.3158 79.666 10.0879C79.666 9.84049 79.6172 9.62565 79.5195 9.44336C79.4251 9.25781 79.2786 9.11621 79.0801 9.01855C78.8815 8.91764 78.6292 8.86719 78.3232 8.86719H77.0342V15H75.8086V7.89062ZM79.8662 15L78.1963 11.8066L79.4805 11.8018L81.1748 14.9365V15H79.8662ZM87.2781 14.0283V15H82.3416V14.0283H87.2781ZM87.1658 8.64746L82.7957 15H81.9754V14.2236L86.3602 7.89062H87.1658V8.64746ZM86.7117 7.89062V8.86719H82.0047V7.89062H86.7117ZM96.2035 14.0283V15H91.267V14.0283H96.2035ZM96.0912 8.64746L91.7211 15H90.9008V14.2236L95.2855 7.89062H96.0912V8.64746ZM95.6371 7.89062V8.86719H90.9301V7.89062H95.6371Z" fill="black"/>
</svg>
