<svg width="152" height="45" viewBox="0 0 152 45" fill="none" xmlns="http://www.w3.org/2000/svg">
<path d="M146 0.5H6C2.96243 0.5 0.5 2.96243 0.5 6V39C0.5 42.0376 2.96243 44.5 6 44.5H146C149.038 44.5 151.5 42.0376 151.5 39V6C151.5 2.96243 149.038 0.5 146 0.5Z" fill="white" stroke="black"/>
<path fill-rule="evenodd" clip-rule="evenodd" d="M76.65 24.4747C73.9989 24.4747 71.8498 26.4863 71.8498 29.2609C71.8498 32.0103 74.0129 34.047 76.65 34.047C79.3012 34.047 81.4502 32.0215 81.4502 29.2609C81.4502 26.4863 79.3012 24.4747 76.65 24.4747ZM76.65 32.1505C75.1996 32.1505 73.9512 30.9498 73.9512 29.2497C73.9512 27.5243 75.2024 26.3488 76.65 26.3488C78.1005 26.3488 79.3489 27.5243 79.3489 29.2497C79.3517 30.961 78.1005 32.1505 76.65 32.1505ZM66.1771 24.4747C63.5259 24.4747 61.3769 26.4863 61.3769 29.2609C61.3769 32.0103 63.54 34.047 66.1771 34.047C68.8283 34.047 70.9773 32.0215 70.9773 29.2609C70.9773 26.4863 68.8255 24.4747 66.1771 24.4747ZM66.1771 32.1505C64.7267 32.1505 63.4783 30.9498 63.4783 29.2497C63.4783 27.5243 64.7295 26.3488 66.1771 26.3488C67.6276 26.3488 68.876 27.5243 68.876 29.2497C68.876 30.961 67.6276 32.1505 66.1771 32.1505ZM53.7151 25.9364V27.9619H58.5771C58.4284 29.0982 58.0524 29.937 57.4773 30.5121C56.7647 31.2247 55.665 31.999 53.7264 31.999C50.7385 31.999 48.4015 29.5863 48.4015 26.5985C48.4015 23.6106 50.7385 21.1979 53.7264 21.1979C55.3395 21.1979 56.515 21.8348 57.3875 22.6484L58.8239 21.2119C57.612 20.0505 55.9988 19.1611 53.7376 19.1611C49.6388 19.1611 46.1992 22.4997 46.1992 26.5873C46.1992 30.6861 49.636 34.0134 53.7376 34.0134C55.9511 34.0134 57.612 33.2896 58.9249 31.9261C60.2632 30.5879 60.6868 28.6998 60.6868 27.1764C60.6868 26.7023 60.6503 26.2758 60.5746 25.9139H53.7123C53.7151 25.9111 53.7151 25.9364 53.7151 25.9364ZM104.688 27.5131C104.287 26.4386 103.075 24.4635 100.589 24.4635C98.1261 24.4635 96.0781 26.4021 96.0781 29.2497C96.0781 31.9373 98.1036 34.0358 100.828 34.0358C103.016 34.0358 104.29 32.6976 104.814 31.9121L103.19 30.8235C102.651 31.6231 101.902 32.1477 100.839 32.1477C99.7645 32.1477 99.0126 31.6596 98.5133 30.6973L104.913 28.0461C104.913 28.0489 104.688 27.5131 104.688 27.5131ZM98.1626 29.1122C98.1121 27.2634 99.599 26.3235 100.662 26.3235C101.501 26.3235 102.2 26.7359 102.438 27.3363L98.1626 29.1122ZM92.964 33.7497H95.0653V19.6886H92.964V33.7497ZM89.5132 25.538H89.4375C88.9634 24.9741 88.0628 24.4635 86.9125 24.4635C84.5251 24.4635 82.3256 26.5648 82.3256 29.2637C82.3256 31.9513 84.5138 34.0274 86.9125 34.0274C88.0488 34.0274 88.9634 33.514 89.4375 32.9389H89.5132V33.6262C89.5132 35.4526 88.5369 36.4373 86.963 36.4373C85.6753 36.4373 84.8758 35.5115 84.5503 34.7372L82.7239 35.5003C83.2486 36.7628 84.6485 38.3254 86.9602 38.3254C89.4235 38.3254 91.5107 36.875 91.5107 33.3373V24.7497H89.5245V25.538C89.5273 25.538 89.5132 25.538 89.5132 25.538ZM87.1005 32.1505C85.6501 32.1505 84.4381 30.9386 84.4381 29.2637C84.4381 27.5748 85.6501 26.3516 87.1005 26.3516C88.5369 26.3516 89.6507 27.5888 89.6507 29.2637C89.6647 30.9386 88.5397 32.1505 87.1005 32.1505ZM114.527 19.6886H109.502V33.7497H111.604V28.4248H114.53C116.856 28.4248 119.142 26.7388 119.142 24.0623C119.142 21.3859 116.864 19.6886 114.527 19.6886ZM114.589 26.461H111.601V21.6356H114.589C116.163 21.6356 117.052 22.9345 117.052 24.0483C117.052 25.1508 116.151 26.461 114.589 26.461ZM127.564 24.4495C126.038 24.4495 124.464 25.1256 123.813 26.5985L125.676 27.3728C126.077 26.5985 126.812 26.3348 127.589 26.3348C128.678 26.3348 129.778 26.9856 129.803 28.1471V28.2958C129.427 28.0826 128.602 27.7571 127.615 27.7571C125.603 27.7571 123.563 28.8569 123.563 30.9189C123.563 32.807 125.213 34.019 127.051 34.019C128.462 34.019 129.239 33.3821 129.724 32.6443H129.8V33.7328H131.826V28.3463C131.826 25.8382 129.963 24.4495 127.564 24.4495ZM127.3 32.1505C126.613 32.1505 125.651 31.8139 125.651 30.9498C125.651 29.8613 126.852 29.4488 127.876 29.4488C128.801 29.4488 129.239 29.648 129.789 29.923C129.637 31.1854 128.571 32.1393 127.3 32.1505ZM139.215 24.7497L136.803 30.8488H136.727L134.227 24.7497H131.966L135.717 33.2755L133.579 38.014H135.767L141.538 24.7497H139.215ZM120.301 33.7497H122.402V19.6886H120.301V33.7497Z" fill="black"/>
<path fill-rule="evenodd" clip-rule="evenodd" d="M11.1638 8.47516C10.8384 8.82585 10.6504 9.3617 10.6504 10.0631V34.9393C10.6504 35.6407 10.8384 36.1765 11.175 36.5132L11.262 36.5889L25.1996 22.6513L25.3577 22.4956L25.1996 22.3399L11.2508 8.39941L11.1638 8.47516Z" fill="black"/>
<path fill-rule="evenodd" clip-rule="evenodd" d="M31.2696 27.3113L26.6209 22.6626L26.4492 22.5L26.6209 22.3372L31.2696 17.6885L31.3706 17.7502L36.8694 20.8755C38.4433 21.762 38.4433 23.2265 36.8694 24.1243L31.3706 27.2496L31.2696 27.3113Z" fill="black"/>
<path fill-rule="evenodd" clip-rule="evenodd" d="M30.6747 27.7497L25.925 23L11.9004 37.0246C12.4138 37.5745 13.2751 37.6362 14.2374 37.1004L30.6747 27.7497Z" fill="black"/>
<path fill-rule="evenodd" clip-rule="evenodd" d="M30.7105 17.3279L14.1019 7.99127C13.1296 7.4414 12.3362 7.42449 11.8203 7.97436L25.9114 22.0776L30.7105 17.3279Z" fill="black"/>
<path d="M52.1816 11.3672V14.082C52.0807 14.2155 51.9229 14.362 51.708 14.5215C51.4964 14.6777 51.2148 14.8128 50.8633 14.9268C50.5117 15.0407 50.0739 15.0977 49.5498 15.0977C49.1038 15.0977 48.6953 15.0228 48.3242 14.873C47.9531 14.7201 47.6325 14.4971 47.3623 14.2041C47.0954 13.9111 46.8887 13.5547 46.7422 13.1348C46.5957 12.7116 46.5225 12.2298 46.5225 11.6895V11.1963C46.5225 10.6592 46.5892 10.1807 46.7227 9.76074C46.8594 9.33757 47.0547 8.97949 47.3086 8.68652C47.5625 8.39355 47.8685 8.1722 48.2266 8.02246C48.5879 7.86947 48.9964 7.79297 49.4521 7.79297C50.0348 7.79297 50.5166 7.89062 50.8975 8.08594C51.2816 8.27799 51.5778 8.54492 51.7861 8.88672C51.9945 9.22852 52.1263 9.61914 52.1816 10.0586H50.9805C50.9414 9.8112 50.8649 9.58984 50.751 9.39453C50.6403 9.19922 50.4808 9.04622 50.2725 8.93555C50.0674 8.82161 49.8005 8.76465 49.4717 8.76465C49.1885 8.76465 48.9395 8.81836 48.7246 8.92578C48.5098 9.0332 48.3307 9.19108 48.1875 9.39941C48.0475 9.60775 47.9417 9.86165 47.8701 10.1611C47.7985 10.4606 47.7627 10.8024 47.7627 11.1865V11.6895C47.7627 12.0801 47.8034 12.4268 47.8848 12.7295C47.9694 13.0322 48.0898 13.2878 48.2461 13.4961C48.4056 13.7044 48.5993 13.8623 48.8271 13.9697C49.055 14.0739 49.3122 14.126 49.5986 14.126C49.8786 14.126 50.1081 14.1032 50.2871 14.0576C50.4661 14.0088 50.6077 13.9518 50.7119 13.8867C50.8193 13.8184 50.9023 13.7533 50.9609 13.6914V12.2803H49.4814V11.3672H52.1816ZM58.3924 14.0283V15H54.618V14.0283H58.3924ZM54.9646 7.89062V15H53.7391V7.89062H54.9646ZM57.8992 10.8594V11.8164H54.618V10.8594H57.8992ZM58.368 7.89062V8.86719H54.618V7.89062H58.368ZM62.6158 7.89062V15H61.4V7.89062H62.6158ZM64.8473 7.89062V8.86719H59.1881V7.89062H64.8473ZM69.7492 7.89062V15H68.5236V7.89062H69.7492ZM74.251 7.89062V15H73.0352V7.89062H74.251ZM76.4824 7.89062V8.86719H70.8232V7.89062H76.4824ZM85.7447 11.25V11.6406C85.7447 12.1777 85.6747 12.6595 85.5348 13.0859C85.3948 13.5124 85.1946 13.8753 84.9342 14.1748C84.677 14.4743 84.3678 14.7038 84.0064 14.8633C83.6451 15.0195 83.2447 15.0977 82.8053 15.0977C82.3691 15.0977 81.9703 15.0195 81.609 14.8633C81.2509 14.7038 80.94 14.4743 80.6764 14.1748C80.4127 13.8753 80.2076 13.5124 80.0611 13.0859C79.9179 12.6595 79.8463 12.1777 79.8463 11.6406V11.25C79.8463 10.7129 79.9179 10.2327 80.0611 9.80957C80.2044 9.38314 80.4062 9.02018 80.6666 8.7207C80.9303 8.41797 81.2411 8.18848 81.5992 8.03223C81.9605 7.87272 82.3593 7.79297 82.7955 7.79297C83.235 7.79297 83.6354 7.87272 83.9967 8.03223C84.358 8.18848 84.6689 8.41797 84.9293 8.7207C85.1897 9.02018 85.3899 9.38314 85.5299 9.80957C85.6731 10.2327 85.7447 10.7129 85.7447 11.25ZM84.5191 11.6406V11.2402C84.5191 10.8431 84.4801 10.4932 84.402 10.1904C84.3271 9.88444 84.2148 9.62891 84.065 9.42383C83.9186 9.21549 83.7379 9.05924 83.523 8.95508C83.3082 8.84766 83.0657 8.79395 82.7955 8.79395C82.5253 8.79395 82.2844 8.84766 82.0729 8.95508C81.8613 9.05924 81.6806 9.21549 81.5309 9.42383C81.3844 9.62891 81.2721 9.88444 81.1939 10.1904C81.1158 10.4932 81.0768 10.8431 81.0768 11.2402V11.6406C81.0768 12.0378 81.1158 12.3893 81.1939 12.6953C81.2721 13.0013 81.386 13.2601 81.5357 13.4717C81.6887 13.68 81.871 13.8379 82.0826 13.9453C82.2942 14.0495 82.5351 14.1016 82.8053 14.1016C83.0787 14.1016 83.3212 14.0495 83.5328 13.9453C83.7444 13.8379 83.9234 13.68 84.0699 13.4717C84.2164 13.2601 84.3271 13.0013 84.402 12.6953C84.4801 12.3893 84.5191 12.0378 84.5191 11.6406ZM92.81 7.89062V15H91.5844L88.3959 9.90723V15H87.1703V7.89062H88.3959L91.5941 12.9932V7.89062H92.81Z" fill="black"/>
</svg>
