<?xml version="1.0" encoding="UTF-8"?>
<svg width="50px" height="50px" viewBox="0 0 50 50" version="1.1" xmlns="http://www.w3.org/2000/svg" xmlns:xlink="http://www.w3.org/1999/xlink">
    <!-- Generator: Sketch 52.6 (67491) - http://www.bohemiancoding.com/sketch -->
    <title>CIS-A2K_Instagram_Icon_(Black)@3x</title>
    <desc>Created with Sketch.</desc>
    <g id="All-screens" stroke="none" stroke-width="1" fill="none" fill-rule="evenodd">
        <g id="CIS-A2K_Instagram_Icon_(Black)" fill-rule="nonzero">
            <circle id="Oval" fill="#9B9B9B" cx="25" cy="25" r="25"></circle>
            <path d="M25.0710227,10.2272727 C21.0448867,10.2272727 20.5321637,10.2440833 18.9519684,10.319731 C17.371773,10.3953786 16.2958953,10.6391322 15.3545023,11.0089651 C14.3794882,11.3872034 13.547364,11.891521 12.7236452,12.7236452 C11.8999263,13.547364 11.3956087,14.3794882 11.0089651,15.3545023 C10.6391322,16.2958953 10.3869733,17.3801783 10.319731,18.9519684 C10.2524886,20.5321637 10.2272727,21.0364814 10.2272727,25.0710227 C10.2272727,29.0971588 10.2440833,29.6014764 10.319731,31.1900771 C10.3953786,32.7702724 10.6391322,33.8461501 11.0089651,34.7875431 C11.3872034,35.7625573 11.891521,36.5946814 12.7236452,37.4184003 C13.547364,38.2421191 14.3794882,38.7548421 15.3545023,39.1330803 C16.2958953,39.5029133 17.3801783,39.7466668 18.9519684,39.8223145 C20.5321637,39.8979621 21.0364814,39.9147727 25.0710227,39.9147727 C29.0971588,39.9147727 29.6014764,39.8979621 31.1900771,39.8223145 C32.7702724,39.7466668 33.8461501,39.5029133 34.7959484,39.1330803 C35.7709626,38.7548421 36.5946814,38.2421191 37.4184003,37.4184003 C38.2421191,36.5946814 38.7464368,35.7625573 39.1330803,34.7875431 C39.494508,33.8461501 39.7466668,32.7702724 39.8223145,31.1900771 C39.8895568,29.6098817 39.9147727,29.1055641 39.9147727,25.0710227 C39.9147727,21.0448867 39.8979621,20.540569 39.8223145,18.9519684 C39.7466668,17.371773 39.494508,16.2958953 39.1330803,15.3545023 C38.7548421,14.3794882 38.2421191,13.547364 37.4184003,12.7236452 C36.5946814,11.8999263 35.7709626,11.3956087 34.7875431,11.0089651 C33.8377448,10.6391322 32.7618671,10.3953786 31.1816718,10.319731 C29.6014764,10.2440833 29.0971588,10.2272727 25.0710227,10.2272727 Z M23.7429862,12.9001564 C24.138035,12.9001564 24.5751104,12.9001564 25.0710227,12.9001564 C29.0299164,12.9001564 29.5006129,12.916967 31.0639977,12.9842093 C32.5097083,13.0514517 33.2914007,13.2952052 33.8209343,13.4969323 C34.5101684,13.7659017 35.0060808,14.0853029 35.527209,14.6064311 C36.0483373,15.1275594 36.3677385,15.6234718 36.6367079,16.3127059 C36.838435,16.8338342 37.0821885,17.6239318 37.1494309,19.0696425 C37.2166732,20.6330273 37.2334838,21.1037237 37.2334838,25.0626174 C37.2334838,29.0215111 37.2166732,29.4922076 37.1494309,31.0555924 C37.0821885,32.501303 36.838435,33.2829954 36.6367079,33.812529 C36.3677385,34.5017631 36.0483373,34.9976755 35.527209,35.5188037 C35.0060808,36.039932 34.5185737,36.3593332 33.8209343,36.6283026 C33.299806,36.8300297 32.5097083,37.0737832 31.0639977,37.1410256 C29.5006129,37.2082679 29.0299164,37.2250785 25.0710227,37.2250785 C21.112129,37.2250785 20.6414326,37.2082679 19.0780478,37.1410256 C17.6323371,37.0737832 16.8506448,36.8300297 16.3211112,36.6283026 C15.6318771,36.3593332 15.1359647,36.039932 14.6148364,35.5188037 C14.0937082,34.9976755 13.774307,34.5017631 13.5053376,33.812529 C13.3036105,33.2914007 13.059857,32.501303 12.9926146,31.0555924 C12.9253722,29.4922076 12.9085617,29.0215111 12.9085617,25.0626174 C12.9085617,21.1037237 12.9253722,20.6330273 12.9926146,19.0696425 C13.059857,17.6239318 13.3036105,16.8422395 13.5053376,16.3127059 C13.774307,15.6234718 14.0937082,15.1275594 14.6148364,14.6064311 C15.1359647,14.0853029 15.6318771,13.7659017 16.3211112,13.4969323 C16.8422395,13.2952052 17.6323371,13.0514517 19.0780478,12.9842093 C20.4481108,12.916967 20.9776443,12.9001564 23.7429862,12.9001564 Z M32.9888101,15.3629076 C32.0053906,15.3629076 31.2068877,16.1614106 31.2068877,17.1448301 C31.2068877,18.1282495 32.0053906,18.9267525 32.9888101,18.9267525 C33.9722296,18.9267525 34.7707325,18.1282495 34.7707325,17.1448301 C34.7707325,16.1614106 33.9722296,15.3629076 32.9888101,15.3629076 Z M25.0710227,17.4474207 C20.8599702,17.4474207 17.455826,20.8599702 17.455826,25.0626174 C17.455826,29.27367 20.8683755,32.6778142 25.0710227,32.6778142 C29.2820752,32.6778142 32.6862195,29.2652647 32.6862195,25.0626174 C32.6862195,20.8515649 29.2820752,17.4474207 25.0710227,17.4474207 Z M25.0710227,20.1203043 C27.8027434,20.1203043 30.0133359,22.3308967 30.0133359,25.0626174 C30.0133359,27.7943381 27.8027434,30.0049306 25.0710227,30.0049306 C22.339302,30.0049306 20.1287096,27.7943381 20.1287096,25.0626174 C20.1287096,22.3308967 22.339302,20.1203043 25.0710227,20.1203043 Z" id="Shape" fill="#FFFFFF"></path>
        </g>
    </g>
</svg>