<svg width="716" height="174" viewBox="0 0 716 174" fill="none" xmlns="http://www.w3.org/2000/svg">
<rect width="173.171" height="173.171" rx="48.507" fill="url(#paint0_linear_11222_47177)"/>
<path opacity="0.3" d="M109 115.171C93.6577 112.606 75.591 77.6455 60.0001 68.1709C53.196 64.7546 51.1497 49.8588 67.0004 55.6709C82 61.1709 87 76.1709 94.5 84.6709L101.131 96.5032L109 115.171Z" fill="white"/>
<path fill-rule="evenodd" clip-rule="evenodd" d="M72.6068 68.0099C70.1073 71.1785 65.5215 71.3557 62.0374 69.3188C61.6447 69.0892 61.2626 68.8767 60.8769 68.662L60.6505 68.536C58.6766 67.4355 56.6598 66.8852 54.6 66.8852C51.7678 66.8852 49.236 67.3931 47.0046 68.409C44.7732 69.4249 42.8421 70.7794 41.2115 72.4725C39.6667 74.1656 38.4652 76.1127 37.6069 78.3138C36.8345 80.5148 36.4483 82.8005 36.4483 85.1709C36.4483 87.5413 36.8345 89.827 37.6069 92.0281C38.4652 94.2291 39.6667 96.1762 41.2115 97.8693C42.8421 99.5624 44.7732 100.917 47.0046 101.933C49.236 102.949 51.7678 103.457 54.6 103.457C56.6433 103.457 58.5625 103.12 60.3576 102.447C70.136 98.2199 75.4779 89.605 80.9628 80.7596C86.7084 71.4937 92.6109 61.9749 103.934 56.9821C108.68 54.4005 113.597 53.2161 118.992 53.2161C137.096 53.2161 150.617 66.7414 150.617 85.0586C150.617 103.53 136.945 117.21 118.842 117.21C107.238 117.21 98.2514 111.673 86.8744 97.433C83.9551 101.819 80.1926 106.29 75.653 109.776C74.4008 110.835 73.0045 111.777 71.4644 112.599C69.4904 113.7 67.4736 114.589 65.4138 115.266C63.354 115.943 61.3801 116.409 59.492 116.663C57.6039 117.002 55.9732 117.171 54.6 117.171C49.9655 117.171 45.5885 116.409 41.469 114.885C37.3494 113.361 33.7878 111.203 30.7839 108.409C27.7801 105.615 25.377 102.271 23.5747 98.3773C21.8582 94.3984 21 89.9963 21 85.1709C21 80.3455 21.8582 75.9857 23.5747 72.0915C25.377 68.1127 27.7801 64.7265 30.7839 61.9328C33.7878 59.1392 37.3494 56.9804 41.469 55.4566C45.5885 53.9328 49.9655 53.1709 54.6 53.1709C58.5479 53.1709 62.4958 53.9328 66.4437 55.4566C68.2508 56.1014 69.9545 56.9245 71.5549 57.926C75.0135 60.0904 75.1337 64.8066 72.6068 68.0099ZM135.518 84.9813C135.518 94.7196 128.157 101.907 118.316 101.907C110.729 101.907 105.02 97.8111 94.8791 85.1359C103.743 73.0017 110.353 68.2099 118.391 68.2099C128.307 68.2099 135.518 75.3977 135.518 84.9813Z" fill="url(#paint1_linear_11222_47177)"/>
<mask id="mask0_11222_47177" style="mask-type:alpha" maskUnits="userSpaceOnUse" x="54" y="53" width="97" height="65">
<path fill-rule="evenodd" clip-rule="evenodd" d="M103.35 57.3058C92.9184 62.3031 87.3603 71.4402 81.9466 80.3401C76.61 89.113 71.4136 97.6554 61.8273 101.775C55.5799 107.416 47.0372 116.765 63.7016 114.938C72.2876 113.996 80.8699 105.556 86.7624 97.295C98.1916 111.637 107.198 117.21 118.84 117.21C136.943 117.21 150.615 103.53 150.615 85.0584C150.615 66.7412 137.094 53.2158 118.99 53.2158C113.374 53.2158 108.276 54.4992 103.35 57.3058ZM135.516 84.9811C135.516 94.7194 128.154 101.907 118.314 101.907C110.727 101.907 105.018 97.8109 94.877 85.1357C103.741 73.0015 110.351 68.2097 118.389 68.2097C128.305 68.2097 135.516 75.3974 135.516 84.9811Z" fill="white"/>
</mask>
<g mask="url(#mask0_11222_47177)">
<path d="M113.743 101.517C120.263 104.678 103.767 114.483 103.767 114.483C100.116 112.155 97.8339 110.355 94.1174 106.613C90.4009 102.872 88.5748 103.346 85.5 99.6709C86 98.6709 94.9047 85.0886 94.9047 85.0886C102.077 93.8615 107.223 98.3563 113.743 101.517Z" fill="url(#paint2_linear_11222_47177)" fill-opacity="0.19"/>
</g>
<path fill-rule="evenodd" clip-rule="evenodd" d="M560.608 67.5028H544.204V133.12H560.608V67.5028ZM544.751 38.3854C542.837 40.2992 541.88 42.5775 541.88 45.2204C541.88 47.8633 542.837 50.1873 544.751 52.1922C546.756 54.1061 549.262 55.063 552.27 55.063C555.277 55.063 557.783 54.1516 559.788 52.3289C561.884 50.4151 562.932 48.0456 562.932 45.2204C562.932 42.3953 561.884 40.0714 559.788 38.2487C557.783 36.3348 555.277 35.3779 552.27 35.3779C549.262 35.3779 546.756 36.3804 544.751 38.3854ZM228.06 36.3348C225.851 36.3348 224.06 38.1257 224.06 40.3348V133.12H241.284V93.066H253.588C258.691 93.066 263.567 92.7015 268.215 91.9724C272.954 91.2433 277.1 89.8763 280.655 87.8714C284.209 85.7753 287.034 82.859 289.13 79.1225C291.226 75.3859 292.013 70.4647 292.013 64.3587C292.013 58.9817 291.272 54.5162 289.267 50.9619C287.353 47.3165 284.756 44.4458 281.475 42.3497C278.194 40.1625 274.366 38.6132 269.992 37.7019C265.708 36.7905 261.243 36.3348 256.595 36.3348H228.06ZM259.329 78.0288C256.686 78.2111 254.134 78.3022 251.674 78.3022H241.284V51.0986H253.588C255.866 51.0986 258.235 51.2353 260.696 51.5087C263.157 51.7821 265.39 52.4201 267.394 53.4226C269.399 54.3339 271.04 55.7009 272.316 57.5236C273.592 59.2551 274.23 61.6246 274.23 64.6321C274.23 67.9129 273.5 70.4647 272.042 72.2874C270.675 74.1101 268.853 75.4771 266.574 76.3884C264.387 77.2998 261.972 77.8466 259.329 78.0288ZM320.963 67.5028H304.559V133.12H320.963V97.9873C320.963 97.0759 321.146 95.7089 321.51 93.8862C321.966 92.0635 322.786 90.2409 323.971 88.4182C325.247 86.5955 327.024 85.0006 329.302 83.6336C331.672 82.1755 334.77 81.4464 338.598 81.4464C339.874 81.4464 341.15 81.5831 342.426 81.8565C344.52 82.1357 346.527 80.6041 346.527 78.4916V69.9044C346.527 68.0829 345.311 66.4616 343.519 66.1358C342.608 65.9535 341.651 65.8624 340.648 65.8624C336.274 65.8624 332.401 66.9104 329.029 69.0065C325.657 71.1026 323.059 74.0645 321.237 77.8921H320.963V67.5028ZM398.049 124.097H397.639C395.269 127.834 392.262 130.568 388.617 132.299C384.971 133.94 380.961 134.76 376.587 134.76C373.579 134.76 370.617 134.35 367.701 133.53C364.876 132.709 362.324 131.479 360.046 129.839C357.859 128.198 356.082 126.148 354.714 123.687C353.347 121.227 352.664 118.356 352.664 115.075C352.664 111.521 353.302 108.513 354.578 106.053C355.854 103.501 357.54 101.405 359.636 99.7644C361.823 98.0329 364.329 96.6658 367.154 95.6634C369.98 94.6609 372.896 93.9318 375.903 93.4761C379.002 92.9293 382.1 92.6104 385.199 92.5192C388.298 92.337 391.214 92.2458 393.948 92.2458H398.049V90.4687C398.049 86.3676 396.636 83.3146 393.811 81.3097C390.986 79.2136 387.386 78.1655 383.012 78.1655C379.549 78.1655 376.313 78.8035 373.306 80.0794C372.289 80.4799 371.32 80.9324 370.397 81.437C367.441 83.0533 363.609 83.0959 361.227 80.7138C358.83 78.3164 358.773 74.3715 361.545 72.4189C364.021 70.6747 366.711 69.3094 369.615 68.323C374.536 66.6826 379.594 65.8624 384.789 65.8624C389.437 65.8624 393.356 66.4092 396.545 67.5028C399.735 68.5053 402.378 69.8267 404.474 71.4672C406.57 73.1076 408.165 75.0214 409.258 77.2086C410.443 79.3047 411.263 81.4464 411.719 83.6336C412.266 85.8208 412.585 87.9625 412.676 90.0586C412.767 92.0635 412.813 93.8407 412.813 95.39V133.12H398.049V124.097ZM397.092 103.729H393.674C391.396 103.729 388.844 103.82 386.019 104.002C383.194 104.184 380.506 104.64 377.954 105.369C375.493 106.007 373.397 107.01 371.665 108.377C369.934 109.652 369.068 111.475 369.068 113.845C369.068 115.394 369.387 116.715 370.025 117.809C370.754 118.812 371.666 119.677 372.759 120.406C373.853 121.135 375.083 121.682 376.45 122.047C377.817 122.32 379.184 122.457 380.551 122.457C386.201 122.457 390.348 121.135 392.991 118.493C395.725 115.758 397.092 112.068 397.092 107.42V103.729ZM466.935 82.4033C470.618 84.4851 475.413 84.7252 478.404 81.7336L478.806 81.3323C481.874 78.2641 482.033 73.1793 478.354 70.8801C476.701 69.8476 474.945 68.9952 473.087 68.323C468.895 66.6826 464.703 65.8624 460.51 65.8624C455.589 65.8624 450.941 66.6826 446.567 68.323C442.192 69.9634 438.41 72.2874 435.221 75.2948C432.031 78.3023 429.479 81.9476 427.565 86.2309C425.743 90.4231 424.831 95.1166 424.831 100.311C424.831 105.506 425.743 110.245 427.565 114.528C429.479 118.72 432.031 122.32 435.221 125.328C438.41 128.335 442.192 130.659 446.567 132.299C450.941 133.94 455.589 134.76 460.51 134.76C461.968 134.76 463.7 134.578 465.705 134.213C467.71 133.94 469.806 133.439 471.993 132.71C474.18 131.98 476.322 131.024 478.418 129.839C481.932 127.935 482.004 123.284 479.282 120.358L478.226 119.222C475.606 116.406 471.059 116.772 467.619 118.493C465.432 119.495 463.062 119.996 460.51 119.996C457.503 119.996 454.814 119.449 452.445 118.356C450.075 117.262 448.025 115.804 446.293 113.981C444.653 112.159 443.377 110.063 442.466 107.693C441.646 105.324 441.235 102.863 441.235 100.311C441.235 97.7595 441.646 95.2988 442.466 92.9293C443.377 90.5598 444.653 88.4637 446.293 86.6411C448.025 84.8184 450.075 83.3602 452.445 82.2666C454.814 81.173 457.503 80.6262 460.51 80.6262C462.698 80.6262 464.839 81.2186 466.935 82.4033ZM496.021 81.4464V67.5028V52.5013C496.021 50.2922 497.812 48.5013 500.021 48.5013H512.425V67.5028L530.47 67.5028V81.4464L512.425 81.4464V110.154C512.425 113.435 513.018 116.032 514.203 117.946C515.478 119.86 517.939 120.816 521.584 120.816C523.043 120.816 524.637 120.68 526.369 120.406C528.101 120.042 529.468 119.495 530.47 118.766V132.573C528.738 133.393 526.597 133.94 524.045 134.213C521.584 134.578 519.397 134.76 517.483 134.76C513.109 134.76 509.509 134.259 506.684 133.256C503.95 132.345 501.763 130.932 500.122 129.019C498.573 127.014 497.479 124.553 496.841 121.637C496.295 118.72 496.021 115.348 496.021 111.521V81.4464ZM628.937 81.7531C626.259 85.194 621.293 85.3882 617.534 83.1788C617.157 82.9573 616.789 82.7493 616.417 82.5395L616.416 82.5389L616.176 82.4033C614.079 81.2186 611.938 80.6262 609.751 80.6262C606.743 80.6262 604.055 81.173 601.685 82.2666C599.316 83.3602 597.265 84.8184 595.534 86.6411C593.893 88.4637 592.617 90.5598 591.706 92.9293C590.886 95.2988 590.476 97.7595 590.476 100.311C590.476 102.863 590.886 105.324 591.706 107.693C592.617 110.063 593.893 112.159 595.534 113.981C597.265 115.804 599.316 117.262 601.685 118.356C604.055 119.449 606.743 119.996 609.751 119.996C612.302 119.996 614.672 119.495 616.859 118.493C616.944 118.45 617.034 118.414 617.13 118.384C627.652 113.766 633.4 104.349 639.3 94.6806C645.979 83.7386 652.854 72.4737 667.07 67.4759C671.308 65.7086 675.71 64.8838 680.445 64.8838C700.468 64.8838 715.422 79.8428 715.422 100.101C715.422 120.531 700.302 135.661 680.279 135.661C667.365 135.661 657.383 129.46 644.688 113.492C638.614 121.985 629.97 130.657 621.129 132.744C618.98 133.454 616.918 133.944 614.945 134.213C612.94 134.578 611.209 134.76 609.751 134.76C604.829 134.76 600.181 133.94 595.807 132.299C591.433 130.659 587.65 128.335 584.461 125.328C581.271 122.32 578.719 118.72 576.805 114.528C574.983 110.245 574.071 105.506 574.071 100.311C574.071 95.1166 574.983 90.4231 576.805 86.2309C578.719 81.9476 581.271 78.3023 584.461 75.2948C587.65 72.2874 591.433 69.9634 595.807 68.323C600.181 66.6826 604.829 65.8624 609.751 65.8624C613.943 65.8624 618.135 66.6826 622.327 68.323C624.273 69.0268 626.106 69.9281 627.826 71.0268C631.469 73.3536 631.591 78.3418 628.937 81.7531ZM698.723 100.016C698.723 110.786 690.581 118.736 679.698 118.736C671.307 118.736 664.993 114.206 653.777 100.187C663.58 86.7666 670.891 81.4669 679.781 81.4669C690.747 81.4669 698.723 89.4165 698.723 100.016Z" fill="#202020"/>
<mask id="mask1_11222_47177" style="mask-type:alpha" maskUnits="userSpaceOnUse" x="608" y="64" width="108" height="72">
<path fill-rule="evenodd" clip-rule="evenodd" d="M667.057 67.4807C652.852 72.4814 645.979 83.7417 639.304 94.6795C633.355 104.427 627.563 113.918 616.877 118.494C609.913 124.762 600.39 135.149 618.966 133.119C628.545 132.072 638.119 122.68 644.688 113.494C657.382 129.461 667.364 135.661 680.277 135.661C700.3 135.661 715.42 120.531 715.42 100.101C715.42 79.8427 700.466 64.8838 680.444 64.8838C675.704 64.8838 671.299 65.7101 667.057 67.4807ZM698.721 100.016C698.721 110.786 690.579 118.736 679.696 118.736C671.305 118.736 664.991 114.206 653.775 100.187C663.578 86.7666 670.889 81.4668 679.779 81.4668C690.745 81.4668 698.721 89.4165 698.721 100.016Z" fill="white"/>
</mask>
<g mask="url(#mask1_11222_47177)">
<path opacity="0.3" d="M644.207 114.169L653.803 100.137C661.736 109.839 667.427 114.811 674.639 118.307C681.85 121.802 663.605 132.647 663.605 132.647C659.567 130.072 657.043 128.081 652.933 123.943C648.822 119.805 647.608 118.233 644.207 114.169Z" fill="url(#paint3_linear_11222_47177)" fill-opacity="0.5"/>
</g>
<defs>
<linearGradient id="paint0_linear_11222_47177" x1="86.5854" y1="173.171" x2="86.5855" y2="2.56123e-05" gradientUnits="userSpaceOnUse">
<stop stop-color="#00A5D9"/>
<stop offset="1" stop-color="#01E7CC"/>
</linearGradient>
<linearGradient id="paint1_linear_11222_47177" x1="86.7161" y1="53.2161" x2="86.7161" y2="117.21" gradientUnits="userSpaceOnUse">
<stop stop-color="white"/>
<stop offset="1" stop-color="#F1F1F1"/>
</linearGradient>
<linearGradient id="paint2_linear_11222_47177" x1="91.0529" y1="91.1961" x2="108.356" y2="107.185" gradientUnits="userSpaceOnUse">
<stop stop-opacity="0.7"/>
<stop offset="1" stop-opacity="0"/>
</linearGradient>
<linearGradient id="paint3_linear_11222_47177" x1="649.543" y1="106.892" x2="668.681" y2="124.575" gradientUnits="userSpaceOnUse">
<stop stop-opacity="0.7"/>
<stop offset="1" stop-opacity="0"/>
</linearGradient>
</defs>
</svg>
