<svg width="125" height="26" viewBox="0 0 125 26" fill="none" xmlns="http://www.w3.org/2000/svg">
<path fill-rule="evenodd" clip-rule="evenodd" d="M85.6166 8.17245H81.4435V24.8651H85.6166V8.17245ZM81.5826 0.765081C81.0957 1.25195 80.8523 1.83155 80.8523 2.5039C80.8523 3.17624 81.0957 3.76744 81.5826 4.27749C82.0926 4.76436 82.7302 5.0078 83.4953 5.0078C84.2603 5.0078 84.8979 4.77595 85.408 4.31227C85.9412 3.8254 86.2078 3.22261 86.2078 2.5039C86.2078 1.78519 85.9412 1.19399 85.408 0.730305C84.8979 0.243435 84.2603 0 83.4953 0C82.7302 0 82.0926 0.255027 81.5826 0.765081ZM2 0.243435C0.895431 0.243435 0 1.13886 0 2.24343L0 24.8651H4.38182L4.38182 14.6756H7.5117C8.81001 14.6756 10.0504 14.5829 11.2328 14.3974C12.4383 14.2119 13.4932 13.8642 14.3974 13.3541C15.3016 12.8209 16.0203 12.079 16.5536 11.1284C17.0868 10.1779 17.287 8.92594 17.287 7.37259C17.287 6.00472 17.0984 4.86869 16.5883 3.96451C16.1015 3.03714 15.4407 2.30683 14.6061 1.77359C13.7714 1.21717 12.7977 0.823041 11.6849 0.591199C10.5952 0.359356 9.45917 0.243435 8.27677 0.243435L2 0.243435ZM8.9723 10.8502C8.29996 10.8966 7.6508 10.9198 7.02483 10.9198H4.38182L4.38182 3.99928H7.5117C8.0913 3.99928 8.69409 4.03406 9.32007 4.10361C9.94604 4.17316 10.5141 4.33545 11.0241 4.59048C11.5342 4.82232 11.9515 5.17009 12.2761 5.63377C12.6006 6.07427 12.7629 6.67706 12.7629 7.44214C12.7629 8.27678 12.5775 8.92594 12.2065 9.38962C11.8587 9.85331 11.3951 10.2011 10.8155 10.4329C10.259 10.6648 9.64465 10.8039 8.9723 10.8502ZM24.6518 8.17245H20.4787V24.8651H24.6518V15.9276C24.6518 15.6957 24.6982 15.348 24.7909 14.8843C24.9068 14.4206 25.1155 13.9569 25.4169 13.4932C25.7415 13.0295 26.1936 12.6238 26.7732 12.2761C27.376 11.9051 28.1642 11.7196 29.138 11.7196C29.4626 11.7196 29.7871 11.7544 30.1117 11.824C30.6444 11.895 31.155 11.5054 31.155 10.9679V8.7834C31.155 8.32003 30.8458 7.90757 30.3899 7.82468C30.1581 7.77832 29.9146 7.75513 29.6596 7.75513C28.5468 7.75513 27.5614 8.02175 26.7036 8.55499C25.8458 9.08823 25.1851 9.84171 24.7214 10.8155H24.6518V8.17245ZM44.2621 22.5699H44.1578C43.555 23.5204 42.7899 24.216 41.8625 24.6565C40.9352 25.0738 39.9151 25.2824 38.8022 25.2824C38.0371 25.2824 37.2836 25.1781 36.5417 24.9694C35.823 24.7608 35.1739 24.4478 34.5943 24.0305C34.0378 23.6132 33.5858 23.0915 33.238 22.4655C32.8902 21.8396 32.7163 21.1093 32.7163 20.2746C32.7163 19.3704 32.8786 18.6054 33.2032 17.9794C33.5278 17.3302 33.9567 16.797 34.4899 16.3797C35.0464 15.9392 35.6839 15.5914 36.4026 15.3364C37.1213 15.0814 37.8632 14.8959 38.6283 14.78C39.4166 14.6409 40.2048 14.5597 40.9931 14.5365C41.7814 14.4902 42.5233 14.467 43.2188 14.467L44.2621 14.467V14.0149C44.2621 12.9716 43.9027 12.1949 43.184 11.6849C42.4653 11.1516 41.5495 10.885 40.4367 10.885C39.5557 10.885 38.7327 11.0473 37.9676 11.3719C37.709 11.4738 37.4622 11.5889 37.2275 11.7173C36.4755 12.1284 35.5008 12.1393 34.8948 11.5333C34.2849 10.9234 34.2704 9.91982 34.9755 9.42309C35.6054 8.97936 36.2898 8.63204 37.0286 8.38111C38.2806 7.96379 39.5673 7.75513 40.8888 7.75513C42.0712 7.75513 43.0681 7.89424 43.8796 8.17245C44.691 8.42748 45.3633 8.76365 45.8966 9.18096C46.4298 9.59828 46.8355 10.0851 47.1138 10.6416C47.4152 11.1748 47.6238 11.7196 47.7397 12.2761C47.8788 12.8325 47.96 13.3773 47.9832 13.9106C48.0063 14.4206 48.0179 14.8727 48.0179 15.2668V24.8651H44.2621V22.5699ZM44.0187 17.3882H43.1493C42.5696 17.3882 41.9205 17.4114 41.2018 17.4577C40.4831 17.5041 39.7991 17.62 39.15 17.8055C38.524 17.9678 37.9908 18.2228 37.5503 18.5706C37.1098 18.8952 36.8895 19.3589 36.8895 19.9616C36.8895 20.3558 36.9706 20.6919 37.1329 20.9702C37.3184 21.2252 37.5503 21.4454 37.8285 21.6309C38.1067 21.8164 38.4197 21.9555 38.7674 22.0482C39.1152 22.1178 39.463 22.1526 39.8107 22.1526C41.2481 22.1526 42.303 21.8164 42.9754 21.144C43.6709 20.4485 44.0187 19.5095 44.0187 18.3272V17.3882ZM61.7865 11.9631C62.7235 12.4927 63.9432 12.5537 64.7042 11.7927L64.8063 11.6906C65.5869 10.9101 65.6274 9.61652 64.6913 9.03162C64.2709 8.76896 63.8243 8.55212 63.3515 8.38111C62.285 7.96379 61.2185 7.75513 60.152 7.75513C58.9001 7.75513 57.7177 7.96379 56.6049 8.38111C55.492 8.79842 54.5299 9.38962 53.7184 10.1547C52.907 10.9198 52.2578 11.8472 51.7709 12.9368C51.3072 14.0033 51.0754 15.1973 51.0754 16.5188C51.0754 17.8403 51.3072 19.0459 51.7709 20.1355C52.2578 21.202 52.907 22.1178 53.7184 22.8829C54.5299 23.6479 55.492 24.2391 56.6049 24.6565C57.7177 25.0738 58.9001 25.2824 60.152 25.2824C60.523 25.2824 60.9635 25.2361 61.4735 25.1433C61.9836 25.0738 62.5168 24.9463 63.0733 24.7608C63.6297 24.5753 64.1745 24.3319 64.7077 24.0305C65.6016 23.5463 65.62 22.3629 64.9276 21.6185L64.6587 21.3296C63.9923 20.6131 62.8356 20.7064 61.9604 21.144C61.404 21.3991 60.8012 21.5266 60.152 21.5266C59.387 21.5266 58.703 21.3875 58.1002 21.1093C57.4974 20.831 56.9758 20.4601 56.5353 19.9964C56.118 19.5327 55.7934 18.9995 55.5616 18.3967C55.3529 17.7939 55.2486 17.1679 55.2486 16.5188C55.2486 15.8696 55.3529 15.2436 55.5616 14.6409C55.7934 14.0381 56.118 13.5048 56.5353 13.0411C56.9758 12.5775 57.4974 12.2065 58.1002 11.9283C58.703 11.6501 59.387 11.511 60.152 11.511C60.7085 11.511 61.2533 11.6617 61.7865 11.9631ZM69.1859 11.7196V8.17245V4.83853C69.1859 4.0101 69.8574 3.33853 70.6859 3.33853H73.359V8.17245H77.9495V11.7196H73.359V19.0227C73.359 19.8573 73.5097 20.5181 73.8111 21.0049C74.1357 21.4918 74.7617 21.7352 75.689 21.7352C76.06 21.7352 76.4657 21.7005 76.9062 21.6309C77.3467 21.5382 77.6945 21.3991 77.9495 21.2136V24.726C77.509 24.9347 76.9642 25.0738 76.315 25.1433C75.6891 25.2361 75.1326 25.2824 74.6458 25.2824C73.5329 25.2824 72.6171 25.1549 71.8984 24.8999C71.2029 24.668 70.6465 24.3087 70.2292 23.8218C69.835 23.3118 69.5568 22.6858 69.3945 21.9439C69.2554 21.202 69.1859 20.3442 69.1859 19.3704V11.7196ZM102.999 11.7977C102.318 12.673 101.054 12.7224 100.098 12.1604C100.002 12.104 99.9085 12.051 99.8139 11.9976L99.8137 11.9976L99.7527 11.9631C99.2194 11.6617 98.6746 11.511 98.1182 11.511C97.3531 11.511 96.6692 11.6501 96.0664 11.9283C95.4636 12.2065 94.9419 12.5775 94.5014 13.0411C94.0841 13.5048 93.7595 14.0381 93.5277 14.6409C93.319 15.2436 93.2147 15.8696 93.2147 16.5188C93.2147 17.1679 93.319 17.7939 93.5277 18.3967C93.7595 18.9995 94.0841 19.5327 94.5014 19.9964C94.9419 20.4601 95.4636 20.831 96.0664 21.1093C96.6692 21.3875 97.3531 21.5266 98.1182 21.5266C98.7673 21.5266 99.3701 21.3991 99.9266 21.144C99.9477 21.1334 99.9704 21.1244 99.9945 21.1168C102.672 19.9421 104.134 17.5463 105.635 15.0863C107.334 12.3027 109.083 9.43696 112.7 8.16553C113.778 7.71596 114.898 7.50612 116.102 7.50612C121.196 7.50612 125 11.3116 125 16.4654C125 21.6626 121.154 25.5116 116.06 25.5116C112.775 25.5116 110.235 23.9342 107.006 19.8718C105.461 22.0321 103.263 24.2375 101.014 24.7691C100.467 24.9501 99.942 25.0748 99.4397 25.1433C98.9296 25.2361 98.4891 25.2824 98.1182 25.2824C96.8662 25.2824 95.6838 25.0738 94.571 24.6565C93.4582 24.2391 92.496 23.6479 91.6846 22.8829C90.8731 22.1178 90.2239 21.202 89.7371 20.1355C89.2734 19.0459 89.0415 17.8403 89.0415 16.5188C89.0415 15.1973 89.2734 14.0033 89.7371 12.9368C90.2239 11.8472 90.8731 10.9198 91.6846 10.1547C92.496 9.38962 93.4582 8.79842 94.571 8.38111C95.6838 7.96379 96.8662 7.75513 98.1182 7.75513C99.1847 7.75513 100.251 7.96379 101.318 8.38111C101.813 8.56015 102.279 8.78943 102.716 9.06894C103.643 9.66087 103.674 10.9298 102.999 11.7977ZM120.752 16.4436C120.752 19.1836 118.681 21.2059 115.912 21.2059C113.778 21.2059 112.171 20.0534 109.318 16.4871C111.812 13.073 113.672 11.7248 115.933 11.7248C118.723 11.7248 120.752 13.7471 120.752 16.4436Z" fill="#202020"/>
<mask id="mask0_9852_37718" style="mask-type:alpha" maskUnits="userSpaceOnUse" x="97" y="7" width="29" height="19">
<path fill-rule="evenodd" clip-rule="evenodd" d="M112.697 8.16683C109.083 9.43897 107.335 12.3036 105.636 15.0862C104.123 17.5658 102.65 19.9802 99.9311 21.1445C98.1595 22.739 95.7369 25.3816 100.463 24.865C102.9 24.5986 105.335 22.2091 107.006 19.8723C110.236 23.9343 112.775 25.5115 116.06 25.5115C121.154 25.5115 125.001 21.6626 125.001 16.4653C125.001 11.3116 121.196 7.5061 116.103 7.5061C114.897 7.5061 113.776 7.71635 112.697 8.16683ZM120.752 16.4436C120.752 19.1835 118.681 21.2059 115.912 21.2059C113.778 21.2059 112.171 20.0534 109.318 16.4871C111.812 13.073 113.672 11.7248 115.934 11.7248C118.723 11.7248 120.752 13.7471 120.752 16.4436Z" fill="white"/>
</mask>
<g mask="url(#mask0_9852_37718)">
<path opacity="0.3" d="M106.884 20.044L109.325 16.4744C111.343 18.9427 112.791 20.2074 114.625 21.0967C116.46 21.986 111.819 24.7448 111.819 24.7448C110.791 24.0899 110.149 23.5832 109.104 22.5305C108.058 21.4778 107.749 21.078 106.884 20.044Z" fill="url(#paint0_linear_9852_37718)" fill-opacity="0.5"/>
</g>
<defs>
<linearGradient id="paint0_linear_9852_37718" x1="108.241" y1="18.1928" x2="113.11" y2="22.6914" gradientUnits="userSpaceOnUse">
<stop stop-opacity="0.7"/>
<stop offset="1" stop-opacity="0"/>
</linearGradient>
</defs>
</svg>
