<svg width="156" height="34" viewBox="0 0 156 34" fill="none" xmlns="http://www.w3.org/2000/svg">
<path fill-rule="evenodd" clip-rule="evenodd" d="M134.643 10.3207C133.094 10.3207 131.929 9.54452 130.37 7.46434C128.939 9.45137 127.665 10.2897 126.076 10.2897C123.757 10.2897 122 8.49925 122 6.13965C122 3.78005 123.767 2 126.096 2C127.646 2 128.81 2.77618 130.37 4.85636C131.801 2.86933 133.074 2.03105 134.663 2.03105C136.982 2.03105 138.739 3.82145 138.739 6.18105C138.739 8.54065 136.973 10.3207 134.643 10.3207ZM126.227 3.84904C124.86 3.84904 123.86 4.82524 123.86 6.16513C123.86 7.49545 124.851 8.47165 126.217 8.47165C127.333 8.47165 128.218 7.83042 129.44 6.14599C128.035 4.39456 127.275 3.84904 126.227 3.84904ZM134.522 3.84904C135.888 3.84904 136.879 4.82524 136.879 6.15556C136.879 7.49545 135.879 8.47165 134.513 8.47165C133.464 8.47165 132.704 7.92612 131.3 6.1747C132.521 4.49027 133.406 3.84904 134.522 3.84904Z" fill="black"/>
<path d="M6.77982 17.6601V11.2401H10.4398C10.9798 11.2401 11.4998 11.2801 11.9998 11.3601C12.4998 11.4401 12.9398 11.6001 13.3198 11.8401C13.6998 12.0601 13.9998 12.3801 14.2198 12.8001C14.4598 13.2201 14.5798 13.7701 14.5798 14.4501C14.5798 15.1301 14.4598 15.6801 14.2198 16.1001C13.9998 16.5201 13.6998 16.8501 13.3198 17.0901C12.9398 17.3101 12.4998 17.4601 11.9998 17.5401C11.4998 17.6201 10.9798 17.6601 10.4398 17.6601H6.77982ZM2.06982 7.58008V29.0001H6.77982V21.3201H11.7298C13.0698 21.3201 14.2098 21.1301 15.1498 20.7501C16.0898 20.3501 16.8498 19.8301 17.4298 19.1901C18.0298 18.5501 18.4598 17.8201 18.7198 17.0001C18.9998 16.1601 19.1398 15.3101 19.1398 14.4501C19.1398 13.5701 18.9998 12.7201 18.7198 11.9001C18.4598 11.0801 18.0298 10.3501 17.4298 9.71008C16.8498 9.07008 16.0898 8.56008 15.1498 8.18008C14.2098 7.78008 13.0698 7.58008 11.7298 7.58008H2.06982Z" fill="black"/>
<path d="M21.6296 13.4901V29.0001H25.8896V22.0101C25.8896 21.3101 25.9596 20.6601 26.0996 20.0601C26.2396 19.4601 26.4696 18.9401 26.7896 18.5001C27.1296 18.0401 27.5696 17.6801 28.1096 17.4201C28.6496 17.1601 29.3096 17.0301 30.0896 17.0301C30.3496 17.0301 30.6196 17.0501 30.8996 17.0901C31.1796 17.1101 31.4196 17.1401 31.6196 17.1801V13.2201C31.2796 13.1201 30.9696 13.0701 30.6896 13.0701C30.1496 13.0701 29.6296 13.1501 29.1296 13.3101C28.6296 13.4701 28.1596 13.7001 27.7196 14.0001C27.2796 14.2801 26.8896 14.6301 26.5496 15.0501C26.2096 15.4501 25.9396 15.8901 25.7396 16.3701H25.6796V13.4901H21.6296Z" fill="black"/>
<path d="M33.1097 18.2601C33.1697 17.2601 33.4197 16.4301 33.8597 15.7701C34.2997 15.1101 34.8597 14.5801 35.5397 14.1801C36.2197 13.7801 36.9797 13.5001 37.8197 13.3401C38.6797 13.1601 39.5397 13.0701 40.3997 13.0701C41.1797 13.0701 41.9697 13.1301 42.7697 13.2501C43.5697 13.3501 44.2997 13.5601 44.9597 13.8801C45.6197 14.2001 46.1597 14.6501 46.5797 15.2301C46.9997 15.7901 47.2097 16.5401 47.2097 17.4801V25.5501C47.2097 26.2501 47.2497 26.9201 47.3297 27.5601C47.4097 28.2001 47.5497 28.6801 47.7497 29.0001H43.4297C43.3497 28.7601 43.2797 28.5201 43.2197 28.2801C43.1797 28.0201 43.1497 27.7601 43.1297 27.5001C42.4497 28.2001 41.6497 28.6901 40.7297 28.9701C39.8097 29.2501 38.8697 29.3901 37.9097 29.3901C37.1697 29.3901 36.4797 29.3001 35.8397 29.1201C35.1997 28.9401 34.6397 28.6601 34.1597 28.2801C33.6797 27.9001 33.2997 27.4201 33.0197 26.8401C32.7597 26.2601 32.6297 25.5701 32.6297 24.7701C32.6297 23.8901 32.7797 23.1701 33.0797 22.6101C33.3997 22.0301 33.7997 21.5701 34.2797 21.2301C34.7797 20.8901 35.3397 20.6401 35.9597 20.4801C36.5997 20.3001 37.2397 20.1601 37.8797 20.0601C38.5197 19.9601 39.1497 19.8801 39.7697 19.8201C40.3897 19.7601 40.9397 19.6701 41.4197 19.5501C41.8997 19.4301 42.2797 19.2601 42.5597 19.0401C42.8397 18.8001 42.9697 18.4601 42.9497 18.0201C42.9497 17.5601 42.8697 17.2001 42.7097 16.9401C42.5697 16.6601 42.3697 16.4501 42.1097 16.3101C41.8697 16.1501 41.5797 16.0501 41.2397 16.0101C40.9197 15.9501 40.5697 15.9201 40.1897 15.9201C39.3497 15.9201 38.6897 16.1001 38.2097 16.4601C37.7297 16.8201 37.4497 17.4201 37.3697 18.2601H33.1097ZM42.9497 21.4101C42.7697 21.5701 42.5397 21.7001 42.2597 21.8001C41.9997 21.8801 41.7097 21.9501 41.3897 22.0101C41.0897 22.0701 40.7697 22.1201 40.4297 22.1601C40.0897 22.2001 39.7497 22.2501 39.4097 22.3101C39.0897 22.3701 38.7697 22.4501 38.4497 22.5501C38.1497 22.6501 37.8797 22.7901 37.6397 22.9701C37.4197 23.1301 37.2397 23.3401 37.0997 23.6001C36.9597 23.8601 36.8897 24.1901 36.8897 24.5901C36.8897 24.9701 36.9597 25.2901 37.0997 25.5501C37.2397 25.8101 37.4297 26.0201 37.6697 26.1801C37.9097 26.3201 38.1897 26.4201 38.5097 26.4801C38.8297 26.5401 39.1597 26.5701 39.4997 26.5701C40.3397 26.5701 40.9897 26.4301 41.4497 26.1501C41.9097 25.8701 42.2497 25.5401 42.4697 25.1601C42.6897 24.7601 42.8197 24.3601 42.8597 23.9601C42.9197 23.5601 42.9497 23.2401 42.9497 23.0001V21.4101Z" fill="black"/>
<path d="M50.9063 7.58008V29.0001H55.1663V23.6601L56.8163 22.0701L61.0763 29.0001H66.2363L59.7263 19.1901L65.5763 13.4901H60.5363L55.1663 19.0701V7.58008H50.9063Z" fill="black"/>
<path d="M73.1429 13.4901V8.84008H68.8829V13.4901H66.3029V16.3401H68.8829V25.4901C68.8829 26.2701 69.0129 26.9001 69.2729 27.3801C69.5329 27.8601 69.8829 28.2301 70.3229 28.4901C70.7829 28.7501 71.3029 28.9201 71.8829 29.0001C72.4829 29.1001 73.1129 29.1501 73.7729 29.1501C74.1929 29.1501 74.6229 29.1401 75.0629 29.1201C75.5029 29.1001 75.9029 29.0601 76.2629 29.0001V25.7001C76.0629 25.7401 75.8529 25.7701 75.6329 25.7901C75.4129 25.8101 75.1829 25.8201 74.9429 25.8201C74.2229 25.8201 73.7429 25.7001 73.5029 25.4601C73.2629 25.2201 73.1429 24.7401 73.1429 24.0201V16.3401H76.2629V13.4901H73.1429Z" fill="black"/>
<path d="M82.6697 11.0901V7.58008H78.4097V11.0901H82.6697ZM78.4097 13.4901V29.0001H82.6697V13.4901H78.4097Z" fill="black"/>
<path d="M86.4141 7.58008V29.0001H90.6741V23.6601L92.3241 22.0701L96.5841 29.0001H101.744L95.2341 19.1901L101.084 13.4901H96.0441L90.6741 19.0701V7.58008H86.4141Z" fill="black"/>
<path d="M103.071 18.2601C103.131 17.2601 103.381 16.4301 103.821 15.7701C104.261 15.1101 104.821 14.5801 105.501 14.1801C106.181 13.7801 106.941 13.5001 107.781 13.3401C108.641 13.1601 109.501 13.0701 110.361 13.0701C111.141 13.0701 111.931 13.1301 112.731 13.2501C113.531 13.3501 114.261 13.5601 114.921 13.8801C115.581 14.2001 116.121 14.6501 116.541 15.2301C116.961 15.7901 117.171 16.5401 117.171 17.4801V25.5501C117.171 26.2501 117.211 26.9201 117.291 27.5601C117.371 28.2001 117.511 28.6801 117.711 29.0001H113.391C113.311 28.7601 113.241 28.5201 113.181 28.2801C113.141 28.0201 113.111 27.7601 113.091 27.5001C112.411 28.2001 111.611 28.6901 110.691 28.9701C109.771 29.2501 108.831 29.3901 107.871 29.3901C107.131 29.3901 106.441 29.3001 105.801 29.1201C105.161 28.9401 104.601 28.6601 104.121 28.2801C103.641 27.9001 103.261 27.4201 102.981 26.8401C102.721 26.2601 102.591 25.5701 102.591 24.7701C102.591 23.8901 102.741 23.1701 103.041 22.6101C103.361 22.0301 103.761 21.5701 104.241 21.2301C104.741 20.8901 105.301 20.6401 105.921 20.4801C106.561 20.3001 107.201 20.1601 107.841 20.0601C108.481 19.9601 109.111 19.8801 109.731 19.8201C110.351 19.7601 110.901 19.6701 111.381 19.5501C111.861 19.4301 112.241 19.2601 112.521 19.0401C112.801 18.8001 112.931 18.4601 112.911 18.0201C112.911 17.5601 112.831 17.2001 112.671 16.9401C112.531 16.6601 112.331 16.4501 112.071 16.3101C111.831 16.1501 111.541 16.0501 111.201 16.0101C110.881 15.9501 110.531 15.9201 110.151 15.9201C109.311 15.9201 108.651 16.1001 108.171 16.4601C107.691 16.8201 107.411 17.4201 107.331 18.2601H103.071ZM112.911 21.4101C112.731 21.5701 112.501 21.7001 112.221 21.8001C111.961 21.8801 111.671 21.9501 111.351 22.0101C111.051 22.0701 110.731 22.1201 110.391 22.1601C110.051 22.2001 109.711 22.2501 109.371 22.3101C109.051 22.3701 108.731 22.4501 108.411 22.5501C108.111 22.6501 107.841 22.7901 107.601 22.9701C107.381 23.1301 107.201 23.3401 107.061 23.6001C106.921 23.8601 106.851 24.1901 106.851 24.5901C106.851 24.9701 106.921 25.2901 107.061 25.5501C107.201 25.8101 107.391 26.0201 107.631 26.1801C107.871 26.3201 108.151 26.4201 108.471 26.4801C108.791 26.5401 109.121 26.5701 109.461 26.5701C110.301 26.5701 110.951 26.4301 111.411 26.1501C111.871 25.8701 112.211 25.5401 112.431 25.1601C112.651 24.7601 112.781 24.3601 112.821 23.9601C112.881 23.5601 112.911 23.2401 112.911 23.0001V21.4101Z" fill="black"/>
</svg>
