<svg width="260" height="53" viewBox="0 0 260 53" fill="none" xmlns="http://www.w3.org/2000/svg">
<path fill-rule="evenodd" clip-rule="evenodd" d="M251.838 16.0488C248.899 16.0488 246.69 14.5767 243.732 10.6314C241.018 14.4 238.603 15.9899 235.589 15.9899C231.19 15.9899 227.858 12.5942 227.858 8.11901C227.858 3.6438 231.209 0.267761 235.627 0.267761C238.566 0.267761 240.775 1.73987 243.732 5.68513C246.447 1.91652 248.861 0.326646 251.875 0.326646C256.274 0.326646 259.606 3.72231 259.606 8.19753C259.606 12.6727 256.255 16.0488 251.838 16.0488ZM235.874 3.77463C233.283 3.77463 231.386 5.6261 231.386 8.16733C231.386 10.6904 233.265 12.5419 235.856 12.5419C237.972 12.5419 239.651 11.3257 241.968 8.13102C239.304 4.80928 237.863 3.77463 235.874 3.77463ZM251.608 3.77463C254.199 3.77463 256.079 5.6261 256.079 8.14918C256.079 10.6904 254.181 12.5419 251.59 12.5419C249.601 12.5419 248.16 11.5072 245.496 8.18548C247.813 4.99079 249.492 3.77463 251.608 3.77463Z" fill="white"/>
<path d="M9.33332 29.9685V17.7923H16.2748C17.299 17.7923 18.2852 17.8682 19.2335 18.0199C20.1818 18.1716 21.0163 18.4751 21.737 18.9303C22.4577 19.3475 23.0267 19.9544 23.4439 20.751C23.8991 21.5476 24.1267 22.5907 24.1267 23.8804C24.1267 25.1701 23.8991 26.2132 23.4439 27.0098C23.0267 27.8064 22.4577 28.4322 21.737 28.8874C21.0163 29.3047 20.1818 29.5892 19.2335 29.7409C18.2852 29.8926 17.299 29.9685 16.2748 29.9685H9.33332ZM0.400391 10.8508V51.4759H9.33332V36.91H18.7214C21.2629 36.91 23.425 36.5497 25.2078 35.829C26.9906 35.0703 28.432 34.0841 29.532 32.8703C30.6699 31.6564 31.4855 30.2719 31.9786 28.7167C32.5096 27.1236 32.7752 25.5115 32.7752 23.8804C32.7752 22.2114 32.5096 20.5993 31.9786 19.0441C31.4855 17.4889 30.6699 16.1043 29.532 14.8905C28.432 13.6767 26.9906 12.7094 25.2078 11.9887C23.425 11.2301 21.2629 10.8508 18.7214 10.8508H0.400391Z" fill="white"/>
<path d="M37.4972 22.0597V51.4759H45.5767V38.2187C45.5767 36.8911 45.7094 35.6583 45.975 34.5203C46.2405 33.3823 46.6767 32.3961 47.2836 31.5616C47.9285 30.6892 48.763 30.0064 49.7871 29.5133C50.8113 29.0202 52.063 28.7736 53.5424 28.7736C54.0355 28.7736 54.5476 28.8115 55.0786 28.8874C55.6096 28.9253 56.0648 28.9822 56.4441 29.0581V21.5476C55.7993 21.3579 55.2114 21.2631 54.6803 21.2631C53.6562 21.2631 52.6699 21.4148 51.7216 21.7183C50.7733 22.0217 49.8819 22.4579 49.0474 23.0269C48.2129 23.558 47.4733 24.2218 46.8284 25.0184C46.1836 25.777 45.6715 26.6115 45.2922 27.5219H45.1784V22.0597H37.4972Z" fill="white"/>
<path d="M59.2704 31.1064C59.3841 29.2098 59.8583 27.6357 60.6928 26.3839C61.5273 25.1321 62.5894 24.127 63.8791 23.3683C65.1687 22.6097 66.6102 22.0786 68.2033 21.7752C69.8344 21.4338 71.4654 21.2631 73.0965 21.2631C74.5758 21.2631 76.0741 21.3769 77.5914 21.6045C79.1087 21.7941 80.4932 22.1924 81.7449 22.7993C82.9967 23.4062 84.0208 24.2597 84.8174 25.3597C85.614 26.4218 86.0123 27.8443 86.0123 29.6271V44.9326C86.0123 46.2602 86.0881 47.531 86.2398 48.7448C86.3916 49.9586 86.6571 50.869 87.0364 51.4759H78.8432C78.6914 51.0207 78.5587 50.5655 78.4449 50.1103C78.369 49.6172 78.3121 49.1241 78.2742 48.631C76.9845 49.9586 75.4672 50.8879 73.7224 51.419C71.9775 51.95 70.1947 52.2156 68.374 52.2156C66.9705 52.2156 65.6619 52.0449 64.448 51.7035C63.2342 51.3621 62.1721 50.831 61.2618 50.1103C60.3514 49.3896 59.6307 48.4793 59.0997 47.3792C58.6065 46.2792 58.36 44.9706 58.36 43.4533C58.36 41.7843 58.6445 40.4187 59.2135 39.3566C59.8204 38.2566 60.579 37.3842 61.4894 36.7393C62.4377 36.0945 63.4997 35.6203 64.6756 35.3169C65.8895 34.9755 67.1033 34.71 68.3171 34.5203C69.5309 34.3306 70.7257 34.1789 71.9016 34.0651C73.0775 33.9513 74.1206 33.7806 75.031 33.553C75.9414 33.3254 76.6621 33.003 77.1931 32.5858C77.7242 32.1306 77.9707 31.4857 77.9328 30.6512C77.9328 29.7788 77.7811 29.096 77.4776 28.6029C77.2121 28.0719 76.8328 27.6736 76.3397 27.4081C75.8845 27.1046 75.3345 26.9149 74.6896 26.8391C74.0827 26.7253 73.4189 26.6684 72.6982 26.6684C71.1051 26.6684 69.8533 27.0098 68.943 27.6926C68.0326 28.3753 67.5015 29.5133 67.3498 31.1064H59.2704ZM77.9328 37.0807C77.5914 37.3842 77.1552 37.6307 76.6241 37.8204C76.131 37.9721 75.581 38.1049 74.9741 38.2187C74.4051 38.3325 73.7982 38.4273 73.1534 38.5032C72.5085 38.579 71.8637 38.6739 71.2189 38.7876C70.612 38.9014 70.005 39.0532 69.3981 39.2428C68.8292 39.4325 68.3171 39.698 67.8619 40.0394C67.4447 40.3429 67.1033 40.7411 66.8377 41.2343C66.5722 41.7274 66.4395 42.3533 66.4395 43.1119C66.4395 43.8326 66.5722 44.4395 66.8377 44.9326C67.1033 45.4257 67.4636 45.824 67.9188 46.1275C68.374 46.393 68.905 46.5827 69.5119 46.6965C70.1188 46.8103 70.7447 46.8672 71.3896 46.8672C72.9827 46.8672 74.2155 46.6016 75.0879 46.0706C75.9603 45.5395 76.6052 44.9137 77.0224 44.193C77.4397 43.4343 77.6862 42.6757 77.7621 41.917C77.8759 41.1584 77.9328 40.5515 77.9328 40.0963V37.0807Z" fill="white"/>
<path d="M93.0231 10.8508V51.4759H101.103V41.3481L104.232 38.3325L112.311 51.4759H122.098L109.751 32.8703L120.846 22.0597H111.287L101.103 32.6427V10.8508H93.0231Z" fill="white"/>
<path d="M135.197 22.0597V13.2405H127.117V22.0597H122.224V27.465H127.117V44.8188C127.117 46.2982 127.364 47.493 127.857 48.4034C128.35 49.3138 129.014 50.0155 129.848 50.5086C130.721 51.0017 131.707 51.3242 132.807 51.4759C133.945 51.6656 135.14 51.7604 136.392 51.7604C137.188 51.7604 138.004 51.7414 138.838 51.7035C139.673 51.6655 140.431 51.5897 141.114 51.4759V45.2171C140.735 45.293 140.336 45.3499 139.919 45.3878C139.502 45.4257 139.066 45.4447 138.611 45.4447C137.245 45.4447 136.335 45.2171 135.88 44.7619C135.424 44.3067 135.197 43.3964 135.197 42.0308V27.465H141.114V22.0597H135.197Z" fill="white"/>
<path d="M153.265 17.5078V10.8508H145.186V17.5078H153.265ZM145.186 22.0597V51.4759H153.265V22.0597H145.186Z" fill="white"/>
<path d="M160.367 10.8508V51.4759H168.446V41.3481L171.576 38.3325L179.655 51.4759H189.442L177.095 32.8703L188.19 22.0597H178.631L168.446 32.6427V10.8508H160.367Z" fill="white"/>
<path d="M191.957 31.1064C192.071 29.2098 192.545 27.6357 193.38 26.3839C194.214 25.1321 195.277 24.127 196.566 23.3683C197.856 22.6097 199.297 22.0786 200.89 21.7752C202.521 21.4338 204.153 21.2631 205.784 21.2631C207.263 21.2631 208.761 21.3769 210.279 21.6045C211.796 21.7941 213.18 22.1924 214.432 22.7993C215.684 23.4062 216.708 24.2597 217.505 25.3597C218.301 26.4218 218.699 27.8443 218.699 29.6271V44.9326C218.699 46.2602 218.775 47.531 218.927 48.7448C219.079 49.9586 219.344 50.869 219.724 51.4759H211.53C211.379 51.0207 211.246 50.5655 211.132 50.1103C211.056 49.6172 210.999 49.1241 210.961 48.631C209.672 49.9586 208.154 50.8879 206.409 51.419C204.665 51.95 202.882 52.2156 201.061 52.2156C199.658 52.2156 198.349 52.0449 197.135 51.7035C195.921 51.3621 194.859 50.831 193.949 50.1103C193.039 49.3896 192.318 48.4793 191.787 47.3792C191.294 46.2792 191.047 44.9706 191.047 43.4533C191.047 41.7843 191.332 40.4187 191.901 39.3566C192.507 38.2566 193.266 37.3842 194.176 36.7393C195.125 36.0945 196.187 35.6203 197.363 35.3169C198.577 34.9755 199.79 34.71 201.004 34.5203C202.218 34.3306 203.413 34.1789 204.589 34.0651C205.765 33.9513 206.808 33.7806 207.718 33.553C208.628 33.3254 209.349 33.003 209.88 32.5858C210.411 32.1306 210.658 31.4857 210.62 30.6512C210.62 29.7788 210.468 29.096 210.165 28.6029C209.899 28.0719 209.52 27.6736 209.027 27.4081C208.572 27.1046 208.022 26.9149 207.377 26.8391C206.77 26.7253 206.106 26.6684 205.385 26.6684C203.792 26.6684 202.54 27.0098 201.63 27.6926C200.72 28.3753 200.189 29.5133 200.037 31.1064H191.957ZM210.62 37.0807C210.279 37.3842 209.842 37.6307 209.311 37.8204C208.818 37.9721 208.268 38.1049 207.661 38.2187C207.092 38.3325 206.485 38.4273 205.841 38.5032C205.196 38.579 204.551 38.6739 203.906 38.7876C203.299 38.9014 202.692 39.0532 202.085 39.2428C201.516 39.4325 201.004 39.698 200.549 40.0394C200.132 40.3429 199.79 40.7411 199.525 41.2343C199.259 41.7274 199.127 42.3533 199.127 43.1119C199.127 43.8326 199.259 44.4395 199.525 44.9326C199.79 45.4257 200.151 45.824 200.606 46.1275C201.061 46.393 201.592 46.5827 202.199 46.6965C202.806 46.8103 203.432 46.8672 204.077 46.8672C205.67 46.8672 206.903 46.6016 207.775 46.0706C208.647 45.5395 209.292 44.9137 209.71 44.193C210.127 43.4343 210.373 42.6757 210.449 41.917C210.563 41.1584 210.62 40.5515 210.62 40.0963V37.0807Z" fill="white"/>
</svg>
