<?xml version="1.0" encoding="UTF-8"?>
<svg width="135px" height="45px" viewBox="0 0 135 45" version="1.1" xmlns="http://www.w3.org/2000/svg" xmlns:xlink="http://www.w3.org/1999/xlink">
    <!-- Generator: Sketch 55.2 (78181) - https://sketchapp.com -->
    <title>Download_on_the_App_Store_Badge_RU_RGB_wht_100317@3x</title>
    <desc>Created with Sketch.</desc>
    <g id="All-screens" stroke="none" stroke-width="1" fill="none" fill-rule="evenodd">
        <g id="Mob_320" transform="translate(-93.000000, -1027.000000)" fill-rule="nonzero">
            <g id="Group-6" transform="translate(93.000000, 1027.000000)">
                <g id="Download_on_the_App_Store_Badge_RU_RGB_wht_100317">
                    <g id="Group">
                        <g id="Path">
                            <path d="M123.901616,-0.000146249991 L10.726515,-0.000146249991 C10.3139775,-0.000146249991 9.90639,-0.000146249991 9.49494375,0.00225000001 C9.150525,0.00450000001 8.80885125,0.01103625 8.461125,0.0165375 C7.70570289,0.0254270291 6.95205728,0.0918857924 6.2067375,0.21533625 C5.46246459,0.341474206 4.74150658,0.579280208 4.0682475,0.92071125 C3.39581184,1.26503068 2.78138815,1.71243847 2.24726625,2.24670375 C1.71034031,2.77946662 1.26277108,3.39526843 0.92176875,4.07043 C0.579825272,4.74424776 0.342720561,5.46630558 0.21864375,6.211665 C0.0933873088,6.95608302 0.0259856782,7.70908561 0.01704375,8.463915 C0.00660375,8.80884 0.00550125,9.1549125 0,9.4998825 L0,35.503425 C0.00550125,35.8527375 0.00660375,36.1911375 0.01704375,36.5405625 C0.0259884203,37.2953545 0.093390052,38.0483194 0.21864375,38.7927 C0.342377947,39.5384952 0.579496678,40.2609675 0.92176875,40.9350375 C1.26261624,41.6080158 1.71024841,42.2213245 2.24726625,42.751125 C2.77936293,43.2877658 3.39418376,43.735478 4.0682475,44.0771625 C4.74150147,44.4195074 5.46238175,44.6587288 6.2067375,44.7868125 C6.95218398,44.9092741 7.70575209,44.9757598 8.461125,44.9857125 C8.80885125,44.9933625 9.150525,44.99775 9.49494375,44.99775 C9.90637875,45 10.314,45 10.726515,45 L123.901616,45 C124.305941,45 124.716791,45 125.121116,44.99775 C125.463904,44.99775 125.815466,44.9933625 126.158254,44.9857125 C126.912199,44.9762892 127.664348,44.9097992 128.408254,44.7868125 C129.155011,44.6578272 129.878476,44.418669 130.554979,44.0771625 C131.228435,43.7352802 131.842688,43.2875802 132.374329,42.751125 C132.909961,42.2192495 133.358549,41.6063894 133.703629,40.9350375 C134.043332,40.2604771 134.278194,39.5380626 134.400116,38.7927 C134.52557,38.0482173 134.595364,37.2954198 134.608916,36.5405625 C134.613304,36.1911375 134.613304,35.8527375 134.613304,35.503425 C134.622079,35.0947125 134.622079,34.68825 134.622079,34.2729 L134.622079,10.7281463 C134.622079,10.31616 134.622079,9.90747 134.613304,9.4998825 C134.613304,9.1549125 134.613304,8.80884 134.608916,8.46387 C134.595367,7.70897525 134.525573,6.95614013 134.400116,6.21162 C134.277854,5.4666918 134.043006,4.74469119 133.703629,4.070385 C133.009194,2.71709559 131.90802,1.61552857 130.554979,0.92061 C129.878473,0.580013303 129.154931,0.342270461 128.408254,0.215235 C127.664477,0.091240631 126.912249,0.0247587355 126.158254,0.01638 C125.815466,0.01089 125.463904,0.00429750001 125.121116,0.00210375001 C124.716791,-0.000146249991 124.305941,-0.000146249991 123.901616,-0.000146249991 L123.901616,-0.000146249991 Z" fill="#000000"></path>
                            <path d="M9.50043375,44.015625 C9.15766875,44.015625 8.82318375,44.0112375 8.4831075,44.0035875 C7.77861199,43.9944083 7.07576307,43.9330782 6.380325,43.8201 C5.73186409,43.7084192 5.10367977,43.5006725 4.5164925,43.2037125 C3.93468942,42.909213 3.40403824,42.523057 2.9448675,42.0600375 C2.47905037,41.6024722 2.09123633,41.0717745 1.79679375,40.488975 C1.49910667,39.9023878 1.29308949,39.273637 1.18591875,38.624625 C1.07018365,37.9272542 1.00756617,37.2221024 0.99860625,36.51525 C0.99147375,36.2779875 0.98213625,35.4880125 0.98213625,35.4880125 L0.98213625,9.4998825 C0.98213625,9.4998825 0.99208125,8.72204625 0.9986625,8.493525 C1.00724156,7.78779231 1.06949492,7.08373473 1.18488375,6.38744625 C1.29225231,5.73665634 1.49842898,5.10609248 1.79627625,4.51758375 C2.08963668,3.93518683 2.47529766,3.40409283 2.93830875,2.94489 C3.40079943,2.4813241 3.93314806,2.09317963 4.51594125,1.79461125 C5.101779,1.4986053 5.72877613,1.29232411 6.37592625,1.18267875 C7.07364825,1.06856566 7.77893719,1.00687059 8.485875,0.99811125 L9.500985,0.984375 L125.115604,0.984375 L126.142841,0.9986625 C126.843349,1.0069866 127.542231,1.06813126 128.233541,1.18157625 C128.887243,1.29259695 129.520774,1.50031748 130.113304,1.7979075 C131.28085,2.3996093 132.230859,3.35155832 132.830179,4.52032875 C133.123272,5.10477476 133.326268,5.7301951 133.432279,6.37536375 C133.549042,7.0773653 133.61439,7.78695563 133.627804,8.498475 C133.631066,8.817075 133.631066,9.1593 133.631066,9.4998825 C133.639954,9.9217575 133.639954,10.3233038 133.639954,10.7281463 L133.639954,34.2729 C133.639954,34.6816125 133.639954,35.080425 133.631066,35.4825 C133.631066,35.84835 133.631066,36.1834875 133.626679,36.5284125 C133.613556,37.2272351 133.549296,37.9241598 133.434416,38.6136 C133.329442,39.2672938 133.124547,39.9009523 132.826916,40.49235 C132.530392,41.0688238 132.144805,41.5949245 131.684366,42.0512625 C131.224782,42.5167702 130.693195,42.9051855 130.110041,43.201575 C129.519153,43.5008179 128.886554,43.7093328 128.233541,43.8201 C127.538156,43.9336811 126.835239,43.9950152 126.130691,44.0035875 C125.801179,44.0112375 125.456141,44.015625 125.121116,44.015625 L123.901616,44.017875 L9.50043375,44.015625 Z" fill="#FFFFFF"></path>
                        </g>
                        <g id="_Group_" transform="translate(10.125000, 7.875000)" fill="#000000">
                            <g id="_Group_2">
                                <g id="_Group_3">
                                    <path d="M17.9962987,14.5005188 C18.0218702,12.5158461 19.0623488,10.6826129 20.7532012,9.643095 C19.681673,8.11276425 17.9512757,7.17728684 16.0840125,7.118865 C14.1194925,6.9126525 12.2149913,8.2944 11.2138875,8.2944 C10.1934337,8.2944 8.65211625,7.13934 6.99235875,7.17348375 C4.80856402,7.24403818 2.82202872,8.45555321 1.7595675,10.3647712 C-0.50293125,14.2820212 1.1846925,20.039085 3.35201625,23.2055213 C4.43638125,24.75603 5.7036825,26.4879787 7.36194375,26.426565 C8.98464375,26.3592563 9.5906925,25.3918238 11.5494187,25.3918238 C13.4899762,25.3918238 14.0585625,26.426565 15.7504725,26.3875163 C17.4917137,26.3592563 18.5887575,24.8301225 19.6350975,23.2649325 C20.4142127,22.1601414 21.0137403,20.9391062 21.4114725,19.6470562 C19.343411,18.7723681 17.9987055,16.7459478 17.9962987,14.5005188 Z" id="_Path_"></path>
                                    <path d="M14.8006238,5.03641125 C15.7500236,3.89670211 16.217759,2.4317945 16.1044987,0.952785 C14.6540402,1.1051268 13.3142226,1.79835103 12.352005,2.8943325 C11.4018581,3.97566685 10.9205163,5.39034237 11.0139975,6.82677 C12.4838981,6.84190052 13.8795369,6.18202709 14.8006238,5.03641125 Z" id="_Path_2"></path>
                                </g>
                            </g>
                            <g id="Group" transform="translate(28.125000, 11.250000)">
                                <path d="M9.3395025,11.4071063 L4.0144275,11.4071063 L2.7356175,15.1831125 L0.4801275,15.1831125 L5.5239525,1.2128625 L7.8673275,1.2128625 L12.9111525,15.1831125 L10.61721,15.1831125 L9.3395025,11.4071063 Z M4.5659475,9.6646725 L8.7869475,9.6646725 L6.706125,3.53649375 L6.64785,3.53649375 L4.5659475,9.6646725 Z" id="Shape"></path>
                                <path d="M23.8041,10.0909463 C23.8041,13.2561113 22.1100075,15.2896725 19.55349,15.2896725 C18.2320484,15.3587977 16.9873227,14.6666595 16.3487812,13.5076725 L16.3004062,13.5076725 L16.3004062,18.5526 L14.2097062,18.5526 L14.2097062,4.9976775 L16.23339,4.9976775 L16.23339,6.69177 L16.2718425,6.69177 C16.9387518,5.54004891 18.1848198,4.84820869 19.5150037,4.89110625 C22.1001188,4.8911175 23.8041,6.9345675 23.8041,10.0909463 Z M21.65517,10.0909463 C21.65517,8.02882125 20.5894913,6.673095 18.9635175,6.673095 C17.3661075,6.673095 16.2916425,8.05737375 16.2916425,10.0909463 C16.2916425,12.1431938 17.3661075,13.5175838 18.9635175,13.5175838 C20.5895025,13.5175838 21.65517,12.1717575 21.65517,10.0909463 L21.65517,10.0909463 Z" id="Shape"></path>
                                <path d="M35.0150962,10.0909463 C35.0150962,13.2561113 33.3204525,15.2896725 30.763935,15.2896725 C29.4424934,15.3587977 28.1977677,14.6666595 27.5592263,13.5076725 L27.5108513,13.5076725 L27.5108513,18.5526 L25.4201512,18.5526 L25.4201512,4.9976775 L27.443835,4.9976775 L27.443835,6.69177 L27.4822875,6.69177 C28.1491968,5.54004891 29.3952648,4.84820869 30.7254487,4.89110625 C33.310575,4.8911175 35.0150962,6.9345675 35.0150962,10.0909463 Z M32.8656262,10.0909463 C32.8656262,8.02882125 31.7999475,6.673095 30.1739737,6.673095 C28.5765637,6.673095 27.5020987,8.05737375 27.5020987,10.0909463 C27.5020987,12.1431938 28.5765637,13.5175838 30.1739737,13.5175838 C31.7999475,13.5175838 32.8656262,12.1717575 32.8656262,10.0909463 L32.8656262,10.0909463 Z" id="Shape"></path>
                                <path d="M42.4231762,11.2906462 C42.5780887,12.6760275 43.9239263,13.5856462 45.76302,13.5856462 C47.5252313,13.5856462 48.79305,12.6759825 48.79305,11.4268275 C48.79305,10.3424737 48.0283988,9.6932025 46.2178575,9.2482425 L44.4073162,8.81208 C41.8420125,8.1924525 40.6510875,6.99274125 40.6510875,5.0459625 C40.6510875,2.63556 42.7516762,0.97992 45.733365,0.97992 C48.68649,0.97992 50.7101737,2.63556 50.7782925,5.0459625 L48.6677925,5.0459625 C48.541455,3.651795 47.3889825,2.81025 45.7047787,2.81025 C44.020575,2.81025 42.8681137,3.661695 42.8681137,4.90095 C42.8681137,5.88862125 43.6042012,6.46979625 45.4048537,6.9147 L46.9440337,7.2926325 C49.810365,7.97049 51.0001875,9.1218825 51.0001875,11.16531 C51.0001875,13.778955 48.9193762,15.41592 45.6080625,15.41592 C42.5099137,15.41592 40.4181225,13.8174075 40.2829875,11.290545 L42.4231762,11.2906462 Z" id="Path"></path>
                                <path d="M55.5144862,2.587275 L55.5144862,4.9976775 L57.4513762,4.9976775 L57.4513762,6.6533175 L55.5144862,6.6533175 L55.5144862,12.2684288 C55.5144862,13.1407425 55.9023075,13.5472388 56.7537412,13.5472388 C56.9836816,13.5432292 57.2132499,13.5270817 57.4414875,13.4988638 L57.4414875,15.144615 C57.0586819,15.216142 56.6695922,15.2485363 56.2802287,15.2412975 C54.2181038,15.2412975 53.4138975,14.4667575 53.4138975,12.491415 L53.4138975,6.6533175 L51.9329475,6.6533175 L51.9329475,4.9976775 L53.413875,4.9976775 L53.413875,2.587275 L55.5144862,2.587275 Z" id="Path"></path>
                                <path d="M58.572,10.0909463 C58.572,6.8862375 60.4594462,4.8724425 63.4026937,4.8724425 C66.3558187,4.8724425 68.2344787,6.8861925 68.2344787,10.0909463 C68.2344787,13.3044525 66.3657075,15.30945 63.4026937,15.30945 C60.44076,15.30945 58.572,13.3044413 58.572,10.0909463 Z M66.1042238,10.0909463 C66.1042238,7.89258375 65.096775,6.59509875 63.4026825,6.59509875 C61.70859,6.59509875 60.7011413,7.9024725 60.7011413,10.0909463 C60.7011413,12.298095 61.70859,13.5857025 63.4026825,13.5857025 C65.096775,13.5857025 66.1042238,12.298095 66.1042238,10.0909463 L66.1042238,10.0909463 Z" id="Shape"></path>
                                <path d="M69.9582038,4.9976775 L71.9522325,4.9976775 L71.9522325,6.7313025 L72.0006075,6.7313025 C72.2786806,5.61528946 73.3012566,4.8472105 74.4505538,4.891095 C74.6914883,4.89025376 74.9317581,4.91641959 75.1668638,4.9691025 L75.1668638,6.9246675 C74.8626986,6.83172373 74.5454021,6.7890502 74.2274888,6.79833 C73.612843,6.77339487 73.0180023,7.01835157 72.5991541,7.46888172 C72.180306,7.91941187 71.9792961,8.53050458 72.0489038,9.141705 L72.0489038,15.18309 L69.9582038,15.18309 L69.9582038,4.9976775 Z" id="Path"></path>
                                <path d="M84.806235,12.1915238 C84.524985,14.0405175 82.7243213,15.3094388 80.42049,15.3094388 C77.4574762,15.3094388 75.6183712,13.3242075 75.6183712,10.1392763 C75.6183712,6.94445625 77.467365,4.87243125 80.332605,4.87243125 C83.150595,4.87243125 84.922695,6.80821875 84.922695,9.89647875 L84.922695,10.6127888 L77.7288487,10.6127888 L77.7288487,10.7391263 C77.6616833,11.4974118 77.9235205,12.2480094 78.4477574,12.7999912 C78.9719943,13.351973 79.7081034,13.6521375 80.4688425,13.6241325 C81.483415,13.7191946 82.4399584,13.1365999 82.821015,12.1915125 L84.806235,12.1915238 Z M77.7387177,9.15161625 L82.8308925,9.15161625 C82.8688336,8.47023468 82.6208061,7.80392597 82.1465663,7.31321049 C81.6723265,6.82249501 81.0148734,6.55186546 80.332605,6.56652375 C79.6449395,6.56242001 78.9841246,6.83317646 78.4970387,7.3186124 C78.0099529,7.80404834 77.7369558,8.46394078 77.7387177,9.15161625 L77.7387177,9.15161625 Z" id="Shape"></path>
                            </g>
                        </g>
                    </g>
                    <g id="_Group_4" transform="translate(39.375000, 9.000000)" fill="#000000">
                        <g id="Group">
                            <path d="M1.9555875,3.6600975 L2.85316875,3.6600975 C3.16554999,3.69899793 3.47996808,3.605518 3.72035686,3.40227303 C3.96074563,3.19902806 4.10520768,2.90453196 4.11879375,2.59003125 C4.11879375,1.970955 3.65297625,1.57105125 2.8630575,1.57105125 C2.54324226,1.52636369 2.2189427,1.61284304 1.96384302,1.8108403 C1.70874334,2.00883757 1.54450512,2.30153997 1.508445,2.6224425 L0.522945,2.6224425 C0.557233095,2.03959197 0.832127899,1.49718427 1.28190409,1.12490509 C1.73168029,0.752625906 2.31590521,0.583941294 2.894895,0.6591825 C4.216545,0.6591825 5.147145,1.39910625 5.147145,2.46423375 C5.15353296,3.19954712 4.64532399,3.8393794 3.927645,3.9995775 L3.927645,4.07867625 C4.78716927,4.11680015 5.45438733,4.84219586 5.42068875,5.701905 C5.35896594,6.30163727 5.05833791,6.85124869 4.58663595,7.2267294 C4.11493399,7.6022101 3.51190219,7.77192329 2.91360375,7.69757625 C2.31394863,7.77933105 1.70680683,7.61399118 1.23140653,7.23947193 C0.756006224,6.86495268 0.453133558,6.31338529 0.3922425,5.71125375 L1.39309875,5.71125375 C1.4535225,6.35340375 2.043495,6.76762875 2.91360375,6.76762875 C3.7837125,6.76762875 4.35171375,6.3023625 4.35171375,5.64647625 C4.35171375,4.9812525 3.816675,4.57146 2.88174375,4.57146 L1.9555875,4.57146 L1.9555875,3.6600975 Z" id="Path"></path>
                            <path d="M6.55776,6.10236 C6.55776,5.19049125 7.23781125,4.66480125 8.44191,4.59009 L9.81410625,4.51099125 L9.81410625,4.0737375 C9.81410625,3.53869875 9.46144125,3.23658 8.7770025,3.23658 C8.21890125,3.23658 7.83327375,3.44147625 7.7212125,3.79963125 L6.75331875,3.79963125 C6.85549125,2.92951125 7.67507625,2.37141 8.82424125,2.37141 C10.094265,2.37141 10.810575,3.00366 10.810575,4.0737375 L10.810575,7.53498 L9.84706875,7.53498 L9.84706875,6.82306875 L9.76797,6.82306875 C9.44109967,7.34296088 8.85981785,7.64680864 8.2463625,7.61844375 C7.81631564,7.66317579 7.38741504,7.52389949 7.06569279,7.2350465 C6.74397053,6.94619351 6.55945434,6.53472372 6.55776,6.10236 L6.55776,6.10236 Z M9.81410625,5.66949375 L9.81410625,5.24597625 L8.577,5.325075 C7.879365,5.3717625 7.56295875,5.60907 7.56295875,6.05566125 C7.56295875,6.51159 7.95846375,6.77691 8.50233375,6.77691 C8.82430039,6.80951407 9.14571386,6.71005334 9.3929922,6.50129759 C9.64027054,6.29254184 9.7922387,5.99236734 9.81410625,5.66949375 L9.81410625,5.66949375 Z" id="Shape"></path>
                            <polygon id="Path" points="13.4637637 3.31072875 13.4637637 7.53496875 12.46401 7.53496875 12.46401 2.4691725 15.7995 2.4691725 15.7995 3.3106725"></polygon>
                            <path d="M21.8584237,4.9998825 C21.8584237,6.609375 21.04434,7.6184775 19.76553,7.6184775 C19.1246002,7.66225255 18.5164605,7.33032412 18.2065725,6.76758375 L18.1274625,6.76758375 L18.1274625,9.21918375 L17.1277088,9.21918375 L17.1277088,2.46918375 L18.0901125,2.46918375 L18.0901125,3.306375 L18.1648237,3.306375 C18.4798472,2.72475597 19.0943883,2.36888917 19.7556413,2.38516875 C21.0443287,2.385135 21.8584237,3.3898275 21.8584237,4.9998825 Z M20.8301062,4.9998825 C20.8301062,3.92981625 20.3236312,3.2832675 19.4765962,3.2832675 C18.6350963,3.2832675 18.1087987,3.94354125 18.1087987,5.00428125 C18.1087987,6.06007125 18.63504,6.72089625 19.4721975,6.72089625 C20.3236312,6.72089625 20.8301062,6.07433625 20.8301062,4.9998825 Z" id="Shape"></path>
                            <path d="M23.1899625,9.34936875 L23.1899625,8.48858625 C23.2981511,8.50233402 23.4071618,8.50857395 23.5162125,8.50726125 C23.9572861,8.53993225 24.3521953,8.23522497 24.4324688,7.80028875 L24.50718,7.55364375 L22.673565,2.4691725 L23.7623063,2.4691725 L25.032375,6.492915 L25.1114737,6.492915 L26.3770987,2.4691725 L27.4372762,2.4691725 L25.54875,7.74426375 C25.1158837,8.97692625 24.6368813,9.3724425 23.604165,9.3724425 C23.5206562,9.3724425 23.2833487,9.36309375 23.1899625,9.34936875 Z" id="Path"></path>
                            <path d="M28.2162037,6.09741 L29.21157,6.09741 C29.3093438,6.544035 29.727945,6.77691 30.3134962,6.77691 C30.9792712,6.77691 31.3879613,6.4835775 31.3879613,6.02766 C31.3879613,5.53932 31.02102,5.30641125 30.3134962,5.30641125 L29.5554375,5.30641125 L29.5554375,4.5296775 L30.3003113,4.5296775 C30.90456,4.5296775 31.21218,4.29732 31.21218,3.8738025 C31.21218,3.50191125 30.9144487,3.2179275 30.3003113,3.2179275 C29.7411075,3.2179275 29.3324175,3.455235 29.2675613,3.85513875 L28.3041,3.85513875 C28.4539485,2.89918981 29.34175,2.23932142 30.3003112,2.3714325 C31.50441,2.3714325 32.1932587,2.91580875 32.1932587,3.77164125 C32.2048446,4.26278488 31.8714145,4.69514552 31.3934512,4.80875625 L31.3934512,4.887855 C31.9649982,4.96157759 32.3908824,5.45143679 32.3844187,6.0276825 C32.3844187,6.9906825 31.5648337,7.6278375 30.3134962,7.6278375 C29.2071713,7.6278375 28.3084988,7.12078875 28.2162037,6.09741 Z" id="Path"></path>
                            <polygon id="Path" points="33.8241825 7.53496875 33.8241825 2.4691725 34.81515 2.4691725 34.81515 5.9535 34.8942487 5.9535 37.2288487 2.46918375 38.2198162 2.46918375 38.2198162 7.53498 37.2288487 7.53498 37.2288487 4.032 37.1541375 4.032 34.81515 7.53499125"></polygon>
                            <polygon id="Path" points="43.6789125 3.31072875 42.0836625 3.31072875 42.0836625 7.53496875 41.0828062 7.53496875 41.0828062 3.31072875 39.4875562 3.31072875 39.4875562 2.46922875 43.6789125 2.46922875"></polygon>
                            <path d="M49.0644112,6.16717125 C48.7832565,7.12262708 47.858437,7.73978772 46.8682425,7.6327425 C46.1927497,7.65057449 45.5435634,7.37058356 45.0929294,6.86705843 C44.6422954,6.3635333 44.4357711,5.68737847 44.5281525,5.017995 C44.4382283,4.34675304 44.6439805,3.66951795 45.0921047,3.16174157 C45.5402289,2.6539652 46.1866298,2.3656126 46.8638437,2.3713875 C48.27339,2.3713875 49.124835,3.3343875 49.124835,4.9251375 L49.124835,5.274 L45.547695,5.274 L45.547695,5.330025 C45.5156607,5.70602204 45.6439152,6.07806077 45.9008465,6.3544415 C46.1577777,6.63082223 46.5194859,6.78583593 46.8968175,6.781275 C47.3855932,6.8397188 47.8612537,6.59711331 48.1009163,6.1671375 L49.0644112,6.16717125 Z M45.5476612,4.534605 L48.1052812,4.534605 C48.1308227,4.19098173 48.0101084,3.85254436 47.7728702,3.60264968 C47.535632,3.352755 47.2039197,3.21462919 46.8594337,3.2222925 C46.5100032,3.21753758 46.1734997,3.35429005 45.9264462,3.60145169 C45.6793926,3.84861333 45.5427873,4.18517652 45.547695,4.534605 L45.5476612,4.534605 Z" id="Shape"></path>
                            <path d="M53.3029388,2.4691725 L55.5869925,2.4691725 C56.57796,2.4691725 57.159135,2.97124875 57.159135,3.7572975 C57.1623103,4.27132203 56.8054593,4.71750074 56.3033025,4.82736375 L56.3033025,4.9064625 C56.9177139,4.94528121 57.3939605,5.45872179 57.3865537,6.07431375 C57.3865537,6.95815875 56.7218812,7.53494625 55.6100662,7.53494625 L53.3029388,7.53494625 L53.3029388,2.4691725 Z M54.2939063,3.2365575 L54.2939063,4.54831875 L55.2848738,4.54831875 C55.8891225,4.54831875 56.1780675,4.31596125 56.1780675,3.88749375 C56.1780675,3.49254 55.9264837,3.2365575 55.3958437,3.2365575 L54.2939063,3.2365575 Z M54.2939063,5.28332625 L54.2939063,6.76758375 L55.479375,6.76758375 C56.0704387,6.76758375 56.386845,6.5066625 56.386845,6.02766 C56.386845,5.520645 56.02869,5.28332625 55.354095,5.28332625 L54.2939063,5.28332625 Z" id="Shape"></path>
                        </g>
                    </g>
                </g>
            </g>
        </g>
    </g>
</svg>