<?xml version="1.0" encoding="UTF-8"?>
<svg width="120px" height="40px" viewBox="0 0 120 40" version="1.1" xmlns="http://www.w3.org/2000/svg" xmlns:xlink="http://www.w3.org/1999/xlink">
    <!-- Generator: Sketch 52.6 (67491) - http://www.bohemiancoding.com/sketch -->
    <title>Download_on_the_App_Store_Badge_RU_RGB_wht_100317</title>
    <desc>Created with Sketch.</desc>
    <g id="www" stroke="none" stroke-width="1" fill="none" fill-rule="evenodd">
        <g id="Tab" transform="translate(-323.000000, -683.000000)" fill-rule="nonzero">
            <g id="Download_on_the_App_Store_Badge_RU_RGB_wht_100317" transform="translate(323.000000, 683.000000)">
                <g id="Group">
                    <g id="Path">
                        <path d="M110.13477,0 L9.53468,0 C9.16798,0 8.80568,0 8.43995,0.002 C8.1338,0.004 7.83009,0.00981 7.521,0.0147 C6.84951368,0.0226018036 6.17960647,0.0816762599 5.5171,0.19141 C4.85552408,0.303532628 4.21467252,0.51491574 3.61622,0.81841 C3.01849941,1.12447171 2.47234502,1.52216753 1.99757,1.99707 C1.5203025,2.47063699 1.12246318,3.01801638 0.81935,3.61816 C0.515400242,4.21710912 0.304640498,4.8589383 0.19435,5.52148 C0.0830109412,6.18318491 0.0230983806,6.85252054 0.01515,7.52348 C0.00587,7.83008 0.00489,8.1377 0,8.44434 L0,31.5586 C0.00489,31.8691 0.00587,32.1699 0.01515,32.4805 C0.023100818,33.1514262 0.0830133796,33.8207284 0.19435,34.4824 C0.304335953,35.145329 0.515108158,35.7875266 0.81935,36.3867 C1.12232555,36.9849029 1.52022081,37.5300662 1.99757,38.001 C2.47054482,38.478014 3.01705224,38.8759804 3.61622,39.1797 C4.21466797,39.4840065 4.85545044,39.6966478 5.5171,39.8105 C6.1797191,39.9193547 6.84955741,39.9784532 7.521,39.9873 C7.83009,39.9941 8.1338,39.998 8.43995,39.998 C8.80567,40 9.168,40 9.53468,40 L110.13477,40 C110.49417,40 110.85937,40 111.21877,39.998 C111.52347,39.998 111.83597,39.9941 112.14067,39.9873 C112.810843,39.9789237 113.47942,39.9198215 114.14067,39.8105 C114.804454,39.6958464 115.447534,39.4832614 116.04887,39.1797 C116.647497,38.8758046 117.1935,38.4778491 117.66607,38.001 C118.142188,37.5282218 118.540932,36.9834573 118.84767,36.3867 C119.149629,35.7870908 119.358395,35.1449445 119.46677,34.4824 C119.578285,33.8206376 119.640323,33.1514843 119.65237,32.4805 C119.65627,32.1699 119.65627,31.8691 119.65627,31.5586 C119.66407,31.1953 119.66407,30.834 119.66407,30.4648 L119.66407,9.53613 C119.66407,9.16992 119.66407,8.80664 119.65627,8.44434 C119.65627,8.1377 119.65627,7.83008 119.65237,7.52344 C119.640326,6.85242244 119.578287,6.18323567 119.46677,5.52144 C119.358093,4.8592816 119.149339,4.21750328 118.84767,3.61812 C118.230394,2.41519608 117.251573,1.4360254 116.04887,0.81832 C115.447532,0.51556738 114.804383,0.30424041 114.14067,0.19132 C113.479535,0.0811027831 112.810888,0.0220077649 112.14067,0.01456 C111.83597,0.00968 111.52347,0.00382 111.21877,0.00187 C110.85937,-0.00013 110.49417,-0.00013 110.13477,-0.00013 L110.13477,0 Z" fill="#000000"></path>
                        <path d="M8.44483,39.125 C8.14015,39.125 7.84283,39.1211 7.54054,39.1143 C6.91432177,39.1061407 6.28956717,39.051625 5.6714,38.9512 C5.0949903,38.8519282 4.53660424,38.6672645 4.01466,38.4033 C3.4975017,38.1415227 3.02581177,37.7982729 2.61766,37.3867 C2.20360033,36.9799753 1.85887673,36.508244 1.59715,35.9902 C1.33253926,35.4687891 1.14941288,34.9098996 1.05415,34.333 C0.951274358,33.7131149 0.895614374,33.0863132 0.88765,32.458 C0.88131,32.2471 0.87301,31.5449 0.87301,31.5449 L0.87301,8.44434 C0.87301,8.44434 0.88185,7.75293 0.8877,7.5498 C0.895325827,6.92248205 0.950662148,6.2966531 1.05323,5.67773 C1.14866872,5.09925008 1.33193687,4.53874887 1.59669,4.01563 C1.85745482,3.49794385 2.20026458,3.02586029 2.61183,2.61768 C3.02293283,2.20562142 3.49613161,1.86060412 4.01417,1.59521 C4.53491467,1.3320936 5.09224545,1.14873255 5.66749,1.05127 C6.28768733,0.949836139 6.91461084,0.894996084 7.543,0.88721 L8.44532,0.875 L111.21387,0.875 L112.12697,0.8877 C112.749643,0.895099198 113.370872,0.949450006 113.98537,1.05029 C114.566438,1.14897507 115.129577,1.33361553 115.65627,1.59814 C116.694088,2.13298605 117.538542,2.97916295 118.07127,4.01807 C118.331797,4.53757756 118.512239,5.09350676 118.60647,5.66699 C118.710259,6.29099138 118.768347,6.92173834 118.78027,7.5542 C118.78317,7.8374 118.78317,8.1416 118.78317,8.44434 C118.79107,8.81934 118.79107,9.17627 118.79107,9.53613 L118.79107,30.4648 C118.79107,30.8281 118.79107,31.1826 118.78317,31.54 C118.78317,31.8652 118.78317,32.1631 118.77927,32.4697 C118.767605,33.0908757 118.710486,33.7103642 118.60837,34.3232 C118.51506,34.9042612 118.33293,35.4675131 118.06837,35.9932 C117.804793,36.5056211 117.462049,36.9732662 117.05277,37.3789 C116.644251,37.7926846 116.171729,38.1379427 115.65337,38.4014 C115.128136,38.6673937 114.565826,38.8527403 113.98537,38.9512 C113.36725,39.052161 112.742435,39.1066802 112.11617,39.1143 C111.82327,39.1211 111.51657,39.125 111.21877,39.125 L110.13477,39.127 L8.44483,39.125 Z" fill="#FFFFFF"></path>
                    </g>
                    <g id="_Group_" transform="translate(9.000000, 7.000000)" fill="#000000">
                        <g id="_Group_2">
                            <g id="_Group_3">
                                <path d="M15.99671,12.88935 C16.0194402,11.1251965 16.94431,9.4956559 18.44729,8.57164 C17.4948204,7.211346 15.9566895,6.37981052 14.2969,6.32788 C12.55066,6.14458 10.85777,7.3728 9.9679,7.3728 C9.06083,7.3728 7.69077,6.34608 6.21543,6.37643 C4.27427913,6.43914505 2.50846997,7.5160473 1.56406,9.21313 C-0.44705,12.69513 1.05306,17.81252 2.97957,20.62713 C3.94345,22.00536 5.06994,23.54487 6.54395,23.49028 C7.98635,23.43045 8.52506,22.57051 10.26615,22.57051 C11.99109,22.57051 12.4965,23.49028 14.00042,23.45557 C15.54819,23.43045 16.52334,22.07122 17.45342,20.67994 C18.1459669,19.6979035 18.6788802,18.6125388 19.03242,17.46405 C17.1941431,16.6865494 15.9988493,14.885287 15.99671,12.88935 Z" id="_Path_"></path>
                                <path d="M13.15611,4.47681 C14.000021,3.46373521 14.4157857,2.16159511 14.31511,0.84692 C13.0258135,0.982334929 11.8348645,1.59853425 10.97956,2.57274 C10.134985,3.53392609 9.70712564,4.79141544 9.79022,6.06824 C11.0967983,6.08168935 12.3373661,5.49513519 13.15611,4.47681 Z" id="_Path_2"></path>
                            </g>
                        </g>
                        <g id="Group" transform="translate(25.000000, 10.000000)">
                            <path d="M8.30178,10.13965 L3.56838,10.13965 L2.43166,13.4961 L0.42678,13.4961 L4.91018,1.0781 L6.99318,1.0781 L11.47658,13.4961 L9.43752,13.4961 L8.30178,10.13965 Z M4.05862,8.59082 L7.81062,8.59082 L5.961,3.14355 L5.9092,3.14355 L4.05862,8.59082 Z" id="Shape"></path>
                            <path d="M21.1592,8.96973 C21.1592,11.78321 19.65334,13.59082 17.38088,13.59082 C16.2062653,13.6522646 15.0998424,13.0370307 14.53225,12.00682 L14.48925,12.00682 L14.48925,16.4912 L12.63085,16.4912 L12.63085,4.44238 L14.42968,4.44238 L14.42968,5.94824 L14.46386,5.94824 C15.0566683,4.92448792 16.1642843,4.30951884 17.34667,4.34765 C19.64455,4.34766 21.1592,6.16406 21.1592,8.96973 Z M19.24904,8.96973 C19.24904,7.13673 18.30177,5.93164 16.85646,5.93164 C15.43654,5.93164 14.48146,7.16211 14.48146,8.96973 C14.48146,10.79395 15.43654,12.01563 16.85646,12.01563 C18.30178,12.01563 19.249,10.81934 19.249,8.96973 L19.24904,8.96973 Z" id="Shape"></path>
                            <path d="M31.12453,8.96973 C31.12453,11.78321 29.61818,13.59082 27.34572,13.59082 C26.1711053,13.6522646 25.0646824,13.0370307 24.49709,12.00682 L24.45409,12.00682 L24.45409,16.4912 L22.59569,16.4912 L22.59569,4.44238 L24.39452,4.44238 L24.39452,5.94824 L24.4287,5.94824 C25.0215083,4.92448792 26.1291243,4.30951884 27.31151,4.34765 C29.6094,4.34766 31.12453,6.16406 31.12453,8.96973 Z M29.21389,8.96973 C29.21389,7.13673 28.26662,5.93164 26.82131,5.93164 C25.40139,5.93164 24.44631,7.16211 24.44631,8.96973 C24.44631,10.79395 25.40139,12.01563 26.82131,12.01563 C28.26662,12.01563 29.21389,10.81934 29.21389,8.96973 Z" id="Shape"></path>
                            <path d="M37.70949,10.03613 C37.84719,11.26758 39.04349,12.07613 40.67824,12.07613 C42.24465,12.07613 43.3716,11.26754 43.3716,10.15718 C43.3716,9.19331 42.69191,8.61618 41.08254,8.22066 L39.47317,7.83296 C37.1929,7.28218 36.1343,6.21577 36.1343,4.4853 C36.1343,2.34272 38.00149,0.87104 40.65188,0.87104 C43.27688,0.87104 45.07571,2.34272 45.13626,4.4853 L43.26026,4.4853 C43.14796,3.24604 42.12354,2.498 40.62647,2.498 C39.1294,2.498 38.10499,3.25484 38.10499,4.3564 C38.10499,5.23433 38.75929,5.75093 40.35987,6.1464 L41.72803,6.48234 C44.27588,7.08488 45.3335,8.10834 45.3335,9.92472 C45.3335,12.24796 43.48389,13.70304 40.5405,13.70304 C37.78659,13.70304 35.92722,12.28214 35.8071,10.03604 L37.70949,10.03613 Z" id="Path"></path>
                            <path d="M49.34621,2.2998 L49.34621,4.44238 L51.06789,4.44238 L51.06789,5.91406 L49.34621,5.91406 L49.34621,10.90527 C49.34621,11.68066 49.69094,12.04199 50.44777,12.04199 C50.6521614,12.0384259 50.8562221,12.0240726 51.0591,11.99899 L51.0591,13.46188 C50.7188283,13.5254596 50.3729708,13.5542545 50.02687,13.54782 C48.19387,13.54782 47.47902,12.85934 47.47902,11.10348 L47.47902,5.91406 L46.16262,5.91406 L46.16262,4.44238 L47.479,4.44238 L47.479,2.2998 L49.34621,2.2998 Z" id="Path"></path>
                            <path d="M52.064,8.96973 C52.064,6.1211 53.74173,4.33106 56.35795,4.33106 C58.98295,4.33106 60.65287,6.12106 60.65287,8.96973 C60.65287,11.82618 58.99174,13.6084 56.35795,13.6084 C53.72512,13.6084 52.064,11.82617 52.064,8.96973 Z M58.75931,8.96973 C58.75931,7.01563 57.8638,5.86231 56.35794,5.86231 C54.85208,5.86231 53.95657,7.02442 53.95657,8.96973 C53.95657,10.93164 54.85208,12.07618 56.35794,12.07618 C57.8638,12.07618 58.7593,10.93164 58.7593,8.96973 L58.75931,8.96973 Z" id="Shape"></path>
                            <path d="M62.18508,4.44238 L63.95754,4.44238 L63.95754,5.98338 L64.00054,5.98338 C64.247716,4.99136841 65.1566726,4.30863156 66.17827,4.34764 C66.392434,4.34689223 66.6060072,4.37015075 66.81499,4.41698 L66.81499,6.15526 C66.544621,6.07264332 66.2625796,6.03471129 65.97999,6.04296 C65.4336382,6.02079544 64.9048909,6.23853473 64.5325815,6.63900597 C64.160272,7.03947722 63.9815966,7.58267074 64.04347,8.12596 L64.04347,13.49608 L62.18507,13.49608 L62.18508,4.44238 Z" id="Path"></path>
                            <path d="M75.38332,10.83691 C75.13332,12.48046 73.53273,13.60839 71.48488,13.60839 C68.85109,13.60839 67.21633,11.84374 67.21633,9.01269 C67.21633,6.17285 68.85988,4.33105 71.40676,4.33105 C73.91164,4.33105 75.48684,6.05175 75.48684,8.79687 L75.48684,9.43359 L69.09231,9.43359 L69.09231,9.54589 C69.0326074,10.2199216 69.2653516,10.8871194 69.7313399,11.3777699 C70.1973283,11.8684204 70.8516475,12.1352333 71.52786,12.11034 C72.4297023,12.1948396 73.2799631,11.6769777 73.61868,10.8369 L75.38332,10.83691 Z M69.1010824,8.13477 L73.62746,8.13476 C73.6611855,7.52909749 73.4407165,6.93682308 73.0191701,6.50063155 C72.5976236,6.06444001 72.0132208,5.82388041 71.40676,5.83691 C70.7955018,5.83326223 70.2081107,6.07393463 69.7751455,6.50543324 C69.3421803,6.93693186 69.0995163,7.52350292 69.1010824,8.13477 Z" id="Shape"></path>
                        </g>
                    </g>
                </g>
                <g id="_Group_4" transform="translate(35.000000, 8.000000)" fill="#000000">
                    <g id="Group">
                        <path d="M1.7383,3.25342 L2.53615,3.25342 C2.81382221,3.28799816 3.09330496,3.20490489 3.30698387,3.0242427 C3.52066278,2.8435805 3.64907349,2.58180619 3.66115,2.30225 C3.66115,1.75196 3.24709,1.39649 2.54494,1.39649 C2.26065979,1.35676772 1.97239351,1.43363826 1.74563824,1.60963583 C1.51888297,1.7856334 1.37289344,2.04581331 1.34084,2.33106 L0.46484,2.33106 C0.495318307,1.81297064 0.739669244,1.33083047 1.1394703,0.999915635 C1.53927136,0.669000806 2.05858241,0.519058928 2.57324,0.58594 C3.74804,0.58594 4.57524,1.24365 4.57524,2.19043 C4.58091819,2.84404189 4.12917688,3.41278169 3.49124,3.55518 L3.49124,3.62549 C4.25526157,3.65937791 4.84834429,4.3041741 4.81839,5.06836 C4.76352528,5.60145535 4.49630037,6.08999884 4.07700973,6.42375946 C3.6577191,6.75752009 3.12169083,6.90837626 2.58987,6.84229 C2.05684323,6.91496094 1.51716162,6.76799216 1.09458358,6.43508616 C0.672005532,6.10218016 0.402785384,5.61189804 0.34866,5.07667 L1.23831,5.07667 C1.29202,5.64747 1.81644,6.01567 2.58987,6.01567 C3.3633,6.01567 3.86819,5.6021 3.86819,5.01909 C3.86819,4.42778 3.3926,4.06352 2.56155,4.06352 L1.7383,4.06352 L1.7383,3.25342 Z" id="Path"></path>
                        <path d="M5.82912,5.42432 C5.82912,4.61377 6.43361,4.14649 7.50392,4.08008 L8.72365,4.00977 L8.72365,3.6211 C8.72365,3.14551 8.41017,2.87696 7.80178,2.87696 C7.30569,2.87696 6.96291,3.05909 6.8633,3.37745 L6.00295,3.37745 C6.09377,2.60401 6.82229,2.10792 7.84377,2.10792 C8.97268,2.10792 9.6094,2.66992 9.6094,3.6211 L9.6094,6.69776 L8.75295,6.69776 L8.75295,6.06495 L8.68264,6.06495 C8.3920886,6.52707633 7.87539364,6.79716323 7.3301,6.77195 C6.94783612,6.81171181 6.56659115,6.68791066 6.28061581,6.43115244 C5.99464047,6.17439423 5.83062608,5.80864331 5.82912,5.42432 Z M8.72365,5.03955 L8.72365,4.66309 L7.624,4.7334 C7.00388,4.7749 6.72263,4.98584 6.72263,5.38281 C6.72263,5.78808 7.07419,6.02392 7.55763,6.02392 C7.84382257,6.0529014 8.12952343,5.96449186 8.3493264,5.77893119 C8.56912937,5.59337052 8.70421218,5.32654874 8.72365,5.03955 Z" id="Shape"></path>
                        <polygon id="Path" points="11.96779 2.94287 11.96779 6.69775 11.07912 6.69775 11.07912 2.19482 14.044 2.19482 14.044 2.94282"></polygon>
                        <path d="M19.42971,4.44434 C19.42971,5.875 18.70608,6.77198 17.56936,6.77198 C16.9996446,6.81089115 16.459076,6.51584366 16.18362,6.01563 L16.1133,6.01563 L16.1133,8.19483 L15.22463,8.19483 L15.22463,2.19483 L16.0801,2.19483 L16.0801,2.939 L16.14651,2.939 C16.4265308,2.42200531 16.9727896,2.10567926 17.56057,2.12015 C18.70607,2.12012 19.42971,3.01318 19.42971,4.44434 Z M18.51565,4.44434 C18.51565,3.49317 18.06545,2.91846 17.31253,2.91846 C16.56453,2.91846 16.09671,3.50537 16.09671,4.44825 C16.09671,5.38673 16.56448,5.97413 17.30862,5.97413 C18.06545,5.97412 18.51565,5.39941 18.51565,4.44434 Z" id="Shape"></path>
                        <path d="M20.6133,8.31055 L20.6133,7.54541 C20.7094676,7.55763024 20.8063661,7.56317684 20.9033,7.56201 C21.2953654,7.59105089 21.6463959,7.32019997 21.71775,6.93359 L21.78416,6.71435 L20.15428,2.19482 L21.12205,2.19482 L22.251,5.77148 L22.32131,5.77148 L23.44631,2.19482 L24.38869,2.19482 L22.71,6.88379 C22.32523,7.97949 21.89945,8.33106 20.98148,8.33106 C20.90725,8.33105 20.69631,8.32275 20.6133,8.31055 Z" id="Path"></path>
                        <path d="M25.08107,5.41992 L25.96584,5.41992 C26.05275,5.81692 26.42484,6.02392 26.94533,6.02392 C27.53713,6.02392 27.90041,5.76318 27.90041,5.35792 C27.90041,4.92384 27.57424,4.71681 26.94533,4.71681 L26.2715,4.71681 L26.2715,4.02638 L26.93361,4.02638 C27.47072,4.02638 27.74416,3.81984 27.74416,3.44338 C27.74416,3.11281 27.47951,2.86038 26.93361,2.86038 C26.43654,2.86038 26.07326,3.07132 26.01561,3.42679 L25.1592,3.42679 C25.2923987,2.57705761 26.0815556,1.99050793 26.93361,2.10794 C28.00392,2.10794 28.61623,2.59183 28.61623,3.35257 C28.6265285,3.78914212 28.3301463,4.17346269 27.90529,4.27445 L27.90529,4.34476 C28.4133317,4.41029119 28.7918955,4.84572159 28.78615,5.35794 C28.78615,6.21394 28.05763,6.7803 26.94533,6.7803 C25.96193,6.78027 25.16311,6.32959 25.08107,5.41992 Z" id="Path"></path>
                        <polygon id="Path" points="30.06594 6.69775 30.06594 2.19482 30.9468 2.19482 30.9468 5.292 31.01711 5.292 33.09231 2.19483 33.97317 2.19483 33.97317 6.69776 33.09231 6.69776 33.09231 3.584 33.0259 3.584 30.9468 6.69777"></polygon>
                        <polygon id="Path" points="38.8257 2.94287 37.4077 2.94287 37.4077 6.69775 36.51805 6.69775 36.51805 2.94287 35.10005 2.94287 35.10005 2.19487 38.8257 2.19487"></polygon>
                        <path d="M43.61281,5.48193 C43.3628947,6.33122407 42.5408329,6.8798113 41.66066,6.78466 C41.0602219,6.80051066 40.4831675,6.55162983 40.0826039,6.10405194 C39.6820404,5.65647405 39.4984632,5.05544753 39.58058,4.46044 C39.5006474,3.86378048 39.6835382,3.26179373 40.0818708,2.81043696 C40.4802034,2.35908018 41.054782,2.10276675 41.65675,2.1079 C42.90968,2.1079 43.66652,2.9639 43.66652,4.3779 L43.66652,4.688 L40.48684,4.688 L40.48684,4.7378 C40.4583651,5.07201959 40.5723691,5.40272069 40.8007524,5.64839244 C41.0291357,5.8940642 41.3506541,6.03185416 41.68606,6.0278 C42.1205273,6.07975005 42.5433366,5.86410072 42.75637,5.4819 L43.61281,5.48193 Z M40.48681,4.03076 L42.76025,4.03076 C42.7829535,3.72531709 42.6756519,3.42448388 42.4647735,3.20235527 C42.2538951,2.98022667 41.9590398,2.85744817 41.65283,2.86426 C41.342225,2.8600334 41.0431109,2.98159116 40.8235077,3.20129039 C40.6039045,3.42098963 40.4824776,3.72015691 40.48684,4.03076 L40.48681,4.03076 Z" id="Shape"></path>
                        <path d="M47.38039,2.19482 L49.41066,2.19482 C50.29152,2.19482 50.80812,2.64111 50.80812,3.33982 C50.8109425,3.79673069 50.4937416,4.19333399 50.04738,4.29099 L50.04738,4.3613 C50.5935235,4.39580552 51.0168538,4.85219715 51.01027,5.39939 C51.01027,6.18503 50.41945,6.69773 49.43117,6.69773 L47.38039,6.69773 L47.38039,2.19482 Z M48.26125,2.87694 L48.26125,4.04295 L49.14211,4.04295 C49.67922,4.04295 49.93606,3.83641 49.93606,3.45555 C49.93606,3.10448 49.71243,2.87694 49.24075,2.87694 L48.26125,2.87694 Z M48.26125,4.69629 L48.26125,6.01563 L49.315,6.01563 C49.84039,6.01563 50.12164,5.7837 50.12164,5.35792 C50.12164,4.90724 49.80328,4.6963 49.20364,4.6963 L48.26125,4.69629 Z" id="Shape"></path>
                    </g>
                </g>
            </g>
        </g>
    </g>
</svg>