<?xml version="1.0" encoding="UTF-8"?>
<svg width="156px" height="34px" viewBox="0 0 156 34" version="1.1" xmlns="http://www.w3.org/2000/svg" xmlns:xlink="http://www.w3.org/1999/xlink">
    <!-- Generator: Sketch 52.6 (67491) - http://www.bohemiancoding.com/sketch -->
    <title>∞</title>
    <desc>Created with Sketch.</desc>
    <g id="www" stroke="none" stroke-width="1" fill="none" fill-rule="evenodd">
        <g id="Tab" transform="translate(-306.000000, -49.000000)" fill="#000000" fill-rule="nonzero">
            <g id="Group-13" transform="translate(257.000000, 49.000000)">
                <path d="M178.651688,22.8975381 C178.651688,23.4446872 178.520724,23.906423 178.259732,24.2814849 C177.998116,24.656862 177.671642,24.9657364 177.279998,25.2090539 C176.88773,25.4523713 176.470517,25.6250889 176.02867,25.7262611 C175.586199,25.8280636 175.173975,25.8784921 174.792309,25.8784921 C174.49078,25.8784921 174.153704,25.8479198 173.782328,25.7870904 C173.409705,25.7262611 173.068576,25.6197309 172.757069,25.4674999 C172.44525,25.3155841 172.178957,25.1078817 171.957878,24.8440777 C171.736487,24.580904 171.626415,24.2562707 171.626415,23.8708079 C171.626415,23.4251461 171.701875,23.0447262 171.852483,22.7301785 C172.003403,22.415946 172.209204,22.1625429 172.470819,21.9696539 C172.731812,21.7770801 173.033028,21.6251643 173.375093,21.5132761 C173.716847,21.4023334 174.068578,21.3153443 174.430599,21.2548301 C175.194243,21.1133152 175.957575,21.006785 176.722154,20.9352396 C177.485798,20.8646397 178.128768,20.6569373 178.651688,20.3118174 L178.651688,22.8975381 Z M183.264733,25.8784921 L182.903023,25.8784921 C182.581538,25.8784921 182.364824,25.7870904 182.254752,25.6046023 C182.144057,25.4221143 182.088865,25.1179674 182.088865,24.6918467 L182.088865,16.600911 C182.088865,15.7694714 181.90801,15.0647332 181.5463,14.4866967 C181.184279,13.9086602 180.706885,13.437469 180.113806,13.0724928 C179.520727,12.7072014 178.852499,12.4440278 178.109124,12.2813959 C177.365124,12.1193944 176.611147,12.0380785 175.847503,12.0380785 C174.98283,12.0380785 174.138737,12.1193944 173.314912,12.2813959 C172.490152,12.4440278 171.751766,12.727688 171.098506,13.1333222 C170.445246,13.5392715 169.90767,14.0760197 169.485468,14.7454579 C169.063577,15.4145809 168.82223,16.2564214 168.761737,17.270034 L172.199225,17.270034 C172.279051,16.418423 172.631094,15.7899579 173.25442,15.3840086 C173.877121,14.9786896 174.671635,14.775715 175.636402,14.775715 C175.978155,14.775715 176.339865,14.8015596 176.722154,14.8519881 C177.103509,14.9027317 177.450251,15.0039039 177.76207,15.1561349 C178.073576,15.3080507 178.33488,15.5261539 178.545982,15.8101293 C178.757083,16.0941047 178.862789,16.4590809 178.862789,16.9050579 C178.862789,17.4121793 178.736815,17.7922841 178.485801,18.0456872 C178.234163,18.2994055 177.892722,18.4866213 177.460853,18.6085952 C177.028049,18.7299388 176.530698,18.8166127 175.968177,18.8670412 C175.405344,18.9177849 174.812265,19.0038285 174.189252,19.1254872 C173.465521,19.2068031 172.746779,19.323419 172.033338,19.4753348 C171.319585,19.6275658 170.676615,19.8759261 170.103804,20.2207309 C169.530682,20.5658509 169.068255,21.0417697 168.716835,21.6503786 C168.364792,22.2586722 168.188926,23.0494539 168.188926,24.0227237 C168.188926,24.7939644 168.334545,25.4674999 168.626408,26.0455364 C168.917334,26.623573 169.30929,27.1004374 169.802276,27.4751841 C170.294325,27.8508763 170.862459,28.1345365 171.505741,28.3271103 C172.149023,28.5196841 172.822239,28.6161286 173.526014,28.6161286 C174.450244,28.6161286 175.410334,28.4638976 176.405347,28.1597508 C177.40036,27.8552888 178.239464,27.3689691 178.92297,26.6995309 C179.063289,27.409627 179.364817,27.9066628 179.827556,28.1900079 C180.289671,28.4736681 180.87246,28.6161286 181.576235,28.6161286 C181.716865,28.6161286 181.887742,28.6054125 182.088865,28.5855563 C182.289676,28.5650697 182.491111,28.5348127 182.691922,28.4944699 C182.892733,28.4534967 183.088555,28.4077959 183.280012,28.3573674 C183.470845,28.3066237 183.626754,28.2612381 183.747428,28.2205801 L183.747428,25.8176627 C183.566573,25.8586358 183.405051,25.8784921 183.264733,25.8784921 Z M166.876793,12.463884 L162.655393,12.463884 L156.444278,18.8213404 L156.444278,12.463884 L153.007101,12.463884 L153.007101,28.1900079 L156.444278,28.1900079 L156.444278,22.562819 L158.494485,20.5551348 L163.258762,28.1900079 L167.449604,28.1900079 L160.906714,18.2433039 L166.876793,12.463884 Z M138.91477,23.2621991 L138.854589,23.2621991 L138.854589,12.463884 L135.417413,12.463884 L135.417413,28.1900079 L139.518139,28.1900079 L146.513478,17.3006063 L146.573659,17.3006063 L146.573659,28.1900079 L150.010836,28.1900079 L150.010836,12.463884 L145.759501,12.463884 L138.91477,23.2621991 Z M119.493771,15.0496047 L124.860793,15.0496047 L124.860793,28.1900079 L128.298282,28.1900079 L128.298282,15.0496047 L133.453891,15.0496047 L133.453891,12.463884 L119.493771,12.463884 L119.493771,15.0496047 Z M118.593863,12.463884 L114.372462,12.463884 L108.161347,18.8213404 L108.161347,12.463884 L104.723858,12.463884 L104.723858,28.1900079 L108.161347,28.1900079 L108.161347,22.562819 L110.211554,20.5551348 L114.975519,28.1900079 L119.166362,28.1900079 L112.623783,18.2433039 L118.593863,12.463884 Z M97.4297973,22.8975381 C97.4297973,23.4446872 97.2988335,23.906423 97.0378413,24.2814849 C96.7762255,24.656862 96.4497514,24.9657364 96.0581072,25.2090539 C95.6658394,25.4523713 95.248626,25.6250889 94.8064672,25.7262611 C94.3643084,25.8280636 93.9520842,25.8784921 93.5704182,25.8784921 C93.2688896,25.8784921 92.9321255,25.8479198 92.5604377,25.7870904 C92.1881263,25.7262611 91.8466849,25.6197309 91.5351781,25.4674999 C91.2233595,25.3155841 90.9570664,25.1078817 90.7362988,24.8440777 C90.5149076,24.580904 90.4045238,24.2562707 90.4045238,23.8708079 C90.4045238,23.4251461 90.4796721,23.0447262 90.6305923,22.7301785 C90.7815125,22.415946 90.9873128,22.1625429 91.2486168,21.9696539 C91.509609,21.7770801 91.8111376,21.6251643 92.1532026,21.5132761 C92.4949558,21.4023334 92.8466872,21.3153443 93.2083968,21.2548301 C93.9723524,21.1133152 94.7359962,21.006785 95.4999519,20.9352396 C96.2639075,20.8646397 96.9068775,20.6569373 97.4297973,20.3118174 L97.4297973,22.8975381 Z M101.681132,25.8784921 C101.359336,25.8784921 101.143245,25.7870904 101.032861,25.6046023 C100.922166,25.4221143 100.866974,25.1179674 100.866974,24.6918467 L100.866974,16.600911 C100.866974,15.7694714 100.686119,15.0647332 100.32441,14.4866967 C99.9627,13.9086602 99.484682,13.437469 98.8922266,13.0724928 C98.2991476,12.7072014 97.6306085,12.4440278 96.8869211,12.2813959 C96.1432337,12.1193944 95.3895681,12.0380785 94.6256124,12.0380785 C93.7612512,12.0380785 92.9168464,12.1193944 92.0930216,12.2813959 C91.2685732,12.4440278 90.5298749,12.727688 89.8769267,13.1333222 C89.2233548,13.5392715 88.6857795,14.0760197 88.2635771,14.7454579 C87.8416865,15.4145809 87.6003389,16.2564214 87.5401579,17.270034 L90.9773346,17.270034 C91.057472,16.418423 91.4095152,15.7899579 92.0325288,15.3840086 C92.6555424,14.9786896 93.4497444,14.775715 94.4148231,14.775715 C94.7562644,14.775715 95.117974,14.8015596 95.4999519,14.8519881 C95.8816178,14.9027317 96.2283602,15.0039039 96.5401788,15.1561349 C96.8516856,15.3080507 97.1133014,15.5261539 97.3244026,15.8101293 C97.535192,16.0941047 97.6408985,16.4590809 97.6408985,16.9050579 C97.6408985,17.4121793 97.5149238,17.7922841 97.2639098,18.0456872 C97.012584,18.2994055 96.6708308,18.4866213 96.238962,18.6085952 C95.8061577,18.7299388 95.308807,18.8166127 94.7462863,18.8670412 C94.1831418,18.9177849 93.5900628,19.0038285 92.967361,19.1254872 C92.2439418,19.2068031 91.5248881,19.323419 90.8114471,19.4753348 C90.0976942,19.6275658 89.4547243,19.8759261 88.8819134,20.2207309 C88.3087908,20.5658509 87.8463638,21.0417697 87.4949442,21.6503786 C87.142901,22.2586722 86.9673471,23.0494539 86.9673471,24.0227237 C86.9673471,24.7939644 87.1129664,25.4674999 87.4045168,26.0455364 C87.6954436,26.623573 88.0877114,27.1004374 88.5803848,27.4751841 C89.0727464,27.8508763 89.6402563,28.1345365 90.28385,28.3271103 C90.92682,28.5196841 91.6003482,28.6161286 92.3041228,28.6161286 C93.2283532,28.6161286 94.1884427,28.4638976 95.183456,28.1597508 C96.1784692,27.8552888 97.0175731,27.3689691 97.7010795,26.6995309 C97.8417097,27.409627 98.1432383,27.9066628 98.6056653,28.1900079 C99.0677805,28.4736681 99.6508813,28.6161286 100.354344,28.6161286 C100.494974,28.6161286 100.665851,28.6054125 100.866974,28.5855563 C101.067785,28.5650697 101.268908,28.5348127 101.470343,28.4944699 C101.670842,28.4534967 101.866664,28.4077959 102.058121,28.3573674 C102.248954,28.3066237 102.404863,28.2612381 102.525537,28.2205801 L102.525537,25.8176627 C102.344371,25.8586358 102.183472,25.8784921 102.042842,25.8784921 L101.681132,25.8784921 Z M81.6187223,22.3652024 C81.4681139,23.0242397 81.2164763,23.6123619 80.8650567,24.1292539 C80.5133253,24.6464611 80.0658656,25.0675389 79.5233012,25.391542 C78.980425,25.7161754 78.3171867,25.8784921 77.5332747,25.8784921 C76.8295001,25.8784921 76.2114756,25.7366619 75.6792012,25.4523713 C75.1463032,25.1687111 74.6885535,24.7832483 74.3071993,24.2966134 C73.9252215,23.8099785 73.6386602,23.2272143 73.4478272,22.5476905 C73.2566823,21.8681666 73.1612658,21.1331714 73.1612658,20.3423897 C73.1612658,18.6593389 73.5279645,17.3110072 74.2619856,16.2967642 C74.995383,15.2828365 76.0861245,14.775715 77.5332747,14.775715 C78.2367375,14.775715 78.860063,14.9329888 79.4026274,15.2472213 C79.9455036,15.5620842 80.3976406,15.9771737 80.759662,16.4943809 C81.1213716,17.011588 81.3926538,17.6047531 81.5735086,18.2738761 C81.7543634,18.9429991 81.8451026,19.6326087 81.8451026,20.3423897 C81.8451026,21.0319992 81.7696425,21.7064802 81.6187223,22.3652024 Z M83.4731076,14.4866967 C82.8700504,13.7261721 82.1113957,13.1282793 81.1968317,12.6920729 C80.2816441,12.2561817 79.2114826,12.0380785 77.9857236,12.0380785 C76.9801085,12.0380785 76.0455881,12.2356951 75.1815387,12.6312435 C74.3168657,13.026792 73.6436493,13.6807864 73.1612658,14.5932269 L73.1010849,14.5932269 L73.1010849,12.463884 L69.844763,12.463884 L69.844763,34 L73.2819397,34 L73.2819397,26.1520666 L73.3421206,26.1520666 C73.6031128,26.5781873 73.9302106,26.9482064 74.3221666,27.2624389 C74.7141226,27.5769866 75.1410023,27.8354326 75.6034293,28.038092 C76.0658563,28.2404364 76.5482397,28.3879397 77.0508913,28.4790261 C77.5529193,28.5704278 78.0558827,28.6161286 78.5585344,28.6161286 C79.704156,28.6161286 80.6991692,28.3879397 81.543574,27.9315619 C82.387667,27.4751841 83.0858289,26.8668904 83.6389952,26.106681 C84.1915377,25.3461563 84.603762,24.4690158 84.875356,23.4752595 C85.1466382,22.4821334 85.2822793,21.4578048 85.2822793,20.4029038 C85.2822793,19.2471459 85.1316709,18.1626183 84.8298305,17.1483753 C84.5283019,16.1344475 84.0761649,15.2472213 83.4731076,14.4866967 Z M49,28.1900079 L52.7689517,28.1900079 L52.7689517,9.75681974 L62.5681637,9.75681974 L62.5681637,28.1900079 L66.3374271,28.1900079 L66.3374271,6.47171895 L49,6.47171895 L49,28.1900079 Z M200.981879,8.32070046 C199.461771,8.32070046 198.319269,7.54451572 196.789479,5.4643406 C195.385557,7.45137355 194.136551,8.28965307 192.577714,8.28965307 C190.302392,8.28965307 188.578957,6.49925359 188.578957,4.13965197 C188.578957,1.78005035 190.312074,0 192.597078,0 C194.117186,0 195.259688,0.776184745 196.789479,2.85635986 C198.1934,0.869326914 199.442407,0.0310473898 201.001244,0.0310473898 C203.276565,0.0310473898 205,1.82144687 205,4.18104849 C205,6.54065011 203.266883,8.32070046 200.981879,8.32070046 Z M192.725113,1.84904455 C191.385005,1.84904455 190.403518,2.82524819 190.403518,4.16513554 C190.403518,5.49545227 191.375568,6.47165591 192.715676,6.47165591 C193.810412,6.47165591 194.678651,5.83042411 195.877198,4.14599429 C194.499341,2.39457011 193.753788,1.84904455 192.725113,1.84904455 Z M203.17544,4.15556492 C203.17544,2.82524819 202.203389,1.84904455 200.863281,1.84904455 C199.768545,1.84904455 198.900306,2.49027635 197.701759,4.17470617 C199.079616,5.92613035 199.825169,6.47165591 200.853844,6.47165591 C202.193952,6.47165591 203.17544,5.49545227 203.17544,4.15556492 Z" id="∞"></path>
            </g>
        </g>
    </g>
</svg>